<svg width="23" height="23" viewBox="0 0 23 23" fill="none" xmlns="http://www.w3.org/2000/svg">
<path d="M0 2C0 1.46957 0.210714 0.960859 0.585786 0.585786C0.960859 0.210714 1.46957 0 2 0H8C8.53043 0 9.03914 0.210714 9.41421 0.585786C9.78929 0.960859 10 1.46957 10 2V8C10 8.53043 9.78929 9.03914 9.41421 9.41421C9.03914 9.78929 8.53043 10 8 10H2C1.46957 10 0.960859 9.78929 0.585786 9.41421C0.210714 9.03914 0 8.53043 0 8V2ZM0 15C0 14.4696 0.210714 13.9609 0.585786 13.5858C0.960859 13.2107 1.46957 13 2 13H8C8.53043 13 9.03914 13.2107 9.41421 13.5858C9.78929 13.9609 10 14.4696 10 15V21C10 21.5304 9.78929 22.0391 9.41421 22.4142C9.03914 22.7893 8.53043 23 8 23H2C1.46957 23 0.960859 22.7893 0.585786 22.4142C0.210714 22.0391 0 21.5304 0 21V15ZM13 2C13 1.46957 13.2107 0.960859 13.5858 0.585786C13.9609 0.210714 14.4696 0 15 0H21C21.5304 0 22.0391 0.210714 22.4142 0.585786C22.7893 0.960859 23 1.46957 23 2V8C23 8.53043 22.7893 9.03914 22.4142 9.41421C22.0391 9.78929 21.5304 10 21 10H15C14.4696 10 13.9609 9.78929 13.5858 9.41421C13.2107 9.03914 13 8.53043 13 8V2ZM13 15C13 14.4696 13.2107 13.9609 13.5858 13.5858C13.9609 13.2107 14.4696 13 15 13H21C21.5304 13 22.0391 13.2107 22.4142 13.5858C22.7893 13.9609 23 14.4696 23 15V21C23 21.5304 22.7893 22.0391 22.4142 22.4142C22.0391 22.7893 21.5304 23 21 23H15C14.4696 23 13.9609 22.7893 13.5858 22.4142C13.2107 22.0391 13 21.5304 13 21V15Z" fill="#1C1C24"/>
</svg>
