<svg width="19" height="20" viewBox="0 0 19 20" fill="none" xmlns="http://www.w3.org/2000/svg">
<path fill-rule="evenodd" clip-rule="evenodd" d="M12.9674 0C16.1256 0 18.2471 2.16273 18.2471 5.38122V14.6188C18.2471 17.8654 16.1909 19.9769 13.0085 19.997L5.28076 20C2.12255 20 0 17.8373 0 14.6188V5.38122C0 2.1336 2.05625 0.023104 5.23857 0.00401808L12.9663 0H12.9674ZM12.9674 1.50678L5.2436 1.5108C2.90507 1.52486 1.50678 2.97137 1.50678 5.38122V14.6188C1.50678 17.0447 2.91813 18.4932 5.27976 18.4932L13.0035 18.4902C15.342 18.4761 16.7403 17.0276 16.7403 14.6188V5.38122C16.7403 2.9553 15.33 1.50678 12.9674 1.50678ZM12.7736 13.5346C13.1895 13.5346 13.527 13.8721 13.527 14.288C13.527 14.7039 13.1895 15.0414 12.7736 15.0414H5.52094C5.10507 15.0414 4.76755 14.7039 4.76755 14.288C4.76755 13.8721 5.10507 13.5346 5.52094 13.5346H12.7736ZM12.7736 9.32918C13.1895 9.32918 13.527 9.6667 13.527 10.0826C13.527 10.4984 13.1895 10.836 12.7736 10.836H5.52094C5.10507 10.836 4.76755 10.4984 4.76755 10.0826C4.76755 9.6667 5.10507 9.32918 5.52094 9.32918H12.7736ZM8.2881 5.1335C8.70397 5.1335 9.04149 5.47102 9.04149 5.88689C9.04149 6.30276 8.70397 6.64028 8.2881 6.64028H5.52064C5.10477 6.64028 4.76725 6.30276 4.76725 5.88689C4.76725 5.47102 5.10477 5.1335 5.52064 5.1335H8.2881Z" fill="black"/>
</svg>
