<?xml version="1.0" encoding="utf-8"?>
<!-- Generator: Adobe Illustrator 22.1.0, SVG Export Plug-In . SVG Version: 6.00 Build 0)  -->
<svg version="1.1" id="Layer_1" xmlns="http://www.w3.org/2000/svg" xmlns:xlink="http://www.w3.org/1999/xlink" x="0px" y="0px"
	 viewBox="0 0 5000 5000" style="enable-background:new 0 0 5000 5000;" xml:space="preserve">
<style type="text/css">
	.st0{fill:#060606;}
</style>
<g>
	<path d="M4633.8,1598.5c-58-137.2-130-269.6-213.6-393.4c-82.9-122.6-178-237.9-282.8-342.6c-104.8-104.8-220.1-199.9-342.6-282.8
		c-123.9-83.6-256.2-155.6-393.4-213.6C3115.8,245.4,2812.5,184,2499.9,184s-615.9,61.2-901.5,182.1
		c-137.2,58-269.6,130-393.4,213.6c-122.6,82.9-237.9,178-342.6,282.8s-199.9,220.1-282.8,342.6C496,1328.9,424,1461.3,366,1598.5
		c-120.7,285.5-182.1,588.9-182.1,901.5s61.2,615.9,182.1,901.5c58,137.2,130,269.6,213.6,393.4c82.9,122.6,178,237.9,282.8,342.6
		c104.8,104.8,220.1,199.9,342.6,282.8c123.9,83.6,256.2,155.6,393.4,213.6c285.5,120.7,588.9,182.1,901.5,182.1
		s615.9-61.2,901.5-182.1c137.2-58,269.6-129.8,393.4-213.6c122.6-82.9,237.9-178,342.6-282.8c104.8-104.8,199.9-220.1,282.8-342.6
		c83.6-123.9,155.6-256.2,213.6-393.4c120.7-285.5,182.1-588.9,182.1-901.5S4754.7,1884.1,4633.8,1598.5z M2500.1,4778.7
		c-1256.5,0-2278.7-1022.2-2278.7-2278.7S1243.5,221.3,2500.1,221.3S4778.8,1243.5,4778.8,2500S3756.6,4778.7,2500.1,4778.7z"/>
</g>
<g>
	<path class="st0" d="M2519.6,1256c71.8,118,143.8,235.9,215.2,354.1c168.6,279.2,336.9,558.6,505.3,837.9
		c33.4,55.5,31,65.1-25.6,98.1c-221.7,129.3-443.8,258-664.8,388.6c-35.1,20.7-62.9,21.2-97.9,0.4
		c-222.3-131.6-445.6-261.4-668.5-391.9c-54.3-31.8-56.3-40.1-23.7-94.4c229.8-381.8,459.6-763.6,689.6-1145.4
		c9.8-16.3,21-31.7,31.5-47.5C2493.7,1256,2506.6,1256,2519.6,1256z M2461.2,1452c-2.7-1.2-5.4-2.4-8-3.5
		c-189.7,315.7-379.3,631.4-569.8,948.5c7.3,1.3,10.7,3.1,12.8,2.2c180.6-82,360.9-164.6,541.9-245.8c20.9-9.4,23.5-22.1,23.4-41.3
		C2461,1892.1,2461.2,1672.1,2461.2,1452z M3109.6,2401.9c2-2.5,3.9-5.1,5.9-7.6c-189.6-315.5-379.3-631.1-576.4-959
		c0,237,0.1,458.4-0.2,679.8c0,17.7,3.3,28.9,21.9,37.3C2744,2234.9,2926.7,2318.6,3109.6,2401.9z M3137.5,2500
		c-204-92.7-399.3-181.4-595-270.3c0,208.5,0,411,0,618C2740.6,2732,2934.1,2618.9,3137.5,2500z M1863.1,2500.1
		c203.2,118.7,398.3,232.6,595.1,347.6c0-209,0-411.7,0-618.3C2259.8,2319.6,2065.5,2408,1863.1,2500.1z"/>
	<path class="st0" d="M2480.7,3744c-236.2-331.7-472.3-663.4-708.5-995.1c-8.4-11.9-17.7-23.2-25-35.8c-9.7-16.7-10.3-34.1,3.2-49.4
		c13.8-15.5,30.9-16.2,48.5-7.6c11.6,5.6,22.5,12.7,33.5,19.4c210.5,126.5,421.4,252.4,631.1,380.3c27.5,16.8,45.7,16.9,73.3,0.1
		c211.1-128.6,423.4-255.2,635.5-382.3c12.4-7.4,24.9-16.3,38.5-19.5c31.2-7.5,54.7,19.9,43.1,49.6c-4.6,11.8-13.4,22.1-20.9,32.6
		c-236.8,331.8-473.6,663.5-710.3,995.3c-2.3,3.3-2.2,8.3-3.2,12.5C2506.6,3744,2493.7,3744,2480.7,3744z M2461.2,3582.4
		c0-146.7-0.7-279.1,0.7-411.6c0.2-23.7-10.4-33.7-28.4-44.3c-154.1-91.3-307.7-183.4-461.7-274.9c-9.7-5.8-19.5-19.2-35.2-5.7
		C2108.6,3087.6,2280.8,3329.3,2461.2,3582.4z M3060.2,2848.9c-3.6-3.7-7.2-7.5-10.8-11.2c-165.6,99.1-331.2,198.3-496.9,297.3
		c-11,6.6-13.7,15.9-13.7,28.3c0.4,135.2,0.2,270.5,0.2,419.3C2717.9,3330.7,2889.1,3089.8,3060.2,2848.9z"/>
</g>
</svg>
