<?xml version="1.0" encoding="utf-8"?>
<!-- Generator: Adobe Illustrator 22.1.0, SVG Export Plug-In . SVG Version: 6.00 Build 0)  -->
<svg version="1.1" id="Layer_1" xmlns="http://www.w3.org/2000/svg" xmlns:xlink="http://www.w3.org/1999/xlink" x="0px" y="0px"
	 viewBox="0 0 5000 5000" style="enable-background:new 0 0 5000 5000;" xml:space="preserve">
<g>
	<path d="M4633.8,1598.5c-58-137.2-130-269.6-213.6-393.4c-82.9-122.6-178-237.9-282.8-342.6c-104.8-104.8-220.1-199.9-342.6-282.8
		c-123.9-83.6-256.2-155.6-393.4-213.6C3115.8,245.4,2812.5,184,2499.9,184s-615.9,61.2-901.5,182.1
		c-137.2,58-269.6,130-393.4,213.6c-122.6,82.9-237.9,178-342.6,282.8s-199.9,220.1-282.8,342.6C496,1328.9,424,1461.3,366,1598.5
		c-120.7,285.5-182.1,588.9-182.1,901.5s61.2,615.9,182.1,901.5c58,137.2,130,269.6,213.6,393.4c82.9,122.6,178,237.9,282.8,342.6
		c104.8,104.8,220.1,199.9,342.6,282.8c123.9,83.6,256.2,155.6,393.4,213.6c285.5,120.7,588.9,182.1,901.5,182.1
		s615.9-61.2,901.5-182.1c137.2-58,269.6-129.8,393.4-213.6c122.6-82.9,237.9-178,342.6-282.8c104.8-104.8,199.9-220.1,282.8-342.6
		c83.6-123.9,155.6-256.2,213.6-393.4c120.7-285.5,182.1-588.9,182.1-901.5S4754.7,1884.1,4633.8,1598.5z M2500.1,4778.7
		c-1256.5,0-2278.7-1022.2-2278.7-2278.7S1243.5,221.3,2500.1,221.3S4778.8,1243.5,4778.8,2500S3756.6,4778.7,2500.1,4778.7z"/>
</g>
<path d="M2401.1,2665.8h110.5v-663.1h-110.5V2665.8z M2732.6,2500h110.5v-386.8h-110.5V2500z M2069.5,2444.7H2180v-331.6h-110.5
	V2444.7z M1903.7,3494.7V3079c-105-95.8-186.5-203.4-244.5-323c-58-119.5-87-242.2-87-368.1c0-245.2,86-453.6,257.9-625.2
	c171.9-171.6,380.7-257.4,626.3-257.4c199.1,0,379,60.6,539.8,181.8c160.8,121.2,265,277.8,312.8,469.6l114.6,453.6
	c7.3,28,2.1,53.5-15.8,76.4c-17.9,22.9-41.7,34.3-71.4,34.3h-216.8v374.1c0,49.1-17.5,91.1-52.4,126.1c-35,35-77,52.4-126.1,52.4
	h-263.6v221h-110.5v-331.6h374.1c19.8,0,36.1-6.4,48.9-19.1c12.8-12.8,19.1-29,19.1-48.9v-484.6h298.4l-105-428.3
	c-42.4-169-133.3-305.7-272.9-410c-139.6-104.3-297.3-156.4-473.1-156.4c-213.7,0-396,74.8-547.1,224.4
	c-151,149.6-226.6,331.6-226.6,545.8c0,110.2,22.6,214.8,67.7,314c45.1,99.1,109.1,187.3,192,264.4l71.8,66.1v464.2H1903.7z"/>
</svg>
