<?xml version="1.0" encoding="utf-8"?>
<!-- Generator: Adobe Illustrator 22.1.0, SVG Export Plug-In . SVG Version: 6.00 Build 0)  -->
<svg version="1.1" id="Layer_1" xmlns="http://www.w3.org/2000/svg" xmlns:xlink="http://www.w3.org/1999/xlink" x="0px" y="0px"
	 viewBox="0 0 5000 5000" style="enable-background:new 0 0 5000 5000;" xml:space="preserve">
<g>
	<path d="M4633.8,1598.5c-58-137.2-130-269.6-213.6-393.4c-82.9-122.6-178-237.9-282.8-342.6c-104.8-104.8-220.1-199.9-342.6-282.8
		c-123.9-83.6-256.2-155.6-393.4-213.6C3115.8,245.4,2812.5,184,2499.9,184s-615.9,61.2-901.5,182.1
		c-137.2,58-269.6,130-393.4,213.6c-122.6,82.9-237.9,178-342.6,282.8s-199.9,220.1-282.8,342.6C496,1328.9,424,1461.3,366,1598.5
		C245.3,1884,183.9,2187.4,183.9,2500s61.2,615.9,182.1,901.5c58,137.2,130,269.6,213.6,393.4c82.9,122.6,178,237.9,282.8,342.6
		c104.8,104.8,220.1,199.9,342.6,282.8c123.9,83.6,256.2,155.6,393.4,213.6c285.5,120.7,588.9,182.1,901.5,182.1
		s615.9-61.2,901.5-182.1c137.2-58,269.6-129.8,393.4-213.6c122.6-82.9,237.9-178,342.6-282.8c104.8-104.8,199.9-220.1,282.8-342.6
		c83.6-123.9,155.6-256.2,213.6-393.4c120.7-285.5,182.1-588.9,182.1-901.5S4754.7,1884.1,4633.8,1598.5z M2500.1,4778.7
		c-1256.5,0-2278.7-1022.2-2278.7-2278.7S1243.5,221.3,2500.1,221.3S4778.8,1243.5,4778.8,2500S3756.6,4778.7,2500.1,4778.7z"/>
</g>
<path d="M2161.5,3406.7c-41.1,0-75.7-14.1-103.9-42.2c-28.2-28.2-42.2-62.8-42.2-103.9c0-41.1,14.1-75.7,42.2-103.9
	s62.8-42.2,103.9-42.2s75.7,14.1,103.9,42.2s42.2,62.8,42.2,103.9c0,41.1-14.1,75.7-42.2,103.9
	C2237.2,3392.6,2202.6,3406.7,2161.5,3406.7z M3075.6,3406.7c-41.1,0-75.7-14.1-103.9-42.2c-28.2-28.2-42.2-62.8-42.2-103.9
	c0-41.1,14.1-75.7,42.2-103.9s62.8-42.2,103.9-42.2c41.1,0,75.7,14.1,103.9,42.2s42.2,62.8,42.2,103.9c0,41.1-14.1,75.7-42.2,103.9
	C3151.3,3392.6,3116.7,3406.7,3075.6,3406.7z M2022.5,1885.6l260,546.9h646.2c11.2,0,21.2-2.8,29.9-8.4c8.8-5.6,16.2-13.5,22.5-23.4
	l254.8-462.7c7.5-13.7,8.1-25.9,1.8-36.6s-16.9-15.9-31.9-15.9C3205.9,1885.6,2022.5,1885.6,2022.5,1885.6z M1974.9,1788.2h1268.2
	c42.3,0,74.2,17.2,95.5,51.8c21.3,34.5,22.5,70.1,3.3,106.6l-278.4,507.3c-14.1,23.8-32.5,42.3-55,55.8
	c-22.5,13.5-47.3,20.2-74.3,20.2h-695.7l-118.4,217.3c-10,15-10.3,31.2-0.9,48.7c9.4,17.5,23.4,26.3,42.2,26.3h1060.3v97.4H2161.5
	c-56.8,0-99.2-23.9-127.2-71.8c-27.9-47.9-28.7-96-2.1-144.4l146.5-261.1l-358.2-751.5h-176v-97.4h237.9L1974.9,1788.2z
	 M2282.4,2432.6h681.9H2282.4z"/>
</svg>
