<?xml version="1.0" encoding="utf-8"?>
<!-- Generator: Adobe Illustrator 22.1.0, SVG Export Plug-In . SVG Version: 6.00 Build 0)  -->
<svg version="1.1" id="Layer_1" xmlns="http://www.w3.org/2000/svg" xmlns:xlink="http://www.w3.org/1999/xlink" x="0px" y="0px"
	 viewBox="0 0 5000 5000" style="enable-background:new 0 0 5000 5000;" xml:space="preserve">
<g>
	<path d="M4633.8,1598.5c-58-137.2-130-269.6-213.6-393.4c-82.9-122.6-178-237.9-282.8-342.6c-104.8-104.8-220.1-199.9-342.6-282.8
		c-123.9-83.6-256.2-155.6-393.4-213.6C3115.8,245.4,2812.5,184,2499.9,184s-615.9,61.2-901.5,182.1
		c-137.2,58-269.6,130-393.4,213.6c-122.6,82.9-237.9,178-342.6,282.8s-199.9,220.1-282.8,342.6C496,1328.9,424,1461.3,366,1598.5
		C245.3,1884,183.9,2187.4,183.9,2500s61.2,615.9,182.1,901.5c58,137.2,130,269.6,213.6,393.4c82.9,122.6,178,237.9,282.8,342.6
		c104.8,104.8,220.1,199.9,342.6,282.8c123.9,83.6,256.2,155.6,393.4,213.6c285.5,120.7,588.9,182.1,901.5,182.1
		s615.9-61.2,901.5-182.1c137.2-58,269.6-129.8,393.4-213.6c122.6-82.9,237.9-178,342.6-282.8c104.8-104.8,199.9-220.1,282.8-342.6
		c83.6-123.9,155.6-256.2,213.6-393.4c120.7-285.5,182.1-588.9,182.1-901.5S4754.7,1884.1,4633.8,1598.5z M2500.1,4778.7
		c-1256.5,0-2278.7-1022.2-2278.7-2278.7S1243.5,221.3,2500.1,221.3S4778.8,1243.5,4778.8,2500S3756.6,4778.7,2500.1,4778.7z"/>
</g>
<path d="M2486.8,3484.3c-92.8,0-171.3-32-235.3-96.1c-64.1-64.1-96.1-142.6-96.1-235.3c0-83,26.5-155.1,79.4-216.1
	c52.9-61.1,119.5-97.9,199.5-110.3v-269.8h-578v-377.9h-252.7v-610.4H2214v610.4h-252.7v272.8h1051v-277.9
	c-80-12.4-146.5-49.1-199.5-110.3c-52.9-61.1-79.4-133.2-79.4-216.1c0-92.8,32.1-171.3,96.2-235.3s142.6-96.1,235.3-96.1
	c92.8,0,171.3,32,235.3,96.1s96.1,142.6,96.1,235.3c0,83-26.5,155.1-79.4,216.1c-52.9,61.1-119.5,97.9-199.5,110.3v383h-578v269.8
	c80,12.4,146.5,49.1,199.5,110.3s79.4,133.2,79.4,216.1c0,92.8-32,171.3-96.2,235.3C2658.1,3452.3,2579.6,3484.3,2486.8,3484.3z
	 M3065.3,2073.5c62.7,0,116-22.2,160-66.5c44-44.3,66-97.7,66-160.4c0-62.7-22.2-116-66.5-160s-97.7-66-160.4-66
	c-62.7,0-116,22.2-160,66.5c-44,44.3-66,97.7-66,160.4c0,62.7,22.2,116,66.5,160C2949.2,2051.6,3002.7,2073.5,3065.3,2073.5z
	 M1708.7,2073.5h400.2v-400.2h-400.2C1708.7,1673.4,1708.7,2073.5,1708.7,2073.5z M2487.3,3379.2c62.7,0,116-22.2,160-66.5
	c44-44.3,66-97.7,66-160.4c0-62.7-22.2-116-66.5-160c-44.3-44-97.7-66-160.4-66c-62.7,0-116,22.2-160,66.5
	c-44,44.3-66,97.7-66,160.4c0,62.7,22.2,116,66.5,160C2371.2,3357.2,2424.6,3379.2,2487.3,3379.2z"/>
</svg>
