<?xml version="1.0" encoding="utf-8"?>
<!-- Generator: Adobe Illustrator 22.1.0, SVG Export Plug-In . SVG Version: 6.00 Build 0)  -->
<svg version="1.1" id="Layer_1" xmlns="http://www.w3.org/2000/svg" xmlns:xlink="http://www.w3.org/1999/xlink" x="0px" y="0px"
	 viewBox="0 0 5000 5000" style="enable-background:new 0 0 5000 5000;" xml:space="preserve">
<g>
	<path d="M4633.8,1598.5c-58-137.2-130-269.6-213.6-393.4c-82.9-122.6-178-237.9-282.8-342.6c-104.8-104.8-220.1-199.9-342.6-282.8
		c-123.9-83.6-256.2-155.6-393.4-213.6C3115.8,245.4,2812.5,184,2499.9,184s-615.9,61.2-901.5,182.1
		c-137.2,58-269.6,130-393.4,213.6c-122.6,82.9-237.9,178-342.6,282.8s-199.9,220.1-282.8,342.6C496,1328.9,424,1461.3,366,1598.5
		C245.3,1884,183.9,2187.4,183.9,2500s61.2,615.9,182.1,901.5c58,137.2,130,269.6,213.6,393.4c82.9,122.6,178,237.9,282.8,342.6
		c104.8,104.8,220.1,199.9,342.6,282.8c123.9,83.6,256.2,155.6,393.4,213.6c285.5,120.7,588.9,182.1,901.5,182.1
		s615.9-61.2,901.5-182.1c137.2-58,269.6-129.8,393.4-213.6c122.6-82.9,237.9-178,342.6-282.8c104.8-104.8,199.9-220.1,282.8-342.6
		c83.6-123.9,155.6-256.2,213.6-393.4c120.7-285.5,182.1-588.9,182.1-901.5S4754.7,1884.1,4633.8,1598.5z M2500.1,4778.7
		c-1256.5,0-2278.7-1022.2-2278.7-2278.7S1243.5,221.3,2500.1,221.3S4778.8,1243.5,4778.8,2500S3756.6,4778.7,2500.1,4778.7z"/>
</g>
<path d="M2771.9,2337.6l-73.6-73.6l302.7-302.7l-302.7-302.7l73.6-75.6l302.7,302.7l302.7-302.7l73.6,75.6l-302.7,302.7l302.7,302.7
	l-73.6,73.6l-302.7-302.7C3074.6,2034.9,2771.9,2337.6,2771.9,2337.6z M1549.1,2358.1l456.5-795.6l456.5,795.6
	C2462,2358.1,1549.1,2358.1,1549.1,2358.1z M2007.6,3437.5c-105.3,0-194.3-36.4-267.1-109.2c-72.8-72.8-109.2-161.5-109.2-266.2
	c0-106.3,36.4-195.7,109.2-268.3s161.8-108.8,267.1-108.8c105.3,0,194.3,36.4,267.1,109.2c72.8,72.8,109.2,161.8,109.2,267.1
	c0,105.3-36.4,194.3-109.2,267.1S2112.9,3437.5,2007.6,3437.5z M2007.6,3330.6c75.3,0,138.9-26.1,191.1-78.3
	c52.2-52.2,78.3-115.8,78.3-191.1s-26.1-138.9-78.3-191.1s-115.8-78.3-191.1-78.3s-138.9,26.1-191.1,78.3
	c-52.2,52.2-78.3,115.8-78.3,191.1s26.1,138.9,78.3,191.1C1868.6,3304.5,1932.3,3330.6,2007.6,3330.6z M1733.8,2251.2h545.7
	l-273.8-471.9L1733.8,2251.2z M2698.4,3437.5V2685h752.5v752.5H2698.4z M2805.3,3330.6H3344v-538.6h-538.6V3330.6z"/>
</svg>
