<?xml version="1.0" encoding="utf-8"?>
<!-- Generator: Adobe Illustrator 22.1.0, SVG Export Plug-In . SVG Version: 6.00 Build 0)  -->
<svg version="1.1" id="Layer_1" xmlns="http://www.w3.org/2000/svg" xmlns:xlink="http://www.w3.org/1999/xlink" x="0px" y="0px"
	 viewBox="0 0 5000 5000" style="enable-background:new 0 0 5000 5000;" xml:space="preserve">
<g>
	<path d="M4633.8,1598.5c-58-137.2-130-269.6-213.6-393.4c-82.9-122.6-178-237.9-282.8-342.6c-104.8-104.8-220.1-199.9-342.6-282.8
		c-123.9-83.6-256.2-155.6-393.4-213.6C3115.8,245.4,2812.5,184,2499.9,184s-615.9,61.2-901.5,182.1
		c-137.2,58-269.6,130-393.4,213.6c-122.6,82.9-237.9,178-342.6,282.8s-199.9,220.1-282.8,342.6C496,1328.9,424,1461.3,366,1598.5
		c-120.7,285.5-182.1,588.9-182.1,901.5s61.2,615.9,182.1,901.5c58,137.2,130,269.6,213.6,393.4c82.9,122.6,178,237.9,282.8,342.6
		c104.8,104.8,220.1,199.9,342.6,282.8c123.9,83.6,256.2,155.6,393.4,213.6c285.5,120.7,588.9,182.1,901.5,182.1
		s615.9-61.2,901.5-182.1c137.2-58,269.6-129.8,393.4-213.6c122.6-82.9,237.9-178,342.6-282.8c104.8-104.8,199.9-220.1,282.8-342.6
		c83.6-123.9,155.6-256.2,213.6-393.4c120.7-285.5,182.1-588.9,182.1-901.5S4754.7,1884.1,4633.8,1598.5z M2500.1,4778.7
		c-1256.5,0-2278.7-1022.2-2278.7-2278.7S1243.5,221.3,2500.1,221.3S4778.8,1243.5,4778.8,2500S3756.6,4778.7,2500.1,4778.7z"/>
</g>
<path d="M3039.8,3434.8H1948.7V2239.1l681.4-673.1l48.1,48.1c9.9,9.9,18.2,22.6,25,38c6.8,15.5,10.1,29.7,10.1,42.6v17.1
	l-111.2,527.2h755.4c45.4,0,86,17.9,121.9,53.7c35.8,35.8,53.7,76.4,53.7,121.9v133.8c0,9.9-1.1,20.7-3.3,32.4
	c-2.2,11.7-5.2,22.5-8.8,32.4l-296.8,703.6c-14.9,33.4-40,61.5-75.2,84C3113.6,3423.5,3077.3,3434.8,3039.8,3434.8z M2057.4,3326.1
	h982.4c15.3,0,31-4.2,47-12.5c16-8.4,28.2-22.3,36.6-41.8l301-706.5v-150.5c0-19.5-6.3-35.5-18.8-48.1
	c-12.5-12.5-28.6-18.8-48.1-18.8h-890.5l125.8-593.6l-535.5,531.3C2057.4,2285.5,2057.4,3326.1,2057.4,3326.1z M2057.4,2285.5
	v1040.5V2285.5z M1948.7,2239.1v108.7h-372.1v978.2h372.1v108.7h-480.8V2239.1C1467.9,2239.1,1948.7,2239.1,1948.7,2239.1z"/>
</svg>
