<svg width="22" height="17" viewBox="0 0 22 17" fill="none" xmlns="http://www.w3.org/2000/svg">
<path d="M18.0822 1.54772C16.7131 0.917229 15.2665 0.470392 13.781 0.218842C13.5922 0.548638 13.3794 0.991595 13.2307 1.34984C11.6501 1.11446 10.0437 1.11446 8.4638 1.34984C8.29501 0.963142 8.10619 0.586144 7.8986 0.218842C6.41054 0.470392 4.96254 0.919171 3.59346 1.55354C0.879247 5.60034 0.142016 9.55078 0.509344 13.4411C2.10282 14.6251 3.88838 15.5259 5.7871 16.1047C6.21457 15.5259 6.59223 14.9122 6.91816 14.2708C6.30121 14.0405 5.70562 13.756 5.13846 13.4204C5.28656 13.3085 5.43013 13.196 5.56788 13.0828C8.9094 14.6633 12.7825 14.6633 16.124 13.0828C16.2657 13.1999 16.4124 13.3124 16.5592 13.4223C15.9914 13.7592 15.3945 14.0451 14.7763 14.2759C15.1016 14.9168 15.4799 15.5291 15.9074 16.106C17.8074 15.5298 19.5929 14.6284 21.1851 13.4424C21.6145 8.93258 20.442 5.0177 18.0822 1.54772ZM7.38121 11.051C6.3523 11.051 5.50772 10.1088 5.50772 8.95133C5.50772 7.79381 6.33355 6.84386 7.38121 6.84386C8.42887 6.84386 9.26637 7.78605 9.25666 8.94551C9.24696 10.105 8.42887 11.051 7.38121 11.051ZM14.3081 11.051C13.2791 11.051 12.4346 10.1088 12.4346 8.95133C12.4346 7.79381 13.2604 6.84386 14.3081 6.84386C15.3564 6.84386 16.1932 7.78605 16.1816 8.94551C16.1706 10.105 15.3564 11.051 14.3081 11.051Z" fill="#000000"/>
</svg>
