<svg width="171" height="171" viewBox="0 0 171 171" fill="none" xmlns="http://www.w3.org/2000/svg">
<path d="M91.807 3.85541C92.9374 3.92981 93.7962 4.25572 94.3836 4.83314C94.9811 5.40161 95.2509 6.12649 95.1929 7.00779C95.1292 7.97529 94.7693 8.69241 94.1133 9.15913C93.4572 9.62584 92.564 9.822 91.4336 9.7476L91.1952 9.86179L89.3129 9.7379L89.085 13.2008L86.6566 13.041L87.2808 3.55749L91.807 3.85541ZM91.1813 8.10027C91.6603 8.1318 92.0258 8.05965 92.2779 7.88383C92.53 7.708 92.6699 7.40935 92.6976 6.98786C92.7247 6.57595 92.6249 6.26632 92.398 6.05898C92.1711 5.85163 91.8182 5.73219 91.3392 5.70067L89.5862 5.58528L89.4283 7.98489L91.1813 8.10027ZM92.5985 8.71308L95.3211 13.6113L92.591 13.4316L90.436 9.11912L92.5985 8.71308Z" fill="#24FF8A"/>
<path d="M99.3542 14.6025C98.5715 14.4529 97.9206 14.177 97.4013 13.7747C96.8914 13.3742 96.5332 12.8708 96.3266 12.2644C96.1199 11.658 96.0905 10.9683 96.2384 10.1951C96.3862 9.42186 96.668 8.79156 97.0837 8.30415C97.4994 7.81674 98.0134 7.48007 98.6256 7.29412C99.2472 7.10997 99.921 7.0873 100.647 7.2261C101.392 7.36851 101.996 7.63545 102.459 8.0269C102.933 8.41072 103.258 8.88337 103.434 9.44482C103.612 9.99685 103.638 10.5982 103.514 11.2488C103.481 11.4185 103.444 11.5873 103.402 11.7553C103.361 11.9232 103.319 12.0619 103.279 12.1715L97.6779 11.1007L97.924 9.81359L102.464 10.6816L101.235 10.901C101.343 10.3353 101.322 9.88168 101.172 9.54029C101.032 9.2007 100.75 8.99034 100.325 8.90922C100.024 8.85154 99.7508 8.87268 99.5068 8.97266C99.2724 9.07444 99.0697 9.26538 98.8989 9.54549C98.7375 9.82739 98.6117 10.2041 98.5216 10.6755C98.4332 11.1376 98.4224 11.5265 98.4891 11.8422C98.5576 12.1485 98.6924 12.3893 98.8935 12.5646C99.0963 12.7304 99.3581 12.844 99.6786 12.9053C100.037 12.9738 100.333 12.9571 100.568 12.8554C100.812 12.7554 101.01 12.588 101.162 12.3533L102.964 13.3575C102.755 13.7377 102.458 14.0377 102.074 14.2575C101.701 14.4696 101.275 14.6032 100.795 14.6581C100.325 14.7148 99.8445 14.6963 99.3542 14.6025Z" fill="#24FF8A"/>
<path d="M110.332 6.45934C110.71 6.57057 111.029 6.70968 111.29 6.87666C111.554 7.03444 111.74 7.18432 111.848 7.32631L111.182 8.7213C111.1 8.627 111 8.54244 110.881 8.46762C110.763 8.3928 110.608 8.32691 110.414 8.26993C110.092 8.17498 109.803 8.16997 109.548 8.2549C109.302 8.34255 109.125 8.57055 109.016 8.9389L108.752 9.83674L108.776 10.2642L106.977 16.3695L104.629 15.6777L106.851 8.13582C106.981 7.69381 107.161 7.3366 107.392 7.0642C107.631 6.79451 107.91 6.59636 108.227 6.46974C108.545 6.34311 108.883 6.28259 109.242 6.28818C109.6 6.29376 109.964 6.35081 110.332 6.45934ZM110.973 10.0409L110.481 11.7123L105.066 10.117L105.559 8.44565L110.973 10.0409Z" fill="#24FF8A"/>
<path d="M112.711 18.588C111.973 18.2895 111.388 17.8926 110.956 17.3973C110.534 16.9056 110.28 16.3423 110.195 15.7074C110.109 15.0724 110.214 14.39 110.509 13.6602C110.804 12.9303 111.203 12.3666 111.705 11.969C112.207 11.5714 112.777 11.3408 113.413 11.277C114.059 11.2169 114.724 11.3253 115.41 11.6022C116.113 11.8863 116.654 12.2652 117.032 12.739C117.422 13.2074 117.649 13.7341 117.713 14.319C117.781 14.8951 117.691 15.4902 117.442 16.1043C117.378 16.2645 117.309 16.4229 117.235 16.5796C117.161 16.7362 117.094 16.8643 117.033 16.9639L111.746 14.8277L112.237 13.6127L116.523 15.3444L115.274 15.3213C115.49 14.7872 115.557 14.3382 115.476 13.9743C115.405 13.6139 115.168 13.3528 114.768 13.191C114.483 13.0759 114.211 13.0438 113.953 13.0946C113.703 13.149 113.467 13.297 113.245 13.5387C113.032 13.7839 112.836 14.1291 112.656 14.5741C112.48 15.0103 112.394 15.3897 112.398 15.7124C112.406 16.0261 112.491 16.2885 112.655 16.4994C112.821 16.7015 113.056 16.8636 113.359 16.9859C113.697 17.1225 113.991 17.1637 114.241 17.1093C114.499 17.0585 114.726 16.9327 114.921 16.7319L116.494 18.0664C116.215 18.3988 115.866 18.6356 115.446 18.7767C115.039 18.9126 114.595 18.961 114.114 18.9218C113.642 18.8863 113.174 18.7751 112.711 18.588Z" fill="#24FF8A"/>
<path d="M117.298 20.461L120.637 14.0823L122.551 15.0842L121.919 16.5088C122.33 16.1171 122.762 15.8718 123.214 15.7729C123.676 15.6785 124.153 15.7604 124.646 16.0186C124.808 16.1032 124.937 16.1872 125.034 16.2706C125.14 16.3585 125.216 16.4415 125.261 16.5196L124.11 18.1921C124.042 18.1136 123.945 18.0302 123.818 17.9419C123.704 17.8496 123.553 17.7545 123.366 17.6565C123.111 17.5229 122.844 17.4535 122.565 17.4483C122.286 17.4431 122.02 17.5155 121.768 17.6653C121.53 17.8112 121.323 18.0499 121.15 18.3816L119.466 21.5965L117.298 20.461Z" fill="#24FF8A"/>
<path d="M138.441 22.8153L132.167 25.6968L130.115 28.4954L128.118 27.0307L130.17 24.2321L131.032 17.3824L133.099 18.8982L132.638 21.792L132.27 23.4866L133.787 22.635L136.409 21.3251L138.441 22.8153Z" fill="#24FF8A"/>
<path d="M139.413 26.8181C139.971 27.3317 140.358 27.8897 140.573 28.4922C140.802 29.0942 140.841 29.7108 140.691 30.3421C140.554 30.9729 140.219 31.5779 139.686 32.1571C139.153 32.7364 138.575 33.1238 137.951 33.3196C137.341 33.5148 136.723 33.5268 136.098 33.3558C135.486 33.1841 134.901 32.8415 134.343 32.328C133.799 31.8274 133.412 31.2761 133.184 30.6742C132.961 30.0651 132.919 29.4452 133.056 28.8145C133.206 28.1832 133.548 27.5779 134.081 26.9987C134.614 26.4194 135.185 26.0322 135.796 25.8371C136.419 25.6413 137.041 25.6325 137.66 25.8106C138.285 25.9817 138.87 26.3175 139.413 26.8181ZM138.234 28.1002C138.029 27.9117 137.807 27.7986 137.567 27.761C137.328 27.7234 137.069 27.7783 136.789 27.9258C136.51 28.0732 136.211 28.32 135.893 28.6662C135.574 29.0123 135.353 29.3306 135.229 29.6211C135.112 29.9045 135.079 30.1675 135.129 30.4099C135.187 30.6454 135.318 30.8573 135.523 31.0459C135.735 31.2409 135.96 31.3572 136.2 31.3948C136.445 31.4254 136.705 31.3705 136.977 31.2301C137.257 31.0826 137.556 30.8358 137.874 30.4896C138.193 30.1435 138.414 29.8252 138.538 29.5347C138.661 29.2442 138.695 28.9813 138.637 28.7459C138.58 28.5104 138.445 28.2952 138.234 28.1002Z" fill="#24FF8A"/>
<path d="M139.803 37.9087C139.486 37.5355 139.269 37.1534 139.151 36.7624C139.047 36.3725 139.069 35.9759 139.217 35.5725C139.366 35.1692 139.671 34.7718 140.132 34.3803L143.798 31.2667L145.382 33.1326L142.156 35.8732C141.804 36.1715 141.618 36.4492 141.597 36.7063C141.576 36.9634 141.675 37.22 141.892 37.4761C142.004 37.6078 142.132 37.7136 142.275 37.7934C142.426 37.8669 142.586 37.9072 142.755 37.9142C142.932 37.915 143.116 37.8721 143.307 37.7855C143.512 37.7 143.72 37.5672 143.932 37.3869L146.874 34.8887L148.459 36.7545L142.971 41.4155L141.554 39.7472L142.539 38.816C142.002 38.9698 141.505 38.9702 141.047 38.8171C140.597 38.6578 140.183 38.355 139.803 37.9087Z" fill="#24FF8A"/>
<path d="M144.051 42.9681L149.983 38.8867L151.207 40.6661L149.983 41.6307C150.529 41.4762 151.026 41.4609 151.472 41.5849C151.924 41.7167 152.308 42.0119 152.624 42.4706C152.727 42.6209 152.802 42.7556 152.849 42.8747C152.902 43.0018 152.93 43.1105 152.934 43.201L151.134 44.1422C151.112 44.0413 151.065 43.9222 150.993 43.7848C150.935 43.6498 150.847 43.4953 150.727 43.3213C150.564 43.0841 150.36 42.898 150.116 42.7631C149.871 42.6283 149.603 42.5683 149.31 42.5833C149.031 42.6007 148.737 42.7155 148.428 42.9277L145.439 44.9848L144.051 42.9681Z" fill="#24FF8A"/>
<path d="M159.801 55.6789L157.725 51.2287L155.898 52.0808L157.554 55.6305L155.818 56.44L154.162 52.8903L150.848 54.4362L149.801 52.1916L158.414 48.1745L161.536 54.8694L159.801 55.6789Z" fill="#24FF8A"/>
<path d="M153.11 59.6454L159.905 57.2663L160.619 59.3049L159.184 59.914C159.752 59.9085 160.235 60.0242 160.633 60.2611C161.035 60.5071 161.327 60.8928 161.511 61.4183C161.572 61.5905 161.609 61.7402 161.623 61.8675C161.64 62.0039 161.639 62.1162 161.619 62.2046L159.635 62.6397C159.64 62.5364 159.626 62.4091 159.593 62.2578C159.573 62.1124 159.528 61.94 159.458 61.7406C159.363 61.4688 159.215 61.2357 159.015 61.0414C158.814 60.8471 158.571 60.7186 158.285 60.6561C158.011 60.5995 157.697 60.6331 157.344 60.7568L153.919 61.9559L153.11 59.6454Z" fill="#24FF8A"/>
<path d="M163.063 64.3721C162.931 63.8907 162.922 63.5148 163.037 63.2443C163.164 62.9806 163.422 62.7954 163.811 62.6887C164.209 62.5795 164.525 62.6072 164.759 62.7719C165.005 62.9432 165.195 63.2696 165.327 63.7511C165.456 64.2232 165.459 64.5958 165.335 64.8688C165.22 65.1392 164.963 65.3291 164.565 65.4383C164.176 65.545 163.859 65.5126 163.613 65.3412C163.376 65.1673 163.193 64.8443 163.063 64.3721ZM162.581 65.7735L155.638 67.6786L154.99 65.3178L161.934 63.4127L162.581 65.7735Z" fill="#24FF8A"/>
<path d="M156.55 72.6356C156.406 71.8519 156.428 71.1452 156.615 70.5155C156.804 69.8953 157.143 69.3792 157.634 68.9671C158.124 68.5551 158.757 68.278 159.531 68.136C160.305 67.994 160.995 68.0286 161.6 68.2398C162.205 68.4509 162.704 68.8082 163.099 69.3116C163.496 69.8245 163.761 70.4445 163.894 71.1715C164.031 71.9175 164.001 72.577 163.803 73.15C163.617 73.7308 163.294 74.2048 162.834 74.5721C162.384 74.9378 161.833 75.1803 161.182 75.2998C161.012 75.331 160.841 75.3574 160.669 75.3792C160.497 75.4009 160.353 75.4127 160.236 75.4146L159.208 69.8057L160.497 69.5694L161.331 74.1159L160.681 73.0492C161.248 72.9453 161.663 72.7618 161.927 72.4986C162.193 72.2449 162.287 71.9056 162.209 71.4807C162.153 71.1785 162.035 70.9318 161.853 70.7406C161.674 70.5589 161.422 70.439 161.099 70.3811C160.778 70.3327 160.382 70.3518 159.909 70.4384C159.447 70.5232 159.08 70.6539 158.81 70.8303C158.549 71.005 158.374 71.2178 158.283 71.4687C158.202 71.7178 158.191 72.0029 158.249 72.3239C158.315 72.6827 158.438 72.953 158.618 73.1348C158.799 73.326 159.027 73.4501 159.301 73.5072L159.017 75.5504C158.587 75.4927 158.2 75.3246 157.856 75.046C157.523 74.7752 157.244 74.4261 157.019 73.9989C156.796 73.5811 156.64 73.1266 156.55 72.6356Z" fill="#24FF8A"/>
<path d="M157.488 77.4976L164.675 77.0617L164.807 79.2465L162.343 79.5258L162.599 79.2362C163.123 79.3006 163.564 79.4421 163.923 79.6608C164.284 79.889 164.561 80.18 164.755 80.5336C164.96 80.8963 165.076 81.3076 165.104 81.7676C165.135 82.2658 165.065 82.7029 164.895 83.0786C164.726 83.464 164.461 83.7734 164.1 84.0068C163.74 84.2403 163.276 84.3742 162.711 84.4085L157.925 84.6987L157.776 82.2552L161.916 82.0042C162.414 81.974 162.753 81.8572 162.933 81.654C163.113 81.4507 163.194 81.2005 163.176 80.9035C163.163 80.6735 163.092 80.4614 162.965 80.2671C162.847 80.0723 162.665 79.9246 162.419 79.8242C162.172 79.7237 161.848 79.6857 161.445 79.7101L157.636 79.9411L157.488 77.4976Z" fill="#24FF8A"/>
<path d="M157.602 89.3576C157.641 88.7637 157.819 88.2511 158.136 87.8198C158.462 87.3987 158.911 87.082 159.483 86.8696C160.054 86.6667 160.728 86.5908 161.504 86.642C162.309 86.695 162.98 86.8644 163.52 87.1501C164.058 87.4453 164.461 87.8279 164.728 88.2977C164.995 88.777 165.109 89.3137 165.07 89.9076C165.027 90.559 164.791 91.0678 164.363 91.434C163.944 91.8105 163.424 92.0359 162.803 92.1105L162.516 91.8607L167.833 92.2111L167.672 94.6538L157.441 93.9795L157.585 91.7954L160.038 91.7984L159.804 92.0715C159.329 91.9825 158.922 91.8065 158.583 91.5437C158.244 91.2904 157.986 90.9752 157.808 90.5979C157.64 90.2308 157.571 89.8174 157.602 89.3576ZM159.342 90.3238C159.324 90.6016 159.38 90.841 159.511 91.042C159.651 91.2533 159.866 91.4214 160.156 91.5464C160.446 91.6713 160.807 91.748 161.238 91.7764C161.64 91.8029 161.983 91.7726 162.268 91.6856C162.562 91.6087 162.787 91.4745 162.944 91.2828C163.11 91.1013 163.202 90.8717 163.22 90.5939C163.248 90.1724 163.112 89.8267 162.813 89.5568C162.522 89.2971 162.041 89.1452 161.371 89.101C160.7 89.0568 160.199 89.144 159.867 89.3626C159.545 89.5819 159.37 89.9023 159.342 90.3238Z" fill="#24FF8A"/>
<path d="M156.475 98.8109C156.606 98.1028 156.841 97.4629 157.181 96.891C157.528 96.3303 157.956 95.8918 158.463 95.5754L159.585 96.9538C159.24 97.1341 158.927 97.3986 158.648 97.7474C158.377 98.1073 158.197 98.528 158.108 99.0095C158.054 99.3022 158.052 99.5507 158.102 99.7552C158.152 99.9597 158.267 100.078 158.446 100.112C158.579 100.136 158.691 100.108 158.784 100.027C158.886 99.9487 158.992 99.7729 159.101 99.5002L159.482 98.5454C159.825 97.6911 160.206 97.1073 160.625 96.7941C161.052 96.4921 161.553 96.3942 162.129 96.5004C162.516 96.5718 162.862 96.7577 163.168 97.0581C163.483 97.3603 163.704 97.7769 163.831 98.3079C163.967 98.8406 163.964 99.4893 163.823 100.254C163.691 100.971 163.47 101.585 163.162 102.094C162.853 102.603 162.471 102.982 162.015 103.23L160.924 101.842C161.249 101.668 161.525 101.416 161.751 101.087C161.978 100.758 162.125 100.414 162.191 100.055C162.232 99.8288 162.245 99.6309 162.227 99.4617C162.217 99.3037 162.181 99.18 162.12 99.0905C162.058 99.001 161.971 98.9459 161.857 98.925C161.735 98.9023 161.616 98.939 161.5 99.0348C161.393 99.1419 161.276 99.3498 161.151 99.6586L160.658 100.9C160.392 101.603 160.055 102.082 159.646 102.339C159.238 102.596 158.788 102.679 158.297 102.588C157.835 102.503 157.442 102.303 157.119 101.99C156.796 101.677 156.571 101.254 156.445 100.723C156.327 100.194 156.338 99.5567 156.475 98.8109Z" fill="#24FF8A"/>
<path d="M164.118 108.392L161.157 107.591L158.004 106.454L158.527 104.522L161.823 105.13L164.784 105.932L164.118 108.392ZM157.489 105.27C157.374 105.697 157.183 105.998 156.916 106.174C156.647 106.36 156.327 106.403 155.956 106.303C155.595 106.205 155.345 106.008 155.206 105.712C155.065 105.425 155.052 105.068 155.168 104.642C155.278 104.234 155.468 103.938 155.737 103.752C156.006 103.566 156.321 103.522 156.682 103.62C157.053 103.72 157.308 103.918 157.446 104.215C157.585 104.511 157.599 104.863 157.489 105.27Z" fill="#24FF8A"/>
<path d="M155.093 119.083L153.261 118.278L155.38 113.453L157.212 114.257L155.093 119.083Z" fill="#24FF8A"/>
<path d="M152.512 132.544C151.872 133.479 151.153 134.051 150.357 134.262C149.563 134.486 148.802 134.348 148.074 133.849C147.274 133.3 146.841 132.625 146.774 131.823C146.707 131.02 146.994 130.152 147.635 129.218L147.658 128.954L148.725 127.398L145.863 125.436L147.239 123.429L155.077 128.803L152.512 132.544ZM149.18 129.841C148.909 130.237 148.785 130.588 148.807 130.894C148.83 131.201 149.015 131.474 149.364 131.712C149.704 131.946 150.021 132.018 150.316 131.929C150.61 131.839 150.892 131.597 151.164 131.201L152.157 129.752L150.174 128.392L149.18 129.841ZM147.93 130.747L142.329 130.591L143.876 128.334L148.684 128.68L147.93 130.747Z" fill="#24FF8A"/>
<path d="M139.387 133.591C139.915 132.994 140.484 132.575 141.095 132.334C141.7 132.099 142.315 132.048 142.942 132.18C143.569 132.312 144.177 132.639 144.767 133.16C145.356 133.682 145.755 134.246 145.962 134.852C146.169 135.458 146.196 136.072 146.043 136.694C145.885 137.322 145.56 137.913 145.07 138.467C144.568 139.035 144.03 139.418 143.457 139.616C142.885 139.828 142.313 139.866 141.74 139.731C141.175 139.602 140.644 139.318 140.148 138.879C140.018 138.765 139.892 138.647 139.769 138.525C139.646 138.403 139.548 138.297 139.474 138.206L143.253 133.936L144.235 134.805L141.171 138.266L141.61 137.097C142.041 137.478 142.442 137.692 142.812 137.737C143.176 137.79 143.501 137.655 143.787 137.331C143.991 137.101 144.112 136.856 144.15 136.595C144.182 136.341 144.122 136.07 143.968 135.78C143.808 135.497 143.548 135.197 143.189 134.879C142.836 134.567 142.507 134.359 142.202 134.255C141.903 134.158 141.628 134.151 141.374 134.234C141.128 134.324 140.897 134.491 140.681 134.736C140.439 135.009 140.302 135.272 140.27 135.526C140.231 135.787 140.274 136.043 140.398 136.293L138.615 137.331C138.395 136.956 138.288 136.548 138.295 136.105C138.303 135.677 138.406 135.242 138.603 134.801C138.795 134.368 139.056 133.964 139.387 133.591Z" fill="#24FF8A"/>
<path d="M140.83 147.156C140.542 147.425 140.26 147.629 139.983 147.769C139.713 147.915 139.49 147.999 139.312 148.02L138.45 146.737C138.573 146.714 138.697 146.671 138.822 146.607C138.946 146.544 139.082 146.443 139.23 146.306C139.475 146.077 139.627 145.831 139.683 145.568C139.733 145.311 139.627 145.043 139.365 144.762L138.727 144.077L138.347 143.881L134.006 139.225L135.797 137.556L141.158 143.306C141.473 143.643 141.688 143.98 141.806 144.317C141.916 144.661 141.945 145.001 141.892 145.339C141.84 145.677 141.72 145.999 141.532 146.305C141.345 146.611 141.111 146.895 140.83 147.156ZM137.421 145.886L136.232 144.611L140.361 140.762L141.549 142.036L137.421 145.886Z" fill="#24FF8A"/>
<path d="M129.163 143.051C129.795 142.566 130.434 142.264 131.08 142.144C131.718 142.03 132.333 142.097 132.923 142.346C133.513 142.596 134.047 143.033 134.526 143.658C135.005 144.282 135.288 144.912 135.375 145.547C135.462 146.181 135.372 146.789 135.103 147.37C134.827 147.956 134.395 148.475 133.809 148.924C133.207 149.385 132.606 149.659 132.006 149.744C131.404 149.842 130.835 149.77 130.298 149.528C129.768 149.293 129.301 148.913 128.898 148.387C128.793 148.25 128.692 148.11 128.594 147.967C128.497 147.824 128.421 147.701 128.366 147.598L132.892 144.13L133.689 145.17L130.02 147.981L130.675 146.917C131.025 147.375 131.377 147.661 131.732 147.776C132.079 147.898 132.424 147.827 132.766 147.564C133.01 147.377 133.176 147.159 133.264 146.911C133.344 146.668 133.336 146.39 133.241 146.076C133.138 145.768 132.94 145.423 132.648 145.042C132.362 144.669 132.079 144.402 131.799 144.242C131.525 144.089 131.255 144.029 130.991 144.063C130.732 144.104 130.473 144.224 130.214 144.422C129.924 144.644 129.739 144.876 129.659 145.119C129.572 145.368 129.565 145.627 129.639 145.897L127.69 146.574C127.546 146.165 127.519 145.743 127.611 145.31C127.7 144.891 127.884 144.484 128.163 144.089C128.433 143.701 128.766 143.354 129.163 143.051Z" fill="#24FF8A"/>
<path d="M125.234 146.042L129.037 152.156L127.202 153.296L126.295 152.029C126.424 152.582 126.417 153.078 126.272 153.519C126.12 153.964 125.807 154.334 125.334 154.628C125.179 154.724 125.041 154.793 124.92 154.835C124.791 154.881 124.681 154.904 124.59 154.904L123.733 153.063C123.835 153.045 123.956 153.003 124.097 152.939C124.234 152.887 124.393 152.805 124.572 152.694C124.817 152.542 125.012 152.347 125.158 152.109C125.304 151.871 125.376 151.606 125.375 151.313C125.37 151.033 125.269 150.734 125.072 150.416L123.155 147.335L125.234 146.042Z" fill="#24FF8A"/>
<path d="M112.446 163.076L113.151 156.209L111.783 153.019L114.059 152.043L115.427 155.232L120.889 159.455L118.534 160.465L116.275 158.598L115.003 157.42L114.965 159.16L114.762 162.083L112.446 163.076Z" fill="#24FF8A"/>
<path d="M108.529 161.868C107.803 162.087 107.126 162.136 106.497 162.015C105.863 161.905 105.312 161.625 104.845 161.175C104.372 160.736 104.021 160.14 103.794 159.386C103.566 158.632 103.527 157.937 103.676 157.301C103.818 156.676 104.122 156.138 104.588 155.687C105.047 155.248 105.639 154.918 106.365 154.699C107.073 154.486 107.744 154.433 108.379 154.543C109.016 154.661 109.571 154.94 110.045 155.378C110.512 155.829 110.859 156.431 111.086 157.185C111.314 157.939 111.356 158.628 111.214 159.252C111.065 159.889 110.757 160.428 110.289 160.87C109.823 161.322 109.237 161.654 108.529 161.868ZM108.025 160.2C108.292 160.119 108.502 159.986 108.656 159.799C108.811 159.612 108.895 159.36 108.91 159.045C108.925 158.73 108.865 158.347 108.729 157.896C108.593 157.446 108.432 157.094 108.245 156.839C108.06 156.594 107.851 156.432 107.616 156.352C107.384 156.282 107.135 156.287 106.869 156.367C106.593 156.45 106.378 156.585 106.224 156.772C106.072 156.969 105.988 157.22 105.97 157.526C105.955 157.841 106.015 158.224 106.151 158.675C106.287 159.125 106.449 159.477 106.636 159.732C106.823 159.986 107.032 160.148 107.264 160.219C107.496 160.289 107.75 160.283 108.025 160.2Z" fill="#24FF8A"/>
<path d="M98.7656 156.558C99.2483 156.476 99.6879 156.484 100.084 156.582C100.473 156.691 100.803 156.913 101.074 157.246C101.345 157.58 101.531 158.045 101.633 158.641L102.44 163.383L100.027 163.794L99.316 159.62C99.2387 159.166 99.0948 158.864 98.8844 158.715C98.674 158.566 98.4032 158.519 98.0719 158.576C97.9016 158.605 97.7455 158.66 97.6038 158.743C97.4636 158.835 97.3472 158.952 97.2546 159.094C97.1636 159.246 97.1066 159.426 97.0837 159.635C97.0529 159.854 97.0608 160.101 97.1076 160.376L97.7552 164.18L95.342 164.591L94.1336 157.493L96.2914 157.126L96.5895 158.448C96.7312 157.908 96.9846 157.48 97.3497 157.165C97.7164 156.859 98.1883 156.657 98.7656 156.558Z" fill="#24FF8A"/>
<path d="M92.2767 157.626L92.7619 164.81L90.6068 164.955L90.4014 163.41C90.2557 163.959 90.0156 164.394 89.6813 164.715C89.3374 165.036 88.8877 165.216 88.3321 165.253C88.1501 165.265 87.9959 165.261 87.8695 165.241C87.7334 165.221 87.6255 165.19 87.5456 165.148L87.654 163.12C87.7524 163.151 87.8788 163.172 88.0334 163.181C88.179 163.2 88.3572 163.202 88.5679 163.188C88.8552 163.168 89.1192 163.088 89.3598 162.947C89.6005 162.805 89.789 162.605 89.9254 162.346C90.0529 162.096 90.1041 161.785 90.0788 161.412L89.8343 157.791L92.2767 157.626Z" fill="#24FF8A"/>
<path d="M73.1688 164.691L78.0554 165.174L78.2537 163.168L74.3559 162.783L74.5442 160.877L78.4421 161.262L78.8018 157.622L81.2666 157.866L80.3319 167.324L72.9805 166.597L73.1688 164.691Z" fill="#24FF8A"/>
<path d="M73.2097 156.921L71.8004 163.982L69.6822 163.559L69.8877 162.014C69.6036 162.506 69.2583 162.863 68.8517 163.085C68.4357 163.305 67.9547 163.361 67.4087 163.252C67.2298 163.216 67.082 163.172 66.9653 163.12C66.8391 163.065 66.7431 163.007 66.6771 162.945L67.3118 161.016C67.3984 161.072 67.5152 161.125 67.6621 161.174C67.7976 161.23 67.969 161.279 68.1761 161.32C68.4585 161.377 68.7343 161.368 69.0035 161.294C69.2727 161.221 69.5071 161.077 69.7066 160.862C69.8948 160.655 70.0255 160.368 70.0988 160.001L70.8091 156.442L73.2097 156.921Z" fill="#24FF8A"/>
<path d="M64.0412 163.076C64.5228 163.207 64.8507 163.391 65.0249 163.628C65.1874 163.871 65.2156 164.187 65.1094 164.576C65.0008 164.974 64.8159 165.232 64.5549 165.35C64.2821 165.475 63.9049 165.471 63.4233 165.34C62.9509 165.211 62.6289 165.024 62.4572 164.778C62.2829 164.541 62.2501 164.224 62.3588 163.826C62.4649 163.437 62.6544 163.18 62.9272 163.055C63.1975 162.94 63.5688 162.947 64.0412 163.076ZM63.0802 161.948L64.9755 155.002L67.3372 155.646L65.4418 162.592L63.0802 161.948Z" fill="#24FF8A"/>
<path d="M60.2649 153.27C61.0127 153.545 61.61 153.923 62.0568 154.405C62.4946 154.883 62.766 155.438 62.871 156.07C62.976 156.702 62.8926 157.387 62.6207 158.126C62.3489 158.865 61.9682 159.441 61.4786 159.854C60.989 160.267 60.427 160.516 59.7927 160.599C59.1493 160.68 58.4808 160.592 57.7871 160.337C57.0753 160.075 56.5231 159.713 56.1304 159.252C55.7253 158.796 55.4817 158.276 55.3994 157.694C55.3139 157.12 55.3855 156.522 55.6142 155.901C55.6739 155.739 55.7381 155.578 55.8068 155.419C55.8754 155.26 55.9387 155.13 55.9965 155.029L61.348 156.998L60.8955 158.228L56.5575 156.632L57.8063 156.615C57.6074 157.156 57.554 157.607 57.6461 157.968C57.7292 158.326 57.9735 158.58 58.3789 158.729C58.6672 158.835 58.9398 158.858 59.1967 158.8C59.4447 158.737 59.6757 158.582 59.89 158.334C60.0951 158.082 60.2806 157.731 60.4464 157.28C60.6088 156.839 60.6829 156.457 60.6686 156.134C60.6509 155.821 60.5572 155.561 60.3873 155.356C60.2142 155.159 59.9745 155.004 59.6682 154.892C59.3258 154.766 59.0307 154.734 58.7827 154.796C58.5258 154.855 58.303 154.988 58.1144 155.194L56.5003 153.91C56.769 153.569 57.1107 153.321 57.5255 153.167C57.928 153.019 58.3703 152.956 58.8525 152.98C59.3256 153.001 59.7965 153.097 60.2649 153.27Z" fill="#24FF8A"/>
<path d="M55.5762 151.591L52.2853 157.995L50.3385 156.994L51.3553 154.732L51.4736 155.101C51.1513 155.518 50.8044 155.825 50.433 156.023C50.053 156.216 49.6613 156.306 49.2578 156.293C48.8415 156.284 48.4284 156.175 48.0185 155.964C47.5745 155.736 47.2342 155.453 46.9974 155.116C46.7522 154.774 46.6212 154.388 46.6045 153.958C46.5878 153.529 46.7089 153.062 46.9677 152.558L49.1595 148.293L51.3368 149.412L49.4413 153.101C49.2131 153.545 49.1405 153.896 49.2235 154.155C49.3065 154.413 49.4804 154.611 49.7451 154.747C49.95 154.852 50.1684 154.899 50.4004 154.889C50.628 154.887 50.8479 154.806 51.06 154.645C51.2722 154.484 51.4704 154.225 51.6547 153.866L53.3989 150.472L55.5762 151.591Z" fill="#24FF8A"/>
<path d="M45.4384 145.711C45.9293 146.048 46.2793 146.462 46.4886 146.955C46.6844 147.45 46.7279 147.998 46.6188 148.598C46.5019 149.193 46.2235 149.811 45.7837 150.453C45.3277 151.118 44.8393 151.609 44.3185 151.927C43.7899 152.24 43.2553 152.391 42.7149 152.382C42.1666 152.366 41.647 152.19 41.1561 151.854C40.6177 151.485 40.3002 151.022 40.2037 150.467C40.0937 149.915 40.165 149.352 40.4175 148.781L40.7785 148.662L37.7653 153.056L35.7464 151.671L41.5448 143.216L43.3499 144.453L42.0961 146.562L41.9807 146.221C42.2997 145.858 42.6586 145.597 43.0574 145.44C43.4483 145.277 43.8512 145.216 44.2661 145.256C44.6676 145.299 45.0584 145.45 45.4384 145.711ZM43.7197 146.715C43.4901 146.557 43.2554 146.484 43.0157 146.494C42.7625 146.507 42.5083 146.606 42.2529 146.792C41.9975 146.977 41.7476 147.248 41.5033 147.605C41.2753 147.937 41.1261 148.248 41.0557 148.537C40.972 148.829 40.9726 149.091 41.0574 149.324C41.1289 149.559 41.2794 149.756 41.509 149.913C41.8574 150.152 42.2241 150.212 42.6091 150.091C42.9807 149.974 43.3566 149.638 43.7367 149.084C44.1167 148.529 44.2973 148.054 44.2786 147.657C44.2544 147.268 44.0681 146.954 43.7197 146.715Z" fill="#24FF8A"/>
<path d="M37.8501 139.892C38.3924 140.366 38.8227 140.895 39.1412 141.479C39.446 142.064 39.6051 142.655 39.6183 143.253L37.8602 143.515C37.8815 143.125 37.8134 142.722 37.6559 142.304C37.4848 141.887 37.2149 141.517 36.8461 141.195C36.622 140.999 36.4092 140.871 36.2078 140.81C36.0063 140.748 35.8456 140.787 35.7256 140.924C35.6372 141.025 35.6039 141.136 35.6257 141.257C35.6411 141.385 35.7384 141.566 35.9174 141.799L36.544 142.614C37.1037 143.345 37.4113 143.97 37.4669 144.49C37.5089 145.011 37.3373 145.493 36.9521 145.934C36.6932 146.23 36.3565 146.433 35.9421 146.543C35.5214 146.66 35.0504 146.637 34.5291 146.475C34.0016 146.32 33.445 145.987 32.8593 145.475C32.3098 144.995 31.8948 144.493 31.6144 143.968C31.3339 143.442 31.2034 142.92 31.2228 142.402L32.9728 142.171C32.9569 142.54 33.0326 142.906 33.2 143.268C33.3674 143.631 33.5885 143.933 33.8633 144.173C34.0368 144.324 34.2008 144.436 34.3553 144.507C34.4962 144.579 34.6209 144.611 34.7293 144.604C34.8376 144.597 34.9297 144.55 35.0055 144.463C35.0876 144.369 35.1168 144.248 35.0932 144.1C35.056 143.953 34.9366 143.746 34.735 143.481L33.9185 142.424C33.4502 141.836 33.2099 141.301 33.1978 140.819C33.1856 140.337 33.3437 139.908 33.6721 139.532C33.9815 139.178 34.3533 138.942 34.7876 138.824C35.2219 138.706 35.6997 138.728 36.2209 138.89C36.7358 139.059 37.2789 139.394 37.8501 139.892Z" fill="#24FF8A"/>
<path d="M25.7304 141.603L27.9275 139.463L30.5115 137.328L31.9082 138.762L29.706 141.289L27.5089 143.429L25.7304 141.603ZM31.7925 137.488C31.4844 137.171 31.3222 136.853 31.3061 136.534C31.2832 136.208 31.4093 135.911 31.6844 135.643C31.9525 135.382 32.2494 135.267 32.5748 135.298C32.8936 135.323 33.207 135.493 33.5152 135.81C33.8099 136.112 33.9687 136.427 33.9916 136.753C34.0144 137.079 33.8918 137.373 33.6236 137.634C33.3485 137.902 33.0483 138.02 32.7228 137.989C32.3974 137.957 32.0873 137.79 31.7925 137.488Z" fill="#24FF8A"/>
<path d="M21.1033 128.388L22.7274 127.218L25.8081 131.495L24.184 132.665L21.1033 128.388Z" fill="#24FF8A"/>
<path d="M10.8176 119.337C10.3378 118.311 10.2093 117.401 10.4321 116.608C10.6421 115.811 11.1471 115.225 11.9472 114.851C12.8255 114.44 13.6273 114.41 14.3525 114.76C15.0777 115.109 15.6801 115.797 16.1599 116.824L16.3749 116.977L17.1737 118.686L20.3176 117.217L21.3482 119.421L12.7385 123.446L10.8176 119.337ZM14.8383 117.839C14.635 117.404 14.3956 117.119 14.12 116.982C13.8444 116.846 13.5153 116.868 13.1326 117.047C12.7587 117.221 12.5356 117.458 12.4633 117.757C12.391 118.056 12.4565 118.422 12.6598 118.857L13.4038 120.449L15.5823 119.43L14.8383 117.839ZM14.6919 116.302L17.6709 111.555L18.8296 114.034L16.0902 118.001L14.6919 116.302Z" fill="#24FF8A"/>
<path d="M16.5935 107.521C16.8387 108.279 16.9099 108.983 16.807 109.631C16.7011 110.271 16.432 110.827 15.9998 111.3C15.5675 111.773 14.9769 112.13 14.2279 112.373C13.4789 112.615 12.7908 112.671 12.1635 112.541C11.5362 112.411 10.9939 112.122 10.5364 111.675C10.0759 111.218 9.73196 110.639 9.50444 109.935C9.27101 109.214 9.21462 108.556 9.33526 107.962C9.44381 107.362 9.70186 106.85 10.1094 106.425C10.5078 106.004 11.0221 105.691 11.6524 105.487C11.8168 105.434 11.9827 105.385 12.15 105.341C12.3174 105.297 12.4589 105.266 12.5744 105.249L14.3295 110.675L13.0827 111.078L11.66 106.68L12.4437 107.653C11.8957 107.83 11.508 108.066 11.2808 108.362C11.0505 108.648 11.0019 108.997 11.1349 109.408C11.2294 109.7 11.3792 109.929 11.5841 110.095C11.7862 110.252 12.051 110.337 12.3788 110.352C12.7036 110.358 13.0943 110.287 13.551 110.14C13.9986 109.995 14.3447 109.817 14.5895 109.607C14.8251 109.4 14.9714 109.166 15.0283 108.905C15.0761 108.647 15.0498 108.363 14.9494 108.053C14.8371 107.706 14.6799 107.454 14.4779 107.297C14.2729 107.131 14.0309 107.038 13.7518 107.018L13.7655 104.955C14.1997 104.956 14.6055 105.072 14.9829 105.303C15.3482 105.527 15.6703 105.837 15.9492 106.231C16.2251 106.616 16.4398 107.046 16.5935 107.521Z" fill="#24FF8A"/>
<path d="M4.17336 101.807C4.08934 101.423 4.05777 101.076 4.07865 100.767C4.09015 100.46 4.13211 100.224 4.20454 100.061L5.74801 99.9744C5.7049 100.092 5.67894 100.22 5.67011 100.36C5.66129 100.499 5.67839 100.668 5.72143 100.865C5.79316 101.193 5.92762 101.448 6.12481 101.631C6.31996 101.805 6.6051 101.851 6.98025 101.769L7.89468 101.569L8.25784 101.342L14.4759 99.9835L14.9985 102.375L7.31734 104.053C6.86716 104.152 6.46726 104.166 6.11765 104.095C5.76598 104.014 5.45829 103.865 5.19458 103.648C4.93087 103.43 4.71523 103.163 4.54767 102.846C4.38011 102.529 4.25534 102.182 4.17336 101.807ZM7.00539 99.5228L8.70762 99.1509L9.91263 104.666L8.21039 105.038L7.00539 99.5228Z" fill="#24FF8A"/>
<path d="M13.6654 93.9163C13.7596 94.7075 13.6936 95.4114 13.4673 96.0281C13.2399 96.6352 12.8684 97.129 12.353 97.5094C11.8375 97.8898 11.189 98.1265 10.4073 98.2196C9.62562 98.3127 8.9396 98.2348 8.34926 97.986C7.75891 97.7373 7.28251 97.3493 6.92004 96.822C6.55644 96.2852 6.33095 95.6498 6.24356 94.9158C6.15391 94.1627 6.22564 93.5065 6.45874 92.947C6.68117 92.3791 7.03331 91.9263 7.51517 91.5886C7.98749 91.252 8.55253 91.0445 9.21028 90.9662C9.38187 90.9458 9.55403 90.9302 9.72675 90.9193C9.89948 90.9084 10.0442 90.9056 10.1608 90.9111L10.8349 96.5735L9.5337 96.7284L8.98728 92.1384L9.56843 93.2439C8.99647 93.312 8.57045 93.469 8.29037 93.7151C8.00916 93.9516 7.89408 94.2843 7.94515 94.7133C7.98146 95.0183 8.08417 95.2719 8.25326 95.4742C8.42121 95.6669 8.66452 95.8023 8.98319 95.8803C9.30072 95.9489 9.6978 95.9548 10.1744 95.898C10.6415 95.8424 11.0155 95.7351 11.2962 95.576C11.5675 95.418 11.7562 95.2167 11.8624 94.972C11.9591 94.7285 11.9881 94.4447 11.9496 94.1205C11.9064 93.7583 11.8009 93.4808 11.6329 93.2881C11.4639 93.0859 11.2444 92.9477 10.9745 92.8735L11.3865 90.8522C11.8123 90.9369 12.188 91.129 12.5137 91.4286C12.8287 91.7198 13.085 92.0857 13.2824 92.5262C13.4788 92.9572 13.6064 93.4206 13.6654 93.9163Z" fill="#24FF8A"/>
<path d="M13.0953 88.9658L5.8969 89.1174L5.85142 86.9578L7.40415 86.8243C6.86283 86.6533 6.43966 86.3933 6.13465 86.0445C5.82944 85.686 5.67097 85.2285 5.65924 84.6718C5.6554 84.4894 5.66657 84.3356 5.69273 84.2102C5.7187 84.0752 5.75487 83.9688 5.80124 83.891L7.82194 84.0933C7.78557 84.1901 7.75941 84.3155 7.74345 84.4695C7.71769 84.614 7.70703 84.7919 7.71147 85.0031C7.71754 85.291 7.78558 85.5584 7.91561 85.8053C8.04564 86.0523 8.23704 86.2499 8.48982 86.3982C8.7328 86.5371 9.04145 86.6026 9.41576 86.5947L13.0438 86.5183L13.0953 88.9658Z" fill="#24FF8A"/>
<path d="M4.9587 69.2049L10.5096 73.3097L13.951 73.7569L13.6318 76.2131L10.1904 75.7658L3.77469 78.3155L4.10502 75.7736L6.86228 74.7815L8.524 74.2859L7.046 73.3678L4.63393 71.7039L4.9587 69.2049Z" fill="#24FF8A"/>
<path d="M7.99194 66.4496C8.17291 65.7132 8.47548 65.1054 8.89965 64.6264C9.31678 64.1357 9.83816 63.8042 10.4638 63.6317C11.0824 63.4476 11.7739 63.4495 12.5384 63.6373C13.3028 63.8252 13.9211 64.1452 14.3933 64.5973C14.8584 65.0378 15.1667 65.5732 15.3183 66.2036C15.4628 66.8224 15.4446 67.5 15.2636 68.2365C15.0872 68.9543 14.7905 69.5586 14.3733 70.0492C13.9469 70.5376 13.4243 70.8738 12.8057 71.0579C12.1801 71.2304 11.4851 71.2227 10.7206 71.0348C9.95615 70.847 9.34136 70.5328 8.87624 70.0923C8.40409 69.6402 8.0969 69.1001 7.95467 68.472C7.80312 67.8416 7.81554 67.1675 7.99194 66.4496ZM9.684 66.8654C9.61757 67.1358 9.62555 67.3849 9.70796 67.6127C9.79037 67.8406 9.96348 68.0413 10.2273 68.2149C10.4911 68.3884 10.8514 68.5313 11.3082 68.6436C11.765 68.7558 12.1505 68.7962 12.4647 68.7647C12.7696 68.7308 13.016 68.6332 13.204 68.4718C13.3826 68.3081 13.5051 68.0911 13.5716 67.8207C13.6403 67.541 13.6334 67.2873 13.551 67.0594C13.4593 66.8293 13.2862 66.6286 13.0317 66.4573C12.7679 66.2837 12.4076 66.1408 11.9508 66.0286C11.494 65.9163 11.1085 65.876 10.7943 65.9075C10.4801 65.939 10.2337 66.0367 10.055 66.2004C9.8764 66.3641 9.75273 66.5858 9.684 66.8654Z" fill="#24FF8A"/>
<path d="M17.5289 60.7572C17.3539 61.2145 17.1232 61.5888 16.837 61.8801C16.5452 62.159 16.1868 62.3302 15.7616 62.3937C15.3365 62.4571 14.8415 62.3807 14.2766 62.1646L9.78471 60.4455L10.6597 58.1592L14.6136 59.6724C15.044 59.8371 15.3769 59.8669 15.6125 59.7617C15.848 59.6565 16.0258 59.4471 16.1459 59.1333C16.2077 58.9719 16.2391 58.8092 16.2402 58.6451C16.2324 58.4776 16.1908 58.3178 16.1154 58.1656C16.031 58.01 15.905 57.8692 15.7373 57.7434C15.5641 57.6051 15.3475 57.4863 15.0874 57.3868L11.4832 56.0074L12.3581 53.7211L19.0825 56.2945L18.3002 58.3388L17.0103 57.9222C17.4031 58.3192 17.6423 58.7551 17.7279 59.2299C17.8045 59.7012 17.7382 60.2103 17.5289 60.7572Z" fill="#24FF8A"/>
<path d="M19.9248 54.6066L13.4983 51.3601L14.4723 49.4321L15.9058 50.0434C15.5082 49.6382 15.2567 49.21 15.1513 48.7587C15.0501 48.2989 15.1251 47.8205 15.3761 47.3235C15.4584 47.1607 15.5405 47.0301 15.6225 46.9317C15.7088 46.8248 15.7907 46.7478 15.8682 46.7009L17.5572 47.8285C17.4796 47.8968 17.3977 47.9952 17.3113 48.1237C17.2206 48.2392 17.1277 48.3912 17.0325 48.5798C16.9026 48.8368 16.8371 49.1049 16.8359 49.3839C16.8348 49.663 16.911 49.9273 17.0645 50.177C17.2138 50.4137 17.4555 50.6165 17.7897 50.7853L21.0286 52.4216L19.9248 54.6066Z" fill="#24FF8A"/>
<path d="M23.52 34.6939L20.6118 38.6505L22.2362 39.8444L24.5559 36.6884L26.0991 37.8227L23.7794 40.9787L26.7265 43.1449L25.2597 45.1406L17.6017 39.5119L21.9768 33.5596L23.52 34.6939Z" fill="#24FF8A"/>
<path d="M30.2215 38.6459L24.8688 33.8304L26.3135 32.2246L27.5371 33.1898C27.2594 32.6947 27.1287 32.2155 27.145 31.7524C27.1678 31.2822 27.3653 30.8401 27.7377 30.4262C27.8597 30.2906 27.9731 30.186 28.078 30.1125C28.1893 30.0318 28.2885 29.979 28.3755 29.954L29.7106 31.4843C29.6178 31.53 29.5129 31.6035 29.3959 31.7049C29.2782 31.7927 29.1487 31.9151 29.0075 32.0721C28.8149 32.2862 28.6815 32.5278 28.6073 32.7968C28.5332 33.0658 28.5375 33.3409 28.6203 33.622C28.7025 33.8896 28.8827 34.1486 29.161 34.399L31.8588 36.826L30.2215 38.6459Z" fill="#24FF8A"/>
<path d="M29.5713 27.6526C29.213 28.0002 28.8877 28.1888 28.5953 28.2183C28.3031 28.2342 28.0167 28.0975 27.7359 27.8081C27.4485 27.5118 27.3205 27.2213 27.352 26.9366C27.3837 26.6384 27.5787 26.3155 27.937 25.9679C28.2884 25.627 28.6137 25.4452 28.9127 25.4226C29.2051 25.3931 29.495 25.5265 29.7824 25.8228C30.0632 26.1122 30.1877 26.406 30.156 26.7043C30.1177 26.9956 29.9228 27.3117 29.5713 27.6526ZM31.0314 27.3999L36.0447 32.5678L34.2876 34.2723L29.2743 29.1044L31.0314 27.3999Z" fill="#24FF8A"/>
<path d="M39.9323 29.3914C39.3153 29.8955 38.6859 30.2177 38.0441 30.3578C37.4098 30.4918 36.7938 30.4434 36.1962 30.2127C35.5985 29.982 35.0507 29.5619 34.5526 28.9523C34.0545 28.3428 33.7519 27.7222 33.6449 27.0905C33.5379 26.4589 33.6096 25.8487 33.8598 25.2599C34.1176 24.665 34.5326 24.1336 35.105 23.6659C35.6923 23.186 36.2845 22.8943 36.8817 22.7906C37.4802 22.6735 38.0513 22.7275 38.5949 22.9528C39.1324 23.1706 39.6107 23.536 40.0299 24.0489C40.1392 24.1827 40.2448 24.3196 40.3467 24.4595C40.4486 24.5993 40.5286 24.72 40.5866 24.8213L36.171 28.4295L35.3418 27.4148L38.9212 24.49L38.3004 25.5737C37.936 25.1277 37.5748 24.8525 37.2168 24.7483C36.8663 24.638 36.5238 24.7195 36.1893 24.9928C35.9514 25.1872 35.7926 25.41 35.7127 25.6612C35.6403 25.9064 35.6566 26.1843 35.7618 26.4951C35.8744 26.7998 36.0826 27.138 36.3863 27.5097C36.684 27.874 36.9753 28.1318 37.2602 28.2833C37.5391 28.4273 37.8102 28.4785 38.0737 28.4368C38.3311 28.3877 38.5861 28.2598 38.8389 28.0533C39.1214 27.8225 39.2988 27.5845 39.3713 27.3393C39.4511 27.0881 39.4499 26.8287 39.3677 26.5612L41.2942 25.8238C41.4513 26.2285 41.4909 26.6486 41.413 27.0843C41.3364 27.5064 41.1652 27.919 40.8995 28.322C40.6413 28.7191 40.3188 29.0755 39.9323 29.3914Z" fill="#24FF8A"/>
<path d="M43.7623 26.2035L39.9134 20.1187L41.7632 18.9486L43.1967 20.9725L42.8193 20.8875C42.6233 20.3981 42.5343 19.9432 42.5524 19.5228C42.5786 19.0973 42.6996 18.7141 42.9156 18.373C43.1345 18.0187 43.4386 17.7184 43.8281 17.4721C44.25 17.2052 44.6664 17.0554 45.0773 17.0226C45.4964 16.9848 45.8952 17.0676 46.2738 17.2711C46.6525 17.4746 46.9932 17.8157 47.296 18.2944L49.8594 22.3469L47.7905 23.6555L45.5735 20.1507C45.3067 19.7288 45.0408 19.488 44.7759 19.4284C44.511 19.3688 44.2528 19.4185 44.0013 19.5776C43.8065 19.7008 43.6548 19.8649 43.546 20.07C43.4321 20.267 43.3906 20.4978 43.4215 20.7622C43.4525 21.0266 43.5757 21.3292 43.7912 21.6699L45.8312 24.8949L43.7623 26.2035Z" fill="#24FF8A"/>
<path d="M53.9861 20.4436C53.4468 20.6956 52.9119 20.7867 52.3812 20.7168C51.8551 20.6342 51.3611 20.3935 50.8993 19.9947C50.4461 19.5919 50.0549 19.0383 49.7256 18.3338C49.3842 17.6033 49.2087 16.9329 49.199 16.3228C49.1981 15.7087 49.339 15.1713 49.6218 14.7106C49.9132 14.2459 50.3286 13.8875 50.8678 13.6355C51.4592 13.3591 52.0185 13.3202 52.5458 13.5189C53.0778 13.7047 53.526 14.0516 53.8905 14.5594L53.8098 14.9309L51.5539 10.1041L53.7716 9.06756L58.1127 18.356L56.1298 19.2827L54.9498 17.1321L55.3022 17.2058C55.4532 17.665 55.4952 18.1064 55.4282 18.5298C55.3698 18.9491 55.2181 19.3273 54.973 19.6644C54.7325 19.9888 54.4035 20.2485 53.9861 20.4436ZM53.9936 18.4532C54.2458 18.3353 54.4284 18.1705 54.5414 17.9587C54.659 17.7342 54.7026 17.4648 54.6723 17.1505C54.6419 16.8362 54.5353 16.4833 54.3524 16.092C54.1817 15.7267 53.9896 15.4403 53.776 15.2328C53.5671 15.0125 53.3409 14.8799 53.0972 14.8348C52.8583 14.7769 52.6127 14.8069 52.3605 14.9248C51.9778 15.1036 51.7405 15.3894 51.6485 15.7821C51.5611 16.162 51.6597 16.6564 51.9442 17.2651C52.2288 17.8739 52.5468 18.271 52.8984 18.4564C53.2459 18.6331 53.6109 18.632 53.9936 18.4532Z" fill="#24FF8A"/>
<path d="M62.8281 16.8728C62.1445 17.0989 61.4704 17.2006 60.8056 17.1779C60.1469 17.143 59.5568 16.9793 59.0353 16.6866L59.7039 15.0397C60.0282 15.256 60.4104 15.4026 60.8504 15.4795C61.2965 15.5442 61.752 15.4997 62.2168 15.3459C62.4994 15.2525 62.7182 15.1346 62.8733 14.9922C63.0285 14.8499 63.0774 14.6922 63.0201 14.519C62.9779 14.3914 62.8992 14.3062 62.7839 14.2634C62.6656 14.2116 62.4607 14.2035 62.1692 14.2393L61.1489 14.3645C60.2349 14.4747 59.5398 14.4216 59.0637 14.205C58.5936 13.9762 58.2667 13.5838 58.0827 13.0279C57.9591 12.6542 57.9554 12.2611 58.0717 11.8485C58.185 11.4267 58.444 11.0327 58.8485 10.6662C59.2501 10.2907 59.82 9.98083 60.5583 9.7366C61.251 9.50744 61.8948 9.40568 62.4897 9.43131C63.0847 9.45694 63.6004 9.60989 64.0369 9.89017L63.3457 11.5143C63.0365 11.3132 62.6831 11.1925 62.2855 11.1521C61.8879 11.1118 61.5159 11.1489 61.1696 11.2635C60.9508 11.3358 60.7715 11.4204 60.6317 11.5173C60.4979 11.602 60.4066 11.6928 60.3578 11.7899C60.309 11.8869 60.3027 11.9901 60.3389 12.0995C60.3781 12.218 60.4675 12.3047 60.607 12.3596C60.7526 12.4025 60.9909 12.4045 61.3219 12.3658L62.6474 12.2003C63.3914 12.0957 63.9741 12.1608 64.3956 12.3955C64.817 12.6302 65.1061 12.9845 65.2629 13.4585C65.4107 13.9051 65.4249 14.3453 65.3055 14.7791C65.1861 15.213 64.9241 15.6131 64.5195 15.9795C64.1119 16.3369 63.5481 16.6346 62.8281 16.8728Z" fill="#24FF8A"/>
<path d="M67.5521 5.56369L68.2737 8.5448L68.7938 11.8562L66.8484 12.3271L65.7965 9.14444L65.0749 6.16333L67.5521 5.56369ZM68.0038 12.8771C68.433 12.7732 68.7891 12.7957 69.072 12.9445C69.3643 13.091 69.5556 13.3509 69.646 13.7241C69.734 14.088 69.6816 14.402 69.4887 14.666C69.3051 14.9277 68.9987 15.1105 68.5695 15.2144C68.159 15.3138 67.8076 15.2902 67.5153 15.1436C67.223 14.9971 67.0328 14.7419 66.9448 14.378C66.8544 14.0048 66.9057 13.6862 67.0986 13.4222C67.2915 13.1582 67.5932 12.9765 68.0038 12.8771Z" fill="#24FF8A"/>
<path d="M81.246 8.33015L81.4239 10.3238L76.1744 10.7922L75.9965 8.79851L81.246 8.33015Z" fill="#24FF8A"/>
</svg>
