<svg width="19" height="16" viewBox="0 0 19 16" fill="none" xmlns="http://www.w3.org/2000/svg">
<path d="M1.19856 7.17302C1.19856 7.17302 9.40696 3.80488 12.2533 2.61874C13.3443 2.14429 17.0451 0.625794 17.0451 0.625794C17.0451 0.625794 18.7534 -0.0383314 18.6107 1.57469C18.5631 2.2388 18.1838 4.56352 17.8044 7.07789C17.2348 10.6363 16.6182 14.5264 16.6182 14.5264C16.6182 14.5264 16.523 15.6174 15.7168 15.8071C14.9099 15.9968 13.5816 15.143 13.3443 14.9533C13.1547 14.8112 9.78569 12.6762 8.55251 11.6321C8.22012 11.3473 7.8408 10.7784 8.6001 10.1143C10.3084 8.54881 12.3484 6.60342 13.5822 5.36972C14.1518 4.80012 14.7208 3.4719 12.3484 5.08492C8.97942 7.40963 5.65862 9.59223 5.65862 9.59223C5.65862 9.59223 4.89934 10.0667 3.47588 9.6398C2.05242 9.21292 0.391706 8.64334 0.391706 8.64334C0.391706 8.64334 -0.74696 7.93227 1.19856 7.17302Z" fill="#000000"/>
</svg>
