<?xml version="1.0" encoding="utf-8"?>
<!-- Generator: Adobe Illustrator 22.1.0, SVG Export Plug-In . SVG Version: 6.00 Build 0)  -->
<svg version="1.1" id="Layer_1" xmlns="http://www.w3.org/2000/svg" xmlns:xlink="http://www.w3.org/1999/xlink" x="0px" y="0px"
	 viewBox="0 0 5000 5000" style="enable-background:new 0 0 5000 5000;" xml:space="preserve">
<g>
	<g>
		<g>
			<path d="M2518.3,1996.8L2518.3,1996.8l635.2,288.7L2518.3,1996.8z M2518.3,1996.8L2518.3,1996.8l635.2,288.7L2518.3,1996.8z"/>
		</g>
		<g>
			<path d="M1387.8,2493.7L1387.8,2493.7l1067.2-485L1387.8,2493.7z"/>
		</g>
	</g>
	<g>
		<path d="M4633.8,1598.5c-58-137.2-130-269.6-213.6-393.4c-82.9-122.6-178-237.9-282.8-342.6c-104.8-104.8-220.1-199.9-342.6-282.8
			c-123.9-83.6-256.2-155.6-393.4-213.6C3115.8,245.4,2812.5,184,2499.9,184s-615.9,61.2-901.5,182.1
			c-137.2,58-269.6,130-393.4,213.6c-122.6,82.9-237.9,178-342.6,282.8s-199.9,220.1-282.8,342.6C496,1328.9,424,1461.3,366,1598.5
			c-120.7,285.5-182.1,588.9-182.1,901.5s61.2,615.9,182.1,901.5c58,137.2,130,269.6,213.6,393.4c82.9,122.6,178,237.9,282.8,342.6
			c104.8,104.8,220.1,199.9,342.6,282.8c123.9,83.6,256.2,155.6,393.4,213.6c285.5,120.7,588.9,182.1,901.5,182.1
			s615.9-61.2,901.5-182.1c137.2-58,269.6-129.8,393.4-213.6c122.6-82.9,237.9-178,342.6-282.8c104.8-104.8,199.9-220.1,282.8-342.6
			c83.6-123.9,155.6-256.2,213.6-393.4c120.7-285.5,182.1-588.9,182.1-901.5S4754.7,1884.1,4633.8,1598.5z M2500.1,4778.7
			c-1256.5,0-2278.7-1022.2-2278.7-2278.7S1243.5,221.3,2500.1,221.3S4778.8,1243.5,4778.8,2500S3756.6,4778.7,2500.1,4778.7z"/>
		<path d="M2500.1,3418l-1224.5-722.9l1205.6,1697.6l1.5,2l17.6,24.7l18.2-25.4l1206.3-1698.9L2500.1,3418z M2481.2,4328.5
			L1406.7,2815.4l1074.5,634.5V4328.5z M2518.3,3450.2l1075.4-635L2518.3,4329.7V3450.2z"/>
		<path d="M3671.3,2520.8L2518.3,607.5l-18.5-30.8l-18.5,30.8L1328.3,2520.8l-12.6,21l24.5,14.5l1141.2,674.7l18.5,10.9l18.5-10.9
			l1141.4-674.7l24.5-14.5L3671.3,2520.8z M2481.2,3187.9l-1100.1-650.4l1100.1-499.9V3187.9z M2481.2,1996.8l-26.1,11.9
			l-1067.2,485l0,0L2481.2,679.4V1996.8z M2518.3,679.4l1093.6,1814.3l-458.3-208.2l-635.2-288.7V679.4z M2518.3,3187.9V2037.6
			l1100.2,499.9L2518.3,3187.9z"/>
	</g>
</g>
</svg>
