<svg width="64" height="56" viewBox="0 0 64 56" fill="none" xmlns="http://www.w3.org/2000/svg">
<path d="M13.8369 30.3349L9.10693 30.3517L12.2194 56H16.7801L13.8369 30.3349Z" fill="#FF4C27"/>
<path d="M24.7442 27.9295C24.7684 28.226 24.7925 28.5224 24.8088 28.8198C24.8714 29.6839 24.9011 30.5511 24.9148 31.42L1.43662 33.322C0.922663 31.0421 0.504906 28.7351 0.192486 26.4181C-0.040362 24.7705 -0.194941 22.9833 0.544367 21.5075C1.46173 19.7077 3.46051 18.9129 5.33014 18.4384C9.29996 17.4144 13.4012 17.1953 17.4868 16.9864C17.6173 16.9829 17.7395 16.9717 17.87 16.9682C19.4034 16.894 21.0969 16.8751 22.2501 17.953C23.1449 18.7824 23.4971 20.0853 23.762 21.3259C24.2345 23.4956 24.5616 25.6968 24.7442 27.9295Z" fill="#00C2B1"/>
<path d="M24.9796 31.0328L15.6514 32.1022C17.1215 33.8433 18.5916 35.5847 20.0621 37.326C20.2845 37.5892 20.52 37.8625 20.8327 37.9794C21.1797 38.1089 21.5606 38.0242 21.9187 37.9381C24.4379 37.3358 26.9569 36.7329 29.4758 36.1299C27.7754 34.8022 26.393 32.7038 24.9796 31.0328Z" fill="#00C2B1"/>
<path d="M24.7442 27.9296C24.7683 28.226 24.7925 28.5224 24.8088 28.8199C24.8795 29.6832 24.9337 30.548 24.98 31.4138L24.9148 31.4201L15.6498 31.9842C15.3312 29.6857 15.0514 27.3658 14.8123 25.0418C14.644 23.3879 14.4901 21.601 14.7174 20.1735C14.9927 18.4339 15.7561 17.756 16.4879 17.3882C16.8176 17.2167 17.1512 17.0883 17.4868 16.9865C17.6172 16.983 17.7395 16.9718 17.87 16.9683C19.4034 16.8941 21.0969 16.8752 22.2501 17.953C23.1449 18.7824 23.4971 20.0853 23.7619 21.3259C24.2345 23.4957 24.5616 25.6969 24.7442 27.9296Z" fill="#00C2B1"/>
<mask id="mask0_813_297" style="mask-type:luminance" maskUnits="userSpaceOnUse" x="14" y="16" width="11" height="17">
<path d="M14.603 16.9381H24.9797V32.1031H14.603V16.9381Z" fill="white"/>
</mask>
<g mask="url(#mask0_813_297)">
<path d="M24.7442 27.9297C24.7683 28.2261 24.7925 28.5225 24.8088 28.82C24.8795 29.6833 24.98 31.0338 24.98 31.0338L15.6517 32.1033C15.3328 29.8044 15.0514 27.3659 14.8123 25.0419C14.644 23.388 14.4901 21.6011 14.7174 20.1736C14.9927 18.434 15.7561 17.7561 16.4879 17.3883C16.8176 17.2168 17.1512 17.0884 17.4868 16.9866C17.6172 16.9831 17.7395 16.9719 17.87 16.9684C19.4034 16.8942 21.0969 16.8753 22.2501 17.9531C23.1449 18.7825 23.4971 20.0854 23.7619 21.326C24.2345 23.4957 24.5616 25.697 24.7442 27.9297Z" fill="#00C2B1"/>
</g>
<path d="M8.40984 12.5855C8.37365 12.4823 8.33092 12.3717 8.24124 12.3171C8.13297 12.2509 7.99763 12.2912 7.87958 12.3332C6.45151 12.8378 5.02377 13.3425 3.5957 13.8468C3.92247 14.6524 4.24924 15.4576 4.57634 16.2632C4.64515 16.4329 4.72668 16.617 4.88354 16.6936C5.03812 16.7692 5.21814 16.7178 5.38054 16.6653C6.23334 16.3895 7.08646 16.1138 7.93958 15.838C8.25559 16.7013 9.16611 19.3096 9.16611 19.3096L10.1683 18.9054C9.72377 16.7573 9.13578 14.6433 8.40984 12.5855Z" fill="#FF4C27"/>
<path d="M33.0108 52.5117C35.7351 50.4848 39.4666 50.1296 42.4809 51.6106C42.6609 50.3 42.8406 48.9894 43.0203 47.6785L46.0447 47.5472C46.0013 49.9654 45.9576 52.3833 45.9142 54.8011C41.8635 55.7299 37.6501 55.8318 33.5645 55.1C32.987 54.9968 32.3109 54.7854 32.1335 54.1863C31.9391 53.5308 32.4841 52.9037 33.0108 52.5117Z" fill="#FFBE18"/>
<path d="M60.8391 52.5117C58.1147 50.4848 54.3833 50.1296 51.369 51.6106C51.1893 50.3 51.0093 48.9894 50.8299 47.6785L47.8052 47.5472C47.8489 49.9654 47.8926 52.3833 47.9359 54.8011C51.9863 55.7299 56.1998 55.8318 60.2854 55.1C60.8629 54.9968 61.5393 54.7854 61.7167 54.1863C61.9107 53.5308 61.3661 52.9037 60.8391 52.5117Z" fill="#FFBE18"/>
<path d="M57.7407 27.1557C56.867 21.2624 53.8824 15.6327 49.4149 12.8589C44.5793 9.85665 38.656 10.53 33.941 13.3898C31.5183 14.8593 29.2247 17.0581 28.4273 20.1793C27.5491 23.618 28.7381 27.5872 30.9189 30.214C31.5421 30.9646 32.2334 31.6166 32.9741 32.179C35.6345 34.1986 37.3476 37.3048 37.6343 40.7886C37.7484 42.1804 38.1371 43.556 38.7871 44.7393C40.4487 47.7636 43.5716 49.4556 46.5373 49.2974C54.9619 48.8477 58.6796 37.4084 57.9152 28.6392C57.8721 28.144 57.8141 27.6488 57.7407 27.1557Z" fill="#FFBE18"/>
<mask id="mask1_813_297" style="mask-type:luminance" maskUnits="userSpaceOnUse" x="29" y="16" width="27" height="16">
<path d="M29.6143 16.1421H55.0103V31.2025H29.6143V16.1421Z" fill="white"/>
</mask>
<g mask="url(#mask1_813_297)">
<path d="M53.6999 19.1972C51.8586 16.5092 48.2462 15.4065 45.3623 16.6537C45.3623 16.6537 45.063 16.8255 44.7336 16.954C44.0152 17.2269 43.4161 17.7676 42.907 18.3779C42.5688 18.7832 42.2668 19.2245 42.0076 19.6924C41.6639 20.3132 40.8521 20.3223 40.4569 19.7379C40.4533 19.7323 40.4494 19.7274 40.4458 19.7218C38.8791 17.4345 35.8048 16.4959 33.3508 17.5573C33.3508 17.5573 33.2112 17.6374 33.0253 17.7232C32.2182 18.0955 31.4975 18.6701 30.9584 19.4145C30.3482 20.2572 29.9103 21.2462 29.7159 22.296C29.4188 23.923 29.7883 25.6451 30.6245 27.0348C31.2151 28.028 32.047 28.8532 33.0407 29.3589C33.3378 29.5093 33.6521 29.6318 33.9662 29.7232C36.1913 30.3611 38.7643 29.5503 40.2377 27.6318C40.3085 27.5401 40.376 27.446 40.4403 27.3501C40.8212 26.7846 41.6374 26.8367 41.9609 27.4425C42.0239 27.5604 42.0898 27.6766 42.1586 27.7914C42.8522 28.9589 43.8303 29.9275 44.9978 30.5221C45.3473 30.6988 45.7165 30.8434 46.0857 30.9505C48.7002 31.7001 51.7239 30.7471 53.4556 28.4927C55.4315 25.917 55.5362 21.8904 53.6999 19.1972Z" fill="#FFBE18"/>
</g>
<path d="M42.1909 10.8077C42.3328 10.6222 42.4838 10.4455 42.6328 10.2666C42.4883 10.3398 42.3383 10.4 42.1948 10.4763L42.1909 10.8077Z" fill="#FFBE18"/>
<path d="M57.6422 8.05377C57.1109 6.9507 56.7307 5.7633 56.5184 4.5423C51.3977 3.93443 46.0686 6.1542 42.6333 10.2665C47.2753 7.92428 52.5851 7.12813 57.6422 8.05377Z" fill="#00C2B1"/>
<path d="M61.8646 13.0186C61.3633 12.2641 60.5689 11.8035 59.784 11.4179C54.4503 8.79775 48.166 8.49084 42.6328 10.5808L45.2672 10.4719C50.4854 10.2595 55.7532 11.7465 60.1985 14.6868C61.1504 15.3157 62.1379 16.1237 62.3622 17.2989C62.5289 15.8364 62.6613 14.2186 61.8646 13.0186Z" fill="#00C2B1"/>
<path d="M42.8613 10.8077C42.7195 10.6222 42.5685 10.4455 42.4194 10.2666C42.5639 10.3398 42.7139 10.4 42.8574 10.4763L42.8613 10.8077Z" fill="#FFBE18"/>
<path d="M27.4106 8.05377C27.9422 6.9507 28.3221 5.7633 28.5344 4.5423C33.6551 3.93443 38.9845 6.1542 42.4195 10.2665C37.7779 7.92428 32.4681 7.12813 27.4106 8.05377Z" fill="#00C2B1"/>
<path d="M23.188 13.0186C23.6889 12.2641 24.4833 11.8035 25.2686 11.4179C30.602 8.79775 36.8862 8.49084 42.4195 10.5808L39.7851 10.4719C34.5672 10.2595 29.2991 11.7465 24.8538 14.6868C23.9022 15.3157 22.9144 16.1237 22.6904 17.2989C22.5237 15.8364 22.391 14.2186 23.188 13.0186Z" fill="#00C2B1"/>
<path d="M41.5823 5.13697C40.816 3.56637 39.6524 2.24248 38.3192 1.19506C37.5209 0.567943 36.6091 0.0185108 35.6199 0.000313759C34.6312 -0.0175343 33.5749 0.654383 33.4004 1.69935C37.4054 2.81221 40.7719 6.26943 41.9835 10.5144L42.4316 10.2838C42.7006 8.53435 42.3487 6.70793 41.5823 5.13697Z" fill="#00C2B1"/>
<mask id="mask2_813_297" style="mask-type:luminance" maskUnits="userSpaceOnUse" x="31" y="11" width="10" height="7">
<path d="M31.4287 11.7437H40.6761V17.6044H31.4287V11.7437Z" fill="white"/>
</mask>
<g mask="url(#mask2_813_297)">
<path d="M40.4155 11.7537C37.0943 12.7874 33.464 13.9972 31.4639 17.2718C31.3145 17.5164 31.6801 17.7435 31.8285 17.5003C33.7617 14.3363 37.3245 13.1881 40.528 12.1908C40.7882 12.1096 40.6777 11.6721 40.4155 11.7537Z" fill="#FFBE18"/>
</g>
<mask id="mask3_813_297" style="mask-type:luminance" maskUnits="userSpaceOnUse" x="50" y="27" width="7" height="19">
<path d="M50.7651 27.9245H56.7973V45.972H50.7651V27.9245Z" fill="white"/>
</mask>
<g mask="url(#mask3_813_297)">
<path d="M56.6409 28.1415C56.6194 27.8532 56.1971 27.8504 56.2186 28.1415C56.5979 33.1854 56.4328 38.6581 53.4945 42.8761C52.7676 43.9197 51.8806 44.8327 50.8624 45.5431C50.6355 45.7016 50.8468 46.0939 51.0757 45.9344C52.9105 44.6549 54.2991 42.7651 55.219 40.6486C56.2629 38.2465 56.6915 35.6068 56.7792 32.972C56.833 31.3604 56.7619 29.7478 56.6409 28.1415Z" fill="#FFBE18"/>
</g>
<mask id="mask4_813_297" style="mask-type:luminance" maskUnits="userSpaceOnUse" x="37" y="37" width="7" height="11">
<path d="M37.9902 37.8286H43.9954V47.2177H37.9902V37.8286Z" fill="white"/>
</mask>
<g mask="url(#mask4_813_297)">
<path d="M43.8545 46.7634C40.5724 45.3349 38.4077 41.8423 38.4126 38.0478C38.4126 37.7559 37.9906 37.7556 37.9902 38.0478C37.985 42.0611 40.2838 45.695 43.7423 47.2002C43.9941 47.3101 44.1036 46.8719 43.8545 46.7634Z" fill="#FFBE18"/>
</g>
<mask id="mask5_813_297" style="mask-type:luminance" maskUnits="userSpaceOnUse" x="33" y="51" width="10" height="3">
<path d="M33.2617 51.318H42.2776V53.1487H33.2617V51.318Z" fill="white"/>
</mask>
<g mask="url(#mask5_813_297)">
<path d="M42.1774 52.5899C39.515 50.8485 35.9754 50.8982 33.3592 52.7201C33.1319 52.8782 33.3433 53.2705 33.5722 53.1113C36.0673 51.3741 39.424 51.3195 41.9642 52.9811C42.197 53.1337 42.4093 52.7418 42.1774 52.5899Z" fill="#FFBE18"/>
</g>
<mask id="mask6_813_297" style="mask-type:luminance" maskUnits="userSpaceOnUse" x="51" y="51" width="10" height="3">
<path d="M51.6948 51.234H60.5538V53.7198H51.6948V51.234Z" fill="white"/>
</mask>
<g mask="url(#mask6_813_297)">
<path d="M60.485 53.3408C58.0894 51.1018 54.6736 50.601 51.8034 52.0624C51.5579 52.1874 51.7721 52.5783 52.0164 52.4537C54.7049 51.085 57.9436 51.5648 60.1863 53.661C60.3904 53.8521 60.6905 53.5329 60.485 53.3408Z" fill="#FFBE18"/>
</g>
<mask id="mask7_813_297" style="mask-type:luminance" maskUnits="userSpaceOnUse" x="42" y="50" width="2" height="4">
<path d="M42.6855 50.1515H43.5106V53.1987H42.6855V50.1515Z" fill="white"/>
</mask>
<g mask="url(#mask7_813_297)">
<path d="M43.359 50.1585C43.2573 50.1287 43.1184 50.1952 43.0991 50.3167C42.9625 51.1821 42.8258 52.0472 42.6895 52.9126C42.6706 53.0334 42.7192 53.1566 42.8366 53.1916C42.9383 53.2217 43.0776 53.1548 43.0965 53.0334L43.5064 50.4374C43.5257 50.3167 43.4768 50.1935 43.359 50.1585Z" fill="#FFBE18"/>
</g>
<mask id="mask8_813_297" style="mask-type:luminance" maskUnits="userSpaceOnUse" x="50" y="48" width="2" height="5">
<path d="M50.2319 48.9156H51.4467V52.5847H50.2319V48.9156Z" fill="white"/>
</mask>
<g mask="url(#mask8_813_297)">
<path d="M51.433 52.3102C51.0746 51.2628 50.8104 50.1817 50.6431 49.0804C50.6245 48.959 50.4853 48.8935 50.3835 48.9222C50.2635 48.9562 50.2175 49.0808 50.2358 49.2008C50.4031 50.3025 50.6673 51.3831 51.0257 52.4306C51.1186 52.7021 51.5269 52.5845 51.433 52.3102Z" fill="#FFBE18"/>
</g>
<path d="M57.4085 44.9974C56.5622 41.865 55.323 38.8547 53.7348 36.0743L39.9863 39.2844C40.2309 42.9771 40.7644 46.6475 41.5797 50.2447C46.8038 49.5147 51.9486 48.1289 56.8743 46.1243C57.0928 46.0354 57.3305 45.9266 57.4316 45.7012C57.5295 45.4849 57.4705 45.2284 57.4085 44.9974Z" fill="#FF0054"/>
<path d="M39.9666 39.5066C42.1036 40.8841 44.3512 42.0589 46.6797 43.0139C47.2449 43.2459 47.8417 43.5437 48.4544 43.5766C49.0007 43.606 49.4843 43.3432 49.891 42.9722C50.3055 42.5943 50.6535 42.1257 50.992 41.6715C51.3543 41.185 51.6967 40.6814 52.0156 40.1614C52.738 38.9845 53.3384 37.7267 53.8171 36.4148C53.8934 36.2048 53.5781 36.1141 53.5024 36.3217C52.6995 38.5222 51.5219 40.6678 49.9947 42.3829C49.6409 42.7801 49.2091 43.1724 48.6782 43.2235C48.0872 43.2806 47.4826 42.9666 46.9439 42.7486C45.8328 42.2989 44.7406 41.7988 43.6697 41.2491C42.4604 40.6282 41.2802 39.9448 40.1313 39.2043C39.9509 39.0881 39.7866 39.3904 39.9666 39.5066Z" fill="#49006B"/>
<path d="M44.9437 46.1511C44.9235 45.9954 44.8971 45.8256 44.7878 45.7207C44.6408 45.5786 44.4141 45.615 44.2204 45.6601C43.563 45.813 42.9048 45.9667 42.2471 46.1196L42.7049 48.1861C43.5219 48.0584 44.3391 47.9306 45.156 47.8029C45.0853 47.2521 45.0145 46.7016 44.9437 46.1511Z" fill="white"/>
<path d="M63.8032 35.99C63.6124 34.3148 62.7074 32.8086 61.568 31.6453C60.4289 30.4817 59.0598 29.6163 57.7042 28.7617L57.8744 29.9095C58.5341 34.3519 55.6183 38.6661 51.4368 38.9881C51.2353 39.0038 51.0328 39.0108 50.8299 39.0084C51.2627 39.5627 51.8331 39.9928 52.4654 40.2423C51.88 40.5968 51.2262 40.8201 50.5576 40.8936C51.3631 41.3177 52.1683 41.7415 52.9738 42.1653C52.3385 42.6409 51.7029 43.1165 51.0673 43.5921C52.9291 43.9214 54.832 44.1149 56.7026 43.8462C58.5729 43.5778 60.4214 42.817 61.7999 41.4343C63.1784 40.0513 64.0318 38.0002 63.8032 35.99Z" fill="#00C2B1"/>
<path d="M42.6895 40.4914C41.9662 40.6573 41.2193 40.798 40.4804 40.8253C38.9913 40.8806 37.648 39.8275 37.2264 38.2944C37.2208 38.2751 37.2159 38.2555 37.2104 38.2363L36.2826 35.5822C34.3138 36.5019 32.8929 38.6454 32.7286 40.9425C32.6428 42.1449 32.904 43.417 33.641 44.328C34.4345 45.3079 35.6718 45.7516 36.8768 45.8681C38.8746 46.0613 40.9311 45.4433 42.545 44.1652C42.1429 43.9759 41.7408 43.7869 41.3384 43.5976C41.8563 43.1983 42.3738 42.7994 42.8917 42.4001C42.4491 42.1932 42.0063 41.9864 41.5637 41.7803C42.1266 41.6305 42.5868 41.1042 42.6895 40.4914Z" fill="#00C2B1"/>
<path d="M36.05 35.7434C36.3555 37.0519 36.8131 38.4087 37.5155 39.5369C37.8381 40.0552 38.2516 40.4955 38.7858 40.7551C39.3108 41.0113 39.8916 41.111 40.4663 41.0963C41.2395 41.0767 41.9948 40.8682 42.739 40.6606C42.6861 40.5626 42.6333 40.4654 42.5801 40.3681C42.2035 40.8437 41.7662 41.2482 41.2701 41.5747C41.1524 41.6524 41.171 41.855 41.3093 41.8946C41.864 42.0538 42.4187 42.213 42.9738 42.3723C42.9496 42.275 42.9258 42.1773 42.902 42.0797C42.4334 42.6508 41.879 43.1163 41.2499 43.4669C41.1462 43.5247 41.141 43.7126 41.2499 43.7693C41.6918 43.9975 42.1533 44.1633 42.6356 44.2589C42.8407 44.2995 42.9288 43.9621 42.7223 43.9212C42.2681 43.8312 41.8311 43.6822 41.4146 43.4669V43.7693C42.0659 43.406 42.6473 42.9186 43.1326 42.3271C43.2115 42.2309 43.1851 42.0706 43.0605 42.0349C42.5058 41.8757 41.9507 41.7165 41.396 41.5572C41.4091 41.664 41.4218 41.7707 41.4348 41.8771C41.9534 41.5359 42.4168 41.1128 42.8107 40.6155C42.9131 40.4867 42.8182 40.2767 42.6522 40.3229C41.2577 40.7117 39.4827 41.1702 38.2904 39.9908C37.7562 39.4627 37.4249 38.718 37.1291 38.0192C36.8059 37.257 36.5538 36.4622 36.3647 35.65C36.3138 35.4316 35.9991 35.5243 36.05 35.7434Z" fill="#49006B"/>
<path d="M57.5185 28.8884C58.0983 30.7064 57.9972 32.7494 57.2449 34.495C56.504 36.214 55.1405 37.5578 53.4998 38.2486C52.5935 38.6301 51.6269 38.811 50.6541 38.768C50.4855 38.761 50.4418 39.0052 50.5716 39.0941C51.2182 39.5372 51.8649 39.9799 52.5113 40.4229V40.1209C51.8128 40.4635 51.0536 40.6115 50.2872 40.5678C50.1228 40.5587 50.0684 40.8103 50.2047 40.894C51.1002 41.443 52.026 41.9291 52.9773 42.3561C52.9643 42.2497 52.9516 42.143 52.9385 42.0362C52.2566 42.5157 51.5453 42.9419 50.8073 43.3132C50.6175 43.4084 50.7829 43.7104 50.972 43.6152C51.7097 43.2439 52.4213 42.818 53.1032 42.3386C53.2301 42.2493 53.1919 42.0761 53.0641 42.0187C52.1392 41.6037 51.2398 41.1253 50.3694 40.5916L50.2872 40.9178C51.1129 40.965 51.9249 40.7918 52.676 40.4229C52.7937 40.3652 52.7699 40.1849 52.676 40.1209C52.0296 39.6779 51.3829 39.2348 50.7362 38.7921L50.6541 39.1179C52.4728 39.1981 54.2841 38.5101 55.6772 37.259C57.1096 35.9732 57.9839 34.1052 58.1786 32.1209C58.2881 31.0021 58.1727 29.8598 57.8329 28.7953C57.7654 28.5835 57.4503 28.6745 57.5185 28.8884Z" fill="#49006B"/>
<path d="M52.6165 27.7532C51.1509 29.6615 48.5912 30.4681 46.3782 29.8337C46.0657 29.743 45.753 29.6205 45.4575 29.4711C44.4694 28.9682 43.6414 28.1476 43.0544 27.1596C42.2225 25.7773 41.8549 24.0639 42.1504 22.4461C42.3744 21.2359 42.9233 20.1073 43.6877 19.1918C44.1185 18.6753 44.6256 18.2176 45.2335 17.9862C45.5123 17.8774 45.7657 17.7325 45.7657 17.7325C48.207 16.6767 51.2647 17.6104 52.8236 19.8855C54.3775 22.1651 54.2888 25.5733 52.6165 27.7532Z" fill="white"/>
<path d="M48.3167 27.9612C48.0382 28.7133 47.4809 29.339 46.7964 29.6746C46.6614 29.7376 46.5218 29.7918 46.3783 29.8331C46.0659 29.7421 45.7531 29.6197 45.4573 29.4702C44.4692 28.9673 43.6415 28.1467 43.0542 27.1588C42.9153 26.5558 42.957 25.8986 43.198 25.3323C43.6497 24.2765 44.7438 23.592 45.8249 23.6599C46.9063 23.7236 47.9071 24.5211 48.3125 25.5952C48.5956 26.3476 48.5956 27.213 48.3167 27.9612Z" fill="#49006B"/>
<path d="M39.3699 26.7239C39.2646 26.8733 39.1514 27.0109 39.0308 27.1442C38.1304 28.1269 36.8455 28.6445 35.5681 28.6483C34.7391 28.6525 33.914 28.4341 33.1943 27.9851C32.3992 27.4882 31.7437 26.74 31.2992 25.8788C31.0468 25.3934 30.8544 24.8558 30.8508 24.3019C30.8508 24.0471 30.813 23.8004 30.813 23.8004C30.7076 21.5362 32.1732 19.2922 34.1928 18.6249C36.2125 17.9536 38.6016 18.9241 39.7016 20.8649C40.7113 22.6441 40.5492 25.0823 39.3699 26.7239Z" fill="white"/>
<path d="M39.3699 26.7238C39.2646 26.8733 39.1514 27.0108 39.0308 27.1441C38.1304 28.1268 36.8455 28.6444 35.5681 28.6483C35.4927 28.5919 35.4174 28.5268 35.3496 28.4582C34.7241 27.8112 34.5281 26.7399 34.8597 25.8787C35.1875 25.0175 36.0165 24.4068 36.8833 24.3623C37.486 24.3301 38.1 24.5566 38.5563 24.9811C39.0158 25.4056 39.3096 26.0243 39.366 26.6714C39.366 26.6874 39.3699 26.7035 39.3699 26.7238Z" fill="#49006B"/>
<path d="M39.4774 29.8257C39.4438 30.947 39.4963 32.4504 40.6295 32.9645C41.1044 33.1797 41.6418 33.1191 42.0305 32.7436C42.4242 32.3629 42.6329 31.7554 42.7542 31.2168C42.9101 30.5221 42.9094 29.7991 42.762 29.1037C42.7157 28.884 42.401 28.9767 42.4473 29.1965C42.5911 29.8726 42.58 30.5774 42.4101 31.2472C42.2699 31.7991 42.009 32.5491 41.4315 32.7114C40.8379 32.8787 40.3011 32.4192 40.05 31.8789C39.7562 31.2472 39.7829 30.512 39.8035 29.8257C39.8103 29.6 39.4842 29.6003 39.4774 29.8257Z" fill="#49006B"/>
</svg>
