<svg width="500" height="500" viewBox="0 0 500 500" fill="none" xmlns="http://www.w3.org/2000/svg">
<rect width="500" height="500" fill="white"/>
<circle cx="249" cy="250" r="242" fill="black"/>
<g clip-path="url(#clip0_3256_57)">
<path d="M161.011 139.885L277.044 229.364L244.126 242.507L142.38 164.045L161.011 139.885Z" fill="white" stroke="white" stroke-miterlimit="10"/>
<path d="M131.09 220.664L232.193 298.63L228.488 334.301L112.459 244.824L131.09 220.664Z" fill="white" stroke="white" stroke-miterlimit="10"/>
<path d="M220.987 114.875L337.019 204.354L304.105 217.5L202.355 139.035L220.987 114.875Z" fill="white" stroke="white" stroke-miterlimit="10"/>
<path d="M131.526 165.331L155.421 183.758C146.835 196.501 140.872 210.827 137.88 225.898L232.193 298.629L228.472 334.288L136.57 263.416C139.558 286.898 149.619 308.914 165.417 326.542C181.215 344.169 202.002 356.573 225.017 362.106L220.626 394.822C198.834 390.337 178.355 380.93 160.755 367.318C97.8379 318.799 85.2229 229.233 131.526 165.331Z" fill="white" stroke="white" stroke-miterlimit="10"/>
<path d="M359.716 203.667L277.513 237.482L248.091 249.591L247.806 249.71L232.528 363.645L228.164 396.17C254.02 400.108 280.459 397.058 304.738 387.335C329.017 377.612 350.253 361.571 366.244 340.874C382.234 320.178 392.396 295.581 395.676 269.633C398.956 243.686 395.235 217.334 384.898 193.309L359.716 203.667ZM344.506 319.917C334.312 333.167 321.381 344.062 306.594 351.861C291.807 359.66 275.513 364.179 258.822 365.11L259.688 357.147C262.726 329.315 265.864 301.469 268.753 273.612C269.178 269.516 270.688 267.126 274.508 265.461C305.151 252.076 335.763 238.629 366.342 225.119C369.762 241.56 369.582 258.547 365.812 274.911C362.043 291.276 354.774 306.629 344.506 319.917Z" fill="white" stroke="white" stroke-miterlimit="10"/>
<path d="M339.755 135.202C357.466 148.819 371.815 166.321 381.693 186.36L365.611 192.963L365.596 192.982L356.537 196.708C346.217 176.046 329.995 158.912 309.928 147.478C289.861 136.044 266.851 130.824 243.815 132.479L337.019 204.354L304.105 217.5L205.879 141.752C205.234 142.033 204.592 142.317 203.952 142.607C196.071 146.181 188.616 150.626 181.727 155.861L277.043 229.365L244.125 242.508L136.173 159.26C186.074 97.3601 276.501 86.4228 339.755 135.202Z" fill="white" stroke="white" stroke-miterlimit="10"/>
<path d="M247.845 249.4L248.091 249.59L250.255 251.259" stroke="white" stroke-miterlimit="10"/>
<path d="M365.57 192.992L365.58 192.988L365.59 192.983L365.596 192.982L372.866 189.307" stroke="white" stroke-miterlimit="10"/>
<path d="M137.879 225.898L232.193 298.629L228.472 334.288L136.57 263.416C135.55 255.403 135.365 247.306 136.017 239.254C136.377 234.77 136.999 230.31 137.879 225.898Z" fill="white"/>
<path d="M243.815 132.479L337.019 204.354L304.105 217.5L205.879 141.752C217.07 136.914 228.949 133.856 241.086 132.692C241.989 132.616 242.899 132.545 243.815 132.479Z" fill="white"/>
<path d="M277.044 229.365L244.126 242.508L159.898 177.555C166.184 169.39 173.525 162.096 181.728 155.861L277.044 229.365Z" fill="white"/>
<path d="M359.716 203.668C362.617 210.592 364.843 217.779 366.364 225.131C335.762 238.591 305.151 252.038 274.529 265.472C270.71 267.137 269.2 269.527 268.775 273.623C265.883 301.484 262.748 329.326 259.709 357.158L258.844 365.121C250.052 365.628 241.231 365.136 232.55 363.656L247.821 249.722L248.106 249.603L277.532 237.497L359.716 203.668Z" fill="white"/>
</g>
<defs>
<clipPath id="clip0_3256_57">
<rect width="293.598" height="293.565" fill="white" transform="translate(44.3877 277.883) rotate(-52.3621)"/>
</clipPath>
</defs>
</svg>
