<svg width="60" height="65" viewBox="0 0 60 65" fill="none" xmlns="http://www.w3.org/2000/svg">
<path d="M49.0745 60.0157C47.7043 58.8793 45.8965 58.3752 44.1183 58.2948C42.3405 58.2148 40.5704 58.5279 38.823 58.8647L38.2088 59.0428C38.0166 57.8822 37.0721 52.1892 37.0721 52.1892L30.5897 54.9169C30.5897 54.9169 29.2852 61.7939 29.0122 63.8778C36.3349 64.1647 43.6572 64.4512 50.9799 64.738C51.3006 62.9875 50.4442 61.1521 49.0745 60.0157Z" fill="#FF0054"/>
<mask id="mask0_813_563" style="mask-type:luminance" maskUnits="userSpaceOnUse" x="38" y="58" width="12" height="5">
<path d="M38.144 58.6168H49.2581V62.8684H38.144V58.6168Z" fill="white"/>
</mask>
<g mask="url(#mask0_813_563)">
<path d="M49.2519 62.5571C48.9408 61.1 47.8567 59.9528 46.5493 59.2983C44.988 58.5169 43.2263 58.4838 41.5397 58.8169C40.4333 59.0357 39.3642 59.4049 38.3121 59.8056C38.0156 59.9186 38.144 60.4001 38.4444 60.2859C40.5114 59.4987 42.8348 58.7403 45.0583 59.2787C46.7696 59.6929 48.3894 60.8977 48.7716 62.6897C48.8385 63.0028 49.3184 62.8701 49.2519 62.5571Z" fill="#FF0054"/>
</g>
<mask id="mask1_813_563" style="mask-type:luminance" maskUnits="userSpaceOnUse" x="36" y="53" width="2" height="6">
<path d="M36.0186 53.6525H37.5895V58.87H36.0186V53.6525Z" fill="white"/>
</mask>
<g mask="url(#mask1_813_563)">
<path d="M37.5788 58.5625C37.1265 57.0082 36.7674 55.4296 36.5028 53.8325C36.4505 53.5172 35.9706 53.651 36.0225 53.9648C36.287 55.5615 36.6462 57.1408 37.0985 58.6948C37.1877 59.0021 37.6684 58.8713 37.5788 58.5625Z" fill="#FF0054"/>
</g>
<path d="M5.9806 60.4697C7.35001 59.4306 9.1578 58.9699 10.9352 58.8964C12.713 58.8234 14.4827 59.1091 16.2298 59.4171L16.8439 59.5802C17.0362 58.5188 17.4211 56.3957 17.4211 56.3957L24.4619 55.8073C24.4619 55.8073 25.7656 62.0959 26.0386 64.0018C18.7175 64.2637 11.3963 64.5263 4.07513 64.7882C3.75441 63.1873 4.61082 61.5087 5.9806 60.4697Z" fill="#FF0054"/>
<mask id="mask2_813_563" style="mask-type:luminance" maskUnits="userSpaceOnUse" x="4" y="56" width="15" height="7">
<path d="M4.99219 56.6864H18.7239V62.772H4.99219V56.6864Z" fill="white"/>
</mask>
<g mask="url(#mask2_813_563)">
<path d="M18.5584 60.7421C18.545 60.7363 18.5315 60.7321 18.5181 60.7267C18.5327 60.6955 18.5411 60.6598 18.5404 60.6175C18.5208 59.3873 18.5015 58.1571 18.4819 56.9269C18.4769 56.6069 17.9785 56.6058 17.9839 56.9269C18.0032 58.1332 18.022 59.3392 18.0412 60.5452C16.255 59.8849 14.3572 59.5357 12.4513 59.523C11.4334 59.5161 10.414 59.6057 9.41218 59.7868C8.53348 59.9456 7.65515 60.1656 6.85374 60.5682C6.03156 60.9809 5.34436 61.6008 5.0098 62.4718C4.89481 62.771 5.37628 62.9009 5.4901 62.6045C6.08309 61.0612 7.97779 60.5609 9.43564 60.2867C11.3657 59.9241 13.372 59.931 15.3009 60.2956C16.3715 60.4975 17.4175 60.8105 18.4258 61.2224C18.7227 61.3431 18.8515 60.862 18.5584 60.7421Z" fill="#FF0054"/>
</g>
<path d="M58.7857 41.8113C57.5255 39.8835 55.1409 39.0321 52.8739 38.6252C48.7677 37.8872 44.476 38.2041 40.5228 39.5378L40.0298 46.5951L49.2195 49.6654C49.5683 49.7823 49.9309 49.9069 50.1928 50.1653C50.9135 50.8768 50.5039 52.0781 50.1263 53.0183C49.6794 54.1316 49.3376 55.343 49.5552 56.5228C49.7729 57.7026 50.6931 58.8236 51.8887 58.9255C53.1312 59.0309 54.2195 58.0506 54.8344 56.9658C56.0873 54.7558 55.9838 51.8447 54.5771 49.7296C56.398 49.7027 58.1666 48.6225 59.021 47.0139C59.8763 45.4061 59.7825 43.336 58.7857 41.8113Z" fill="#6C3292"/>
<path d="M58.6541 47.2901C57.6781 46.8383 56.6021 46.6983 55.5426 46.8848C55.41 46.9086 55.3353 47.0705 55.3688 47.1913C55.4073 47.3309 55.5419 47.3889 55.6749 47.3651C56.5921 47.2032 57.5577 47.3293 58.4029 47.7204C58.5249 47.777 58.671 47.7547 58.7433 47.6312C58.8063 47.5232 58.7767 47.347 58.6541 47.2901Z" fill="#49006B"/>
<path d="M59.5114 45.0743C58.4942 44.4986 57.3263 44.2175 56.1584 44.276C55.8396 44.2921 55.8373 44.7901 56.1584 44.774C57.2417 44.7197 58.3158 44.9701 59.2602 45.5042C59.5394 45.6623 59.7909 45.2324 59.5114 45.0743Z" fill="#49006B"/>
<path d="M58.973 42.2758C58.1674 42.0416 57.3283 41.927 56.4896 41.9354C56.1692 41.9389 56.1685 42.4369 56.4896 42.4334C57.2867 42.4254 58.0747 42.5334 58.8403 42.7561C59.1488 42.8457 59.2807 42.365 58.973 42.2758Z" fill="#49006B"/>
<path d="M54.2507 50.0691C54.1042 49.7837 53.6746 50.0356 53.8204 50.3206C54.4395 51.5289 54.6345 52.9359 54.3914 54.2711C54.2741 54.916 54.0615 55.5452 53.7477 56.1216C53.457 56.6565 52.9167 57.5741 52.1829 57.3949C51.8718 57.3191 51.7392 57.799 52.0506 57.8752C52.8378 58.0671 53.4662 57.4729 53.8761 56.8696C54.3218 56.2139 54.6376 55.4605 54.8133 54.688C55.1671 53.1336 54.9783 51.4892 54.2507 50.0691Z" fill="#49006B"/>
<path d="M52.3814 29.0567C51.8346 30.9656 50.9686 32.7823 49.8164 34.3966C48.8916 35.6914 47.7983 36.8605 46.5789 37.8695C46.2343 38.1472 42.7441 40.2157 42.7441 40.283C43.2321 46.632 39.4396 52.9137 33.9312 56.1094C28.4317 59.3135 21.5189 59.6077 15.456 57.6653C12.8487 56.8327 10.0653 55.2095 9.64502 52.5099C9.32545 50.4245 10.5449 48.4398 10.9821 46.3713C11.4109 44.3531 11.0748 42.3769 10.4526 40.4091C9.63656 37.8357 8.32484 35.2711 7.57611 32.6642C5.01997 23.784 9.29161 14.5336 17.4573 10.3373C21.1405 8.44529 25.3368 7.72194 29.4742 7.65503C30.8955 7.62926 32.4088 7.62926 33.9566 7.68848H34.1077C38.0687 7.84846 42.1976 8.44529 45.4187 10.3204C48.084 11.8678 50.2114 14.2813 51.54 17.0647C51.885 17.7881 52.1711 18.5368 52.3983 19.3017C53.3486 22.4635 53.2978 25.8864 52.3814 29.0567Z" fill="#FF0054"/>
<mask id="mask3_813_563" style="mask-type:luminance" maskUnits="userSpaceOnUse" x="12" y="42" width="3" height="10">
<path d="M12.0928 42.1386H14.6535V51.6639H12.0928V42.1386Z" fill="white"/>
</mask>
<g mask="url(#mask3_813_563)">
<path d="M14.1813 42.2522C12.39 44.9522 11.7167 48.2998 12.2947 51.4843C12.352 51.7992 12.8319 51.6658 12.775 51.352C12.2201 48.2971 12.8965 45.0883 14.6112 42.5037C14.7893 42.2361 14.3582 41.9865 14.1813 42.2522Z" fill="#FF0054"/>
</g>
<mask id="mask4_813_563" style="mask-type:luminance" maskUnits="userSpaceOnUse" x="13" y="46" width="2" height="7">
<path d="M13.7056 46.6638H14.7277V52.0996H13.7056V46.6638Z" fill="white"/>
</mask>
<g mask="url(#mask4_813_563)">
<path d="M14.2371 46.8398C13.7826 48.4711 13.6165 50.1724 13.7507 51.861C13.7761 52.1782 14.2744 52.1809 14.2487 51.861C14.1175 50.2131 14.2741 48.5638 14.7175 46.9721C14.8036 46.6629 14.3233 46.5306 14.2371 46.8398Z" fill="#FF0054"/>
</g>
<mask id="mask5_813_563" style="mask-type:luminance" maskUnits="userSpaceOnUse" x="8" y="22" width="2" height="6">
<path d="M8.33545 22.3745H9.93481V27.8702H8.33545V22.3745Z" fill="white"/>
</mask>
<g mask="url(#mask5_813_563)">
<path d="M9.46572 22.4918C8.50395 24.04 8.14477 25.8928 8.43127 27.6902C8.48126 28.0056 8.96118 27.8713 8.91158 27.5575C8.64623 25.894 9.00887 24.1712 9.89604 22.7429C10.0656 22.4699 9.63454 22.2195 9.46572 22.4918Z" fill="#FF0054"/>
</g>
<mask id="mask6_813_563" style="mask-type:luminance" maskUnits="userSpaceOnUse" x="10" y="25" width="2" height="5">
<path d="M10.0269 25.3601H11.0009V29.9752H10.0269V25.3601Z" fill="white"/>
</mask>
<g mask="url(#mask6_813_563)">
<path d="M10.5043 25.5292C9.99938 26.8921 9.89632 28.3734 10.1886 29.7963C10.2532 30.1097 10.7331 29.977 10.6689 29.6636C10.3943 28.3257 10.5105 26.9406 10.9842 25.6615C11.0957 25.3608 10.6147 25.2308 10.5043 25.5292Z" fill="#FF0054"/>
</g>
<mask id="mask7_813_563" style="mask-type:luminance" maskUnits="userSpaceOnUse" x="11" y="21" width="2" height="4">
<path d="M11.2983 21.0939H12.5662V24.5107H11.2983V21.0939Z" fill="white"/>
</mask>
<g mask="url(#mask7_813_563)">
<path d="M12.3801 21.1031C12.2409 21.0647 12.1209 21.1508 12.0736 21.2769C11.7202 22.2222 11.4618 23.1997 11.3026 24.1965C11.2818 24.3291 11.3368 24.4641 11.4764 24.503C11.5952 24.5353 11.7617 24.4622 11.7829 24.3291C11.9421 23.3324 12.2001 22.3548 12.5539 21.4096C12.6012 21.2835 12.5012 21.1366 12.3801 21.1031Z" fill="#FF0054"/>
</g>
<mask id="mask8_813_563" style="mask-type:luminance" maskUnits="userSpaceOnUse" x="36" y="42" width="3" height="8">
<path d="M36.8354 42.1379H38.6375V49.0658H36.8354V42.1379Z" fill="white"/>
</mask>
<g mask="url(#mask8_813_563)">
<path d="M38.4495 42.3171C38.3849 42.0033 37.9046 42.136 37.9692 42.4494C38.4088 44.5864 38.0084 46.8349 36.8732 48.6961C36.7063 48.9707 37.1366 49.221 37.3035 48.9476C38.5091 46.9698 38.9156 44.5841 38.4495 42.3171Z" fill="#FF0054"/>
</g>
<mask id="mask9_813_563" style="mask-type:luminance" maskUnits="userSpaceOnUse" x="38" y="43" width="3" height="6">
<path d="M38.6157 43.0283H40.099V48.0244H38.6157V43.0283Z" fill="white"/>
</mask>
<g mask="url(#mask9_813_563)">
<path d="M39.5987 43.2654C39.4141 44.7763 39.0853 46.2668 38.6285 47.7185C38.5319 48.025 39.0126 48.1561 39.1088 47.8508C39.5795 46.3549 39.9063 44.8217 40.0967 43.2654C40.1355 42.9481 39.6371 42.9508 39.5987 43.2654Z" fill="#FF0054"/>
</g>
<mask id="mask10_813_563" style="mask-type:luminance" maskUnits="userSpaceOnUse" x="40" y="40" width="2" height="5">
<path d="M40.5815 40.8308H41.433V44.7207H40.5815V40.8308Z" fill="white"/>
</mask>
<g mask="url(#mask10_813_563)">
<path d="M41.079 40.9992C40.9671 40.7023 40.4853 40.8312 40.5987 41.1315C40.9967 42.1856 41.0433 43.3327 40.7225 44.4137C40.6314 44.7217 41.1121 44.8529 41.2028 44.546C41.5466 43.3877 41.5059 42.1298 41.079 40.9992Z" fill="#FF0054"/>
</g>
<mask id="mask11_813_563" style="mask-type:luminance" maskUnits="userSpaceOnUse" x="49" y="25" width="2" height="7">
<path d="M49.4058 25.3997H50.8428V31.0519H49.4058V25.3997Z" fill="white"/>
</mask>
<g mask="url(#mask11_813_563)">
<path d="M50.8361 25.64C50.8261 25.3204 50.3277 25.3189 50.3381 25.64C50.3947 27.3928 50.0828 29.1279 49.4248 30.7534C49.3048 31.0503 49.7863 31.1795 49.9051 30.8861C50.5781 29.2233 50.8938 27.4324 50.8361 25.64Z" fill="#FF0054"/>
</g>
<mask id="mask12_813_563" style="mask-type:luminance" maskUnits="userSpaceOnUse" x="50" y="27" width="2" height="4">
<path d="M50.5103 27.3272H51.3959V30.7843H50.5103V27.3272Z" fill="white"/>
</mask>
<g mask="url(#mask12_813_563)">
<path d="M50.897 27.5678C50.9093 28.5522 50.7832 29.5275 50.5205 30.4758C50.4344 30.7854 50.9147 30.9173 51.0005 30.6081C51.2743 29.6198 51.4077 28.5938 51.395 27.5678C51.3908 27.2474 50.8928 27.2467 50.897 27.5678Z" fill="#FF0054"/>
</g>
<mask id="mask13_813_563" style="mask-type:luminance" maskUnits="userSpaceOnUse" x="50" y="21" width="2" height="6">
<path d="M50.6245 21.8684H51.4075V26.2108H50.6245V21.8684Z" fill="white"/>
</mask>
<g mask="url(#mask13_813_563)">
<path d="M51.1087 22.0487C51.0568 21.7333 50.5768 21.8668 50.6284 22.1813C50.833 23.4338 50.9241 24.7013 50.9079 25.9704C50.9037 26.2907 51.4017 26.2911 51.4056 25.9704C51.4225 24.6563 51.3206 23.3454 51.1087 22.0487Z" fill="#FF0054"/>
</g>
<mask id="mask14_813_563" style="mask-type:luminance" maskUnits="userSpaceOnUse" x="16" y="10" width="5" height="4">
<path d="M16.7944 10.5774H20.0032V13.5435H16.7944V10.5774Z" fill="white"/>
</mask>
<g mask="url(#mask14_813_563)">
<path d="M19.5726 10.6453C18.6728 11.4709 17.7725 12.2973 16.8727 13.123C16.6362 13.3406 16.9892 13.6921 17.2253 13.4752C18.1248 12.6496 19.025 11.8232 19.9249 10.9975C20.1614 10.7803 19.8084 10.4288 19.5726 10.6453Z" fill="#FF0054"/>
</g>
<mask id="mask15_813_563" style="mask-type:luminance" maskUnits="userSpaceOnUse" x="18" y="11" width="4" height="4">
<path d="M18.2827 11.2382H21.5399V14.1492H18.2827V11.2382Z" fill="white"/>
</mask>
<g mask="url(#mask15_813_563)">
<path d="M21.1698 11.2752C20.0965 11.9193 19.1382 12.7492 18.3533 13.7244C18.2691 13.8294 18.251 13.9743 18.3533 14.0766C18.4402 14.1639 18.6206 14.182 18.7056 14.0766C19.4651 13.1322 20.3818 12.3285 21.4213 11.7051C21.6959 11.5401 21.4459 11.1094 21.1698 11.2752Z" fill="#FF0054"/>
</g>
<mask id="mask16_813_563" style="mask-type:luminance" maskUnits="userSpaceOnUse" x="20" y="10" width="3" height="4">
<path d="M20.5996 10.845H22.9646V13.7657H20.5996V10.845Z" fill="white"/>
</mask>
<g mask="url(#mask16_813_563)">
<path d="M22.8947 10.9175C22.8089 10.8314 22.6251 10.8106 22.5424 10.9175C21.9183 11.7255 21.2938 12.533 20.6696 13.341C20.5873 13.4471 20.5658 13.5894 20.6696 13.6932C20.7554 13.7786 20.9392 13.8001 21.0219 13.6932C21.646 12.8853 22.2705 12.0777 22.8947 11.2694C22.977 11.1632 22.9985 11.0213 22.8947 10.9175Z" fill="#FF0054"/>
</g>
<mask id="mask17_813_563" style="mask-type:luminance" maskUnits="userSpaceOnUse" x="24" y="42" width="4" height="8">
<path d="M24.9087 42.5233H27.4787V49.0289H24.9087V42.5233Z" fill="white"/>
</mask>
<g mask="url(#mask17_813_563)">
<path d="M26.9924 42.7025C26.5663 44.766 25.8787 46.7649 24.9373 48.6512C24.7947 48.9369 25.2242 49.1895 25.3673 48.9023C26.3275 46.9783 27.0374 44.9406 27.4727 42.8351C27.5373 42.5221 27.0574 42.3883 26.9924 42.7025Z" fill="#FF0054"/>
</g>
<mask id="mask18_813_563" style="mask-type:luminance" maskUnits="userSpaceOnUse" x="27" y="42" width="3" height="7">
<path d="M27.1631 42.088H29.2397V48.2706H27.1631V42.088Z" fill="white"/>
</mask>
<g mask="url(#mask18_813_563)">
<path d="M29.2278 42.328C29.2116 42.0088 28.7133 42.0069 28.7294 42.328C28.8286 44.3031 28.2949 46.2551 27.205 47.9052C27.0277 48.1732 27.4588 48.4232 27.635 48.1563C28.7694 46.4393 29.3309 44.3831 29.2278 42.328Z" fill="#FF0054"/>
</g>
<mask id="mask19_813_563" style="mask-type:luminance" maskUnits="userSpaceOnUse" x="30" y="38" width="3" height="10">
<path d="M30.7344 38.8485H32.1253V47.3011H30.7344V38.8485Z" fill="white"/>
</mask>
<g mask="url(#mask19_813_563)">
<path d="M31.5365 39.0207C31.4357 38.718 30.9546 38.8476 31.0565 39.153C31.9099 41.7145 31.7987 44.5148 30.755 47.0044C30.6312 47.2994 31.1127 47.4282 31.2354 47.1363C32.3094 44.5744 32.4144 41.6556 31.5365 39.0207Z" fill="#FF0054"/>
</g>
<path d="M33.9897 7.63802L33.9562 7.6884C32.4088 7.62956 30.8952 7.62956 29.4739 7.65494C25.3364 7.72224 21.1402 8.44559 17.4569 10.3376C9.29124 14.5339 5.0196 23.784 7.57574 32.6641C8.32447 35.271 9.63618 37.8356 10.4522 40.4091C10.1492 40.5771 9.83808 40.7121 9.51044 40.8128C8.1818 41.2082 6.49975 40.7794 5.94445 39.5096C5.45684 38.374 6.01175 37.0873 6.55013 35.9774C5.86908 37.2807 3.86747 37.4576 2.74072 36.5158C1.60551 35.574 1.31095 33.892 1.68935 32.4626C2.05967 31.0409 2.99299 29.8303 3.98553 28.7455C2.51345 29.3592 0.705656 28.2998 0.192659 26.7943C-0.320338 25.2807 0.243037 23.5651 1.26903 22.3457C2.30348 21.1351 3.74133 20.336 5.18803 19.6635C4.09474 20.0588 2.8584 19.0578 2.74072 17.9056C2.62305 16.7535 3.36293 15.6437 4.33009 15.0046C5.19611 14.4327 6.21364 14.1551 7.23118 13.9197C6.3144 13.987 5.43146 13.0283 5.43146 12.0527C5.43146 10.951 6.20518 10.0011 7.07158 9.31968C8.8963 7.88183 11.3182 7.23424 13.6221 7.57072C12.8318 7.11656 12.6638 5.9729 13.0676 5.15725C13.4625 4.33315 14.2701 3.79477 15.0857 3.39137C17.6757 2.11311 20.7621 1.87777 23.5117 2.7434C23.1837 2.29808 23.4444 1.60819 23.9155 1.30555C24.3862 1.0029 24.9834 0.994827 25.5383 1.04482C29.2973 1.37284 32.7533 4.06396 33.9897 7.63802Z" fill="#FFBE18"/>
<path d="M58.8564 28.1484C57.9735 29.0229 56.6867 29.4097 55.4423 29.4351C54.4079 29.4601 53.3903 29.2755 52.3813 29.0567C53.2977 25.8864 53.3484 22.4639 52.3982 19.3017C52.1709 18.5368 51.8848 17.7885 51.5402 17.0651C50.2116 14.2813 48.0839 11.8678 45.4185 10.3208C42.1975 8.44569 38.0685 7.84848 34.108 7.6885H34.0991C34.5787 5.46 35.8654 3.40802 37.6816 2.02092C39.4898 0.624603 41.7937 -0.0983582 44.081 0.0108547C44.9893 0.0527706 45.9565 0.263124 46.5618 0.944172C47.2344 1.70944 47.2513 2.87848 46.8733 3.82026C46.4864 4.76242 45.7796 5.5273 45.082 6.26757C47.3605 5.86379 49.7405 6.05722 51.9106 6.84748C53.0539 7.25972 54.3321 8.16804 54.1218 9.37054C53.9203 10.5642 52.4655 10.9934 51.2711 11.1868C52.8435 11.5483 54.4498 11.9351 55.8038 12.8096C57.1578 13.6845 58.2342 15.1562 58.2004 16.7705C58.1669 18.3853 56.7121 19.9577 55.1143 19.7474C56.9056 20.2354 58.5957 21.3368 59.4617 22.9769C60.3196 24.6251 60.177 26.8447 58.8564 28.1484Z" fill="#FFBE18"/>
<mask id="mask20_813_563" style="mask-type:luminance" maskUnits="userSpaceOnUse" x="25" y="2" width="6" height="5">
<path d="M25.0737 2.47912H30.2637V6.49042H25.0737V2.47912Z" fill="white"/>
</mask>
<g mask="url(#mask20_813_563)">
<path d="M30.2469 6.19564C29.3728 4.1848 27.4246 2.75771 25.2573 2.48122C25.0127 2.45007 25.015 2.83501 25.2573 2.86577C27.295 3.12573 29.099 4.51321 29.915 6.38984C30.0135 6.61634 30.3446 6.4206 30.2469 6.19564Z" fill="#FFBE18"/>
</g>
<mask id="mask21_813_563" style="mask-type:luminance" maskUnits="userSpaceOnUse" x="15" y="4" width="12" height="3">
<path d="M15.0566 4.10504H26.356V6.42084H15.0566V4.10504Z" fill="white"/>
</mask>
<g mask="url(#mask21_813_563)">
<path d="M26.2886 6.1051C23.8162 4.19462 20.5198 3.5901 17.5418 4.56418C16.6912 4.84222 15.8829 5.23946 15.143 5.74208C14.9392 5.88013 15.1314 6.21354 15.3368 6.07395C17.8264 4.38267 21.0194 4.01734 23.8201 5.12525C24.605 5.43597 25.3491 5.8609 26.0167 6.37698C26.2101 6.52657 26.4843 6.25661 26.2886 6.1051Z" fill="#FFBE18"/>
</g>
<mask id="mask22_813_563" style="mask-type:luminance" maskUnits="userSpaceOnUse" x="7" y="8" width="10" height="4">
<path d="M7.35596 8.4324H16.581V11.843H7.35596V8.4324Z" fill="white"/>
</mask>
<g mask="url(#mask22_813_563)">
<path d="M16.4518 8.96932C14.7905 8.31943 12.9093 8.25174 11.2118 8.8105C9.68669 9.31235 8.35535 10.2857 7.3932 11.567C7.24476 11.765 7.57817 11.9569 7.72545 11.7612C8.63916 10.5441 9.93511 9.61884 11.386 9.15776C13.0069 8.64245 14.7694 8.72167 16.3495 9.34004C16.5802 9.43041 16.6802 9.05854 16.4518 8.96932Z" fill="#FFBE18"/>
</g>
<mask id="mask23_813_563" style="mask-type:luminance" maskUnits="userSpaceOnUse" x="3" y="13" width="8" height="5">
<path d="M3.80566 13.9861H10.9788V17.8324H3.80566V13.9861Z" fill="white"/>
</mask>
<g mask="url(#mask23_813_563)">
<path d="M10.7948 14.0113C8.04673 13.7771 5.27062 15.1961 3.83508 17.5469C3.70548 17.7588 4.03851 17.9522 4.16733 17.7411C5.53673 15.498 8.17901 14.1728 10.7948 14.3959C11.0413 14.417 11.0397 14.0325 10.7948 14.0113Z" fill="#FFBE18"/>
</g>
<mask id="mask24_813_563" style="mask-type:luminance" maskUnits="userSpaceOnUse" x="1" y="20" width="7" height="7">
<path d="M1.93604 20.2043H7.01178V26.816H1.93604V20.2043Z" fill="white"/>
</mask>
<g mask="url(#mask24_813_563)">
<path d="M6.77182 20.2107C5.40473 20.5457 4.15838 21.334 3.28736 22.4423C2.35712 23.6264 1.88028 25.1273 1.94065 26.6305C1.95065 26.8774 2.33559 26.8785 2.32521 26.6305C2.26791 25.2065 2.71168 23.7717 3.60654 22.6546C4.43295 21.6232 5.59239 20.8956 6.8745 20.5818C7.11446 20.523 7.01255 20.1519 6.77182 20.2107Z" fill="#FFBE18"/>
</g>
<mask id="mask25_813_563" style="mask-type:luminance" maskUnits="userSpaceOnUse" x="2" y="28" width="4" height="8">
<path d="M2.125 28.2089H5.64907V35.6816H2.125V28.2089Z" fill="white"/>
</mask>
<g mask="url(#mask25_813_563)">
<path d="M5.31218 28.2557C4.17851 29.1852 3.26366 30.3788 2.67336 31.7221C2.13114 32.9554 1.67275 34.6751 2.9314 35.6434C3.12714 35.7941 3.31865 35.46 3.12522 35.3111C1.95925 34.4144 2.65029 32.6185 3.17059 31.561C3.74781 30.3877 4.57345 29.3559 5.58406 28.5276C5.77557 28.3707 5.50177 28.1 5.31218 28.2557Z" fill="#FFBE18"/>
</g>
<mask id="mask26_813_563" style="mask-type:luminance" maskUnits="userSpaceOnUse" x="6" y="35" width="3" height="5">
<path d="M6.65479 35.7665H8.00804V39.4407H6.65479V35.7665Z" fill="white"/>
</mask>
<g mask="url(#mask26_813_563)">
<path d="M7.68981 35.8314C7.20873 36.4163 6.86955 37.1104 6.73034 37.8568C6.6642 38.2102 6.59844 38.6171 6.7338 38.9616C6.86109 39.2866 7.18296 39.5012 7.53291 39.4254C7.77479 39.3735 7.67212 39.0024 7.43062 39.0547C7.11913 39.122 7.03991 38.6967 7.04299 38.481C7.04722 38.1968 7.10067 37.9118 7.17373 37.638C7.32448 37.0777 7.5929 36.5516 7.96169 36.1032C8.11743 35.9137 7.84671 35.6399 7.68981 35.8314Z" fill="#FFBE18"/>
</g>
<mask id="mask27_813_563" style="mask-type:luminance" maskUnits="userSpaceOnUse" x="35" y="1" width="9" height="7">
<path d="M35.3892 1.36458H43.3794V7.47247H35.3892V1.36458Z" fill="white"/>
</mask>
<g mask="url(#mask27_813_563)">
<path d="M35.7631 7.33337C36.2211 4.67378 38.2408 2.5122 40.8781 1.91268C41.6387 1.73963 42.4221 1.7054 43.1962 1.79808C43.4415 1.82769 43.4392 1.44275 43.1962 1.41352C40.342 1.07165 37.5032 2.53835 36.14 5.06872C35.7758 5.74438 35.5224 6.47542 35.3924 7.23108C35.3509 7.47296 35.7212 7.57718 35.7631 7.33337Z" fill="#FFBE18"/>
</g>
<mask id="mask28_813_563" style="mask-type:luminance" maskUnits="userSpaceOnUse" x="42" y="6" width="12" height="4">
<path d="M42.6147 6.84816H53.3096V9.0882H42.6147V6.84816Z" fill="white"/>
</mask>
<g mask="url(#mask28_813_563)">
<path d="M42.9017 8.42605C45.3275 7.03088 48.3578 6.87168 50.9532 7.88729C51.6957 8.17763 52.3952 8.57295 53.0332 9.05095C53.2313 9.19939 53.4232 8.86598 53.2274 8.71908C50.9009 6.97628 47.7721 6.43213 44.9718 7.16548C44.1796 7.37275 43.417 7.68617 42.7075 8.09418C42.4933 8.21762 42.6864 8.54988 42.9017 8.42605Z" fill="#FFBE18"/>
</g>
<mask id="mask29_813_563" style="mask-type:luminance" maskUnits="userSpaceOnUse" x="49" y="11" width="8" height="7">
<path d="M49.1079 11.9318H56.8632V17.7675H49.1079V11.9318Z" fill="white"/>
</mask>
<g mask="url(#mask29_813_563)">
<path d="M49.2932 12.3169C51.0587 12.4265 52.915 12.5477 54.4651 13.4902C55.8264 14.3181 56.8328 15.9017 56.3667 17.5299C56.2987 17.768 56.6694 17.8695 56.7374 17.6319C57.1066 16.3436 56.6321 14.9584 55.7264 14.0074C54.752 12.9837 53.3718 12.4554 52.0066 12.2089C51.1106 12.047 50.2004 11.9885 49.2932 11.9324C49.0456 11.917 49.0467 12.3015 49.2932 12.3169Z" fill="#FFBE18"/>
</g>
<mask id="mask30_813_563" style="mask-type:luminance" maskUnits="userSpaceOnUse" x="53" y="20" width="6" height="8">
<path d="M53.061 20.0496H58.4406V27.6522H53.061V20.0496Z" fill="white"/>
</mask>
<g mask="url(#mask30_813_563)">
<path d="M53.2439 20.4359C54.5633 20.5978 55.8808 21.1251 56.8318 22.0738C57.7251 22.9652 58.1927 24.2165 58.0262 25.4771C57.9343 26.1704 57.6413 26.8219 57.1494 27.3229C56.976 27.4994 57.2475 27.7717 57.4213 27.5948C58.3789 26.62 58.6342 25.1629 58.3023 23.865C57.9447 22.4633 56.8802 21.3716 55.6066 20.7397C54.864 20.3713 54.0649 20.1521 53.2439 20.0514C52.9989 20.021 53.0012 20.4059 53.2439 20.4359Z" fill="#FFBE18"/>
</g>
<path d="M22.1947 43.6277C22.1516 43.457 22.1062 43.2866 22.0586 43.1174C21.6475 41.6561 21.0376 40.174 19.8662 39.2088C18.6945 38.2439 16.8328 37.9801 15.6861 38.9746C15.18 39.4138 14.8678 40.0371 14.6612 40.6743C14.2167 42.0464 14.2117 43.5177 13.9398 44.9337C13.5287 47.0787 12.487 49.0984 10.9787 50.6774C9.55589 52.1672 7.74156 53.2501 6.42792 54.8494C5.15235 56.4019 6.50829 58.7577 8.58604 58.4577C7.59466 59.0245 7.67349 60.6531 8.56605 61.3657C9.4586 62.0783 10.7911 61.9856 11.8009 61.4526C11.1779 62.0368 11.181 63.1074 11.6944 63.7903C12.2078 64.4725 13.1153 64.7821 13.9675 64.7275C14.8201 64.6737 15.6234 64.3003 16.3379 63.8315C18.2584 62.5725 19.6409 60.6281 20.6511 58.5654C22.8984 53.975 23.453 48.58 22.1947 43.6277Z" fill="#6C3292"/>
<path d="M12.6369 53.3528C11.8109 55.2044 10.4865 56.8072 8.80983 57.9501C8.54641 58.1297 8.7956 58.5616 9.06095 58.3805C10.8064 57.1906 12.2062 55.5344 13.0669 53.6039C13.1965 53.3136 12.7677 53.0601 12.6369 53.3528Z" fill="#49006B"/>
<path d="M14.5641 57.2487C13.7916 58.77 12.7629 60.1413 11.5177 61.3073C11.2831 61.5269 11.6358 61.8784 11.8696 61.6595C13.1436 60.467 14.2042 59.0557 14.9941 57.4998C15.1387 57.2149 14.7091 56.9626 14.5641 57.2487Z" fill="#49006B"/>
<path d="M26.8353 23.4359C26.7776 23.1818 26.6845 22.9356 26.5511 22.7034C26.2573 22.1942 25.7378 21.7781 25.1502 21.7624C24.5795 21.7474 24.0511 22.1127 23.7238 22.5807C22.9828 23.6421 22.6898 25.4545 23.3289 26.6201C23.7323 27.3549 24.6991 27.8326 25.4436 27.4469C25.8616 27.2304 26.1235 26.8031 26.3307 26.3801C26.7761 25.4725 27.0537 24.395 26.8353 23.4359Z" fill="#FFBE18"/>
<path d="M40.6405 23.4359C40.6982 23.1818 40.7917 22.9356 40.9251 22.7034C41.2185 22.1942 41.7381 21.7781 42.3257 21.7624C42.8967 21.7474 43.4247 22.1127 43.752 22.5807C44.493 23.6421 44.7864 25.4545 44.1469 26.6201C43.7439 27.3549 42.7771 27.8326 42.0326 27.4469C41.6142 27.2304 41.3524 26.8031 41.1451 26.3801C40.6998 25.4725 40.4221 24.395 40.6405 23.4359Z" fill="#FFBE18"/>
<path d="M27.5736 31.7993C25.5847 30.9052 23.4093 30.2664 21.2411 30.5014C20.2821 30.6052 19.3161 30.894 18.5704 31.5055C17.8248 32.1177 17.3352 33.0937 17.4771 34.0478C17.6329 35.0941 18.5085 35.9221 19.4914 36.312C20.4751 36.7023 21.5599 36.7308 22.6182 36.7316C26.9868 36.7331 31.353 36.3305 35.6516 35.5506C34.8898 35.3306 34.143 35.048 33.4215 34.7284C31.4272 33.8455 29.5625 32.6933 27.5736 31.7993Z" fill="#F3F3F3"/>
<path d="M44.655 32.2942C44.1185 33.6544 42.9606 34.6642 41.6412 35.243C40.1195 35.9106 38.4094 35.9509 36.7966 35.6341C33.1768 34.9219 30.1834 32.6161 26.8086 31.2667C25.1738 30.6133 23.4091 30.1688 21.6371 30.2757C20.1042 30.3684 18.4352 30.8975 17.6419 32.3188C17.2893 32.9503 17.1535 33.704 17.3596 34.4058C17.5565 35.0776 18.0226 35.6322 18.5841 36.0355C19.9846 37.0435 21.8662 36.9354 23.5048 36.9196C27.1335 36.8846 30.751 36.5866 34.3297 35.9817C34.7881 35.9044 35.2453 35.8221 35.7025 35.7356C35.9456 35.6902 35.8425 35.3195 35.6003 35.3649C32.0908 36.0259 28.5421 36.4074 24.9723 36.5078C24.0705 36.5328 23.1668 36.5474 22.2643 36.5374C21.3875 36.5285 20.4976 36.4759 19.6662 36.1736C18.9905 35.9275 18.358 35.4768 17.9792 34.8573C17.5846 34.2131 17.5512 33.446 17.8526 32.7568C18.5329 31.1998 20.3419 30.6948 21.9005 30.6487C23.6844 30.5956 25.4418 31.0956 27.0708 31.7878C30.3069 33.1625 33.2295 35.3368 36.7378 36.0132C38.2818 36.3105 39.9065 36.3044 41.3943 35.7541C42.6761 35.2807 43.8474 34.447 44.5835 33.281C44.7604 33.001 44.9042 32.7041 45.0257 32.3965C45.1165 32.1662 44.7446 32.0662 44.655 32.2942Z" fill="#49006B"/>
<path d="M20.4793 30.966C20.4689 32.6884 20.4581 34.4108 20.4478 36.1333C20.4462 36.3805 20.8308 36.3809 20.8323 36.1333C20.8427 34.4108 20.8535 32.6884 20.8638 30.966C20.8654 30.7183 20.4808 30.7179 20.4793 30.966Z" fill="#49006B"/>
<path d="M23.2535 30.859C23.3108 32.6168 23.3685 34.375 23.4258 36.1332C23.4343 36.3797 23.8188 36.3808 23.8104 36.1332C23.7531 34.375 23.6954 32.6168 23.6381 30.859C23.63 30.6117 23.2455 30.6106 23.2535 30.859Z" fill="#49006B"/>
<path d="M26.1303 31.666C26.0765 33.1738 26.1038 34.6832 26.2115 36.1879C26.2292 36.4333 26.6137 36.4352 26.596 36.1879C26.4884 34.6832 26.4611 33.1738 26.5149 31.666C26.5234 31.4183 26.1388 31.4187 26.1303 31.666Z" fill="#49006B"/>
<path d="M29.0282 32.9575C28.9725 33.9508 29.0674 34.9487 29.3039 35.9147C29.3628 36.1551 29.7339 36.0535 29.675 35.8128C29.4459 34.878 29.3589 33.9185 29.4128 32.9575C29.4262 32.7098 29.0417 32.7106 29.0282 32.9575Z" fill="#49006B"/>
<path d="M17.0075 18.6373C21.4487 20.9543 25.89 23.2716 30.3308 25.5889L31.5456 22.0245L17.1944 18.1586C16.896 18.0782 16.7333 18.4943 17.0075 18.6373Z" fill="#49006B"/>
<path d="M37.7686 22.5566L40.2566 24.9651C40.2566 24.9651 44.5648 21.1034 47.3048 18.5688C47.5078 18.3807 47.2855 18.055 47.0352 18.1738L37.7686 22.5566Z" fill="#49006B"/>
</svg>
