<svg width="58" height="75" viewBox="0 0 58 75" fill="none" xmlns="http://www.w3.org/2000/svg">
<path d="M21.9287 38.4704C19.0714 37.4635 14.6127 38.3314 11.6352 38.8888C8.65763 39.4461 5.81839 41.1493 4.30639 43.7746C4.14129 44.0604 3.98975 44.3662 3.96839 44.6957C3.94737 45.0249 4.08569 45.3839 4.37758 45.5375C4.67896 45.6958 5.06374 45.5958 5.32987 45.3836C5.59565 45.1714 5.76889 44.8669 5.93569 44.5703C5.66142 45.3022 5.49361 46.0741 5.43869 46.8539C5.41903 47.141 5.41971 47.4495 5.57769 47.6902C5.85941 48.1191 6.52794 48.1187 6.95205 47.8296C7.37616 47.5407 7.61685 47.0576 7.84942 46.6C8.08164 46.1423 8.34607 45.6656 8.79188 45.4117C8.59999 45.9243 8.40472 46.4508 8.40438 46.9983C8.40404 47.5461 8.64 48.1279 9.1214 48.3889C9.70382 48.7046 10.4608 48.45 10.9317 47.9831C11.4023 47.5163 11.6593 46.8824 11.9332 46.2786C12.7821 44.4045 13.9696 42.5867 15.7522 41.5595C18.0398 40.2418 20.8943 40.4479 23.4664 41.0432L21.9287 38.4704Z" fill="#FF0054"/>
<path d="M56.0895 22.709C55.5512 22.435 54.9426 22.4022 54.3317 22.4489C54.8715 22.3842 55.4108 22.3194 55.9505 22.2547C56.2455 22.2191 56.5794 22.1601 56.7381 21.9092C56.9967 21.5001 56.5791 20.9973 56.1709 20.7376C55.0738 20.0399 53.7442 19.7155 52.4492 19.8287C52.7753 19.4555 53.3347 19.4378 53.8219 19.3449C54.3087 19.2521 54.865 18.9185 54.8081 18.4259C54.7579 17.9946 54.2744 17.7726 53.8551 17.66C51.6457 17.0671 49.2343 17.2559 47.144 18.1855C45.0536 19.1147 43.2985 20.7786 42.2588 22.8164C42.5337 24.1888 42.6154 25.7211 42.588 27.3436C43.6372 26.0754 45.4828 25.8998 47.127 25.8204L55.1786 25.4323C55.7373 25.4051 56.355 25.3523 56.7381 24.9451C57.3551 24.2891 56.8923 23.1171 56.0895 22.709Z" fill="#FF0054"/>
<path d="M43.302 61.2556C41.6283 57.4838 39.0149 54.1326 35.7651 51.5897C35.7651 51.5897 34.1155 50.8947 33.4951 52.7491C35.0437 54.0377 36.4601 55.4846 37.7158 57.0597C36.6845 56.0036 35.4227 55.0886 33.9666 54.8479C32.5102 54.6076 30.8491 55.1947 30.1734 56.5071C29.5513 57.716 29.8995 59.2514 30.7212 60.3345C31.5427 61.4177 32.7591 62.1266 33.9863 62.7127C36.2384 63.7894 38.6989 64.558 41.193 64.4556C42.1416 64.4166 43.2464 64.1284 43.5889 63.2429C43.8363 62.6012 43.5807 61.8842 43.302 61.2556Z" fill="#FF0054"/>
<mask id="mask0_813_134" style="mask-type:luminance" maskUnits="userSpaceOnUse" x="30" y="55" width="12" height="8">
<path d="M30.7368 55.8925H41.8168V62.3459H30.7368V55.8925Z" fill="white"/>
</mask>
<g mask="url(#mask0_813_134)">
<path d="M41.7781 62.0262C40.6468 60.3867 39.4297 58.7672 37.8191 57.5664C37.0672 57.0057 36.2352 56.5463 35.3443 56.248C34.4618 55.9521 33.4553 55.7734 32.5345 55.9849C31.6006 56.1995 30.7829 56.9284 30.7371 57.9278C30.7242 58.2106 31.1629 58.2099 31.1765 57.9278C31.2158 57.0654 32.005 56.5179 32.7905 56.3802C33.6546 56.229 34.5846 56.4358 35.3975 56.7304C37.0299 57.3223 38.3903 58.4726 39.5186 59.766C40.2017 60.5491 40.8095 61.3932 41.3987 62.2475C41.5584 62.4787 41.9391 62.2594 41.7781 62.0262Z" fill="#FF0054"/>
</g>
<path d="M55.5807 45.7076C55.5047 44.975 55.3589 44.2369 55.0152 43.5857C54.6711 42.9341 54.1083 42.3734 53.4042 42.1574C52.5465 41.8947 51.5976 42.1767 50.8558 42.6819C49.3764 43.6898 48.6011 45.4974 48.4254 47.2792C48.2492 49.0611 48.5943 50.8484 48.9374 52.6055C47.822 50.8704 46.5412 49.2414 45.1177 47.7488L43.1504 49.4682C44.5112 51.8356 46.2886 53.9629 48.3766 55.7227C48.9157 56.1773 49.535 56.6289 50.2402 56.6214C50.9741 56.6133 51.603 56.1099 52.1176 55.5864C54.646 53.017 55.9512 49.2933 55.5807 45.7076Z" fill="#FF0054"/>
<mask id="mask1_813_134" style="mask-type:luminance" maskUnits="userSpaceOnUse" x="49" y="43" width="4" height="10">
<path d="M49.3403 43.268H52.5094V52.4227H49.3403V43.268Z" fill="white"/>
</mask>
<g mask="url(#mask1_813_134)">
<path d="M52.1746 43.2908C50.8114 43.9255 49.9408 45.2774 49.5733 46.6993C49.1014 48.5269 49.4408 50.442 49.7612 52.2638C49.81 52.5418 50.2331 52.4238 50.1846 52.1472C49.8825 50.4311 49.5547 48.6208 49.9768 46.8956C50.3073 45.5439 51.1033 44.2719 52.396 43.6698C52.6519 43.5508 52.4292 43.1722 52.1746 43.2908Z" fill="#FF0054"/>
</g>
<path d="M47.0375 42.0071C45.3584 39.2899 41.5262 37.8986 41.1695 34.5376C40.901 32.0038 43.0154 29.8521 43.4273 27.3987C44.2952 22.227 41.3133 17.668 36.6647 15.5871C32.7562 13.8378 28.1873 14.0039 24.189 15.36C21.2904 16.3431 18.5702 17.9802 16.472 20.2224C15.0316 21.7615 13.8609 23.562 13.1416 25.549C11.5079 30.0592 12.414 36.0011 16.5832 38.8583C18.2674 40.013 20.3381 40.6019 21.8074 42.0203C23.7469 43.892 24.227 46.7801 25.5444 49.1315C27.2001 52.0873 30.2719 54.1685 33.6061 54.773C36.94 55.3771 40.4796 54.5425 43.29 52.6494C46.269 50.6431 48.7855 46.8831 47.5765 43.1584C47.4426 42.7465 47.2589 42.3654 47.0375 42.0071Z" fill="#6C3292"/>
<path d="M51.8885 29.876C51.2277 29.1614 50.3619 28.6057 49.3825 28.2267C47.4514 27.4792 44.9044 27.3039 43.1961 28.6752C42.6005 29.1536 42.2137 29.837 41.813 30.4876C38.4622 35.9298 33.1129 40.1112 27.0211 42.0453C23.4137 43.1904 21.0192 41.1804 21.0192 41.1804C20.7124 40.9221 18.5716 42.271 18.2583 42.4697C16.2083 43.7715 14.2935 45.9436 13.3484 48.1963C12.4883 50.2463 12.53 52.8215 14.0054 54.4843C15.5747 56.2537 18.1702 56.551 20.3941 56.4415C26.016 56.1652 31.8595 54.1267 36.7512 51.4139C39.6792 49.7897 42.4062 47.8122 44.8956 45.5744C47.6108 43.1338 50.4053 40.5614 52.1091 37.2797C52.7343 36.0756 53.2035 34.7605 53.2282 33.4041C53.2543 31.9877 52.7424 30.7995 51.8885 29.876Z" fill="#FFBE18"/>
<mask id="mask2_813_134" style="mask-type:luminance" maskUnits="userSpaceOnUse" x="14" y="40" width="30" height="14">
<path d="M14.1099 40.2152H43.405V53.7327H14.1099V40.2152Z" fill="white"/>
</mask>
<g mask="url(#mask2_813_134)">
<path d="M14.2735 53.7043C18.5762 53.8806 22.9017 53.2256 26.9784 51.8445C31.0499 50.4644 34.8753 48.3686 38.218 45.6636C40.109 44.1336 41.8387 42.4074 43.3649 40.513C43.5002 40.3445 43.2619 40.1031 43.1249 40.2733C40.4402 43.6058 37.1267 46.407 33.4254 48.5506C29.7244 50.6942 25.645 52.1811 21.4284 52.9029C19.0681 53.3073 16.6666 53.4633 14.2735 53.3653C14.0552 53.3565 14.0555 53.6955 14.2735 53.7043Z" fill="#FFBE18"/>
</g>
<mask id="mask3_813_134" style="mask-type:luminance" maskUnits="userSpaceOnUse" x="46" y="30" width="7" height="13">
<path d="M46.2217 30.9594H52.011V42.0923H46.2217V30.9594Z" fill="white"/>
</mask>
<g mask="url(#mask3_813_134)">
<path d="M51.6801 31.0813C51.0316 34.168 49.7545 37.1082 47.9422 39.6898C47.4255 40.4251 46.8655 41.1283 46.2668 41.7982C46.1217 41.9602 46.3607 42.2009 46.5064 42.0378C48.6368 39.6539 50.2715 36.8428 51.2903 33.812C51.5808 32.9465 51.8191 32.0647 52.0069 31.1714C52.0517 30.9585 51.7249 30.8677 51.6801 31.0813Z" fill="#FFBE18"/>
</g>
<mask id="mask4_813_134" style="mask-type:luminance" maskUnits="userSpaceOnUse" x="17" y="41" width="6" height="6">
<path d="M17.8574 41.9953H22.187V46.1693H17.8574V41.9953Z" fill="white"/>
</mask>
<g mask="url(#mask4_813_134)">
<path d="M21.9777 42.0029C20.0609 42.5562 18.494 44.0692 17.8668 45.9619C17.7983 46.1697 18.1255 46.2585 18.1939 46.0521C18.7831 44.2726 20.2677 42.8494 22.0678 42.3297C22.277 42.2694 22.1879 41.9422 21.9777 42.0029Z" fill="#FFBE18"/>
</g>
<mask id="mask5_813_134" style="mask-type:luminance" maskUnits="userSpaceOnUse" x="24" y="42" width="1" height="4">
<path d="M24.2417 42.7669H24.8099V45.6567H24.2417V42.7669Z" fill="white"/>
</mask>
<g mask="url(#mask5_813_134)">
<path d="M24.4705 42.9292C24.3945 43.7842 24.3189 44.6392 24.243 45.4938C24.2233 45.7115 24.5627 45.7101 24.582 45.4938C24.658 44.6392 24.7336 43.7842 24.8095 42.9292C24.8288 42.7119 24.4898 42.7132 24.4705 42.9292Z" fill="#FFBE18"/>
</g>
<mask id="mask6_813_134" style="mask-type:luminance" maskUnits="userSpaceOnUse" x="31" y="40" width="3" height="3">
<path d="M31.2119 40.6098H33.388V42.8679H31.2119V40.6098Z" fill="white"/>
</mask>
<g mask="url(#mask6_813_134)">
<path d="M31.242 40.8566C31.7664 41.6146 32.4028 42.2808 33.133 42.8429C33.2056 42.8985 33.3229 42.8541 33.3652 42.7819C33.4161 42.6944 33.3771 42.6063 33.3042 42.55C32.6228 42.0259 32.0238 41.3923 31.5346 40.6854C31.4115 40.5071 31.1176 40.6766 31.242 40.8566Z" fill="#FFBE18"/>
</g>
<mask id="mask7_813_134" style="mask-type:luminance" maskUnits="userSpaceOnUse" x="37" y="35" width="3" height="2">
<path d="M37.1934 35.9128H39.6234V36.9007H37.1934V35.9128Z" fill="white"/>
</mask>
<g mask="url(#mask7_813_134)">
<path d="M37.4072 36.2692C38.0923 36.1692 38.8154 36.3946 39.3297 36.8557C39.4914 37.0008 39.7318 36.7621 39.5694 36.6157C38.9561 36.0658 38.1303 35.8237 37.317 35.9424C37.2265 35.9556 37.1763 36.0706 37.1987 36.1509C37.2254 36.2482 37.316 36.2824 37.4072 36.2692Z" fill="#FFBE18"/>
</g>
<mask id="mask8_813_134" style="mask-type:luminance" maskUnits="userSpaceOnUse" x="40" y="31" width="5" height="2">
<path d="M40.689 31.0543H44.4985V32.8569H40.689V31.0543Z" fill="white"/>
</mask>
<g mask="url(#mask8_813_134)">
<path d="M40.9318 32.8234C41.9407 32.0579 43.1222 31.5639 44.3755 31.3829C44.5904 31.3521 44.4989 31.0253 44.2853 31.0561C43.0079 31.2405 41.7885 31.7507 40.7606 32.5305C40.589 32.661 40.7575 32.9553 40.9318 32.8234Z" fill="#FFBE18"/>
</g>
<path d="M31.4958 31.1256C33.0607 29.9811 34.4907 28.6508 35.7386 27.1669C36.362 26.4255 36.9404 25.6455 37.4662 24.8322C37.895 24.1691 38.2249 23.092 38.7765 22.5465C38.9955 22.3299 39.3064 22.1929 39.6179 22.255C40.1956 22.3702 40.579 22.9662 40.6339 23.5527C40.6885 24.1392 40.4865 24.7166 40.2685 25.2637C38.7809 29.0041 36.3919 32.4261 33.1885 34.8636C29.9855 37.3007 25.9468 38.706 21.9285 38.4707C21.2668 38.4317 20.5803 38.3402 20.0267 37.975C18.9238 37.2472 19.0506 35.8613 20.3467 35.5379C21.5112 35.2477 22.7201 35.1992 23.8931 34.8632C26.6225 34.0815 29.2054 32.801 31.4958 31.1256Z" fill="white"/>
<path d="M31.5812 31.2718C33.1569 30.1154 34.5997 28.7831 35.8582 27.2867C36.5006 26.5229 37.1162 25.7195 37.6424 24.8706C38.0648 24.1885 38.2774 23.3498 38.8205 22.7456C39.1276 22.4042 39.567 22.3005 39.9504 22.5866C40.2945 22.8433 40.464 23.287 40.4731 23.7054C40.4837 24.2051 40.3131 24.6878 40.1335 25.1472C39.9653 25.5754 39.7836 25.9981 39.5914 26.4158C38.8411 28.0431 37.9166 29.5957 36.8165 31.0111C34.5445 33.9344 31.513 36.254 27.9907 37.4486C26.2163 38.0504 24.3449 38.3643 22.4698 38.3226C21.5942 38.3033 20.5351 38.2782 19.8638 37.6297C19.4387 37.2185 19.2736 36.5384 19.7147 36.0726C19.9967 35.7746 20.3954 35.6929 20.7815 35.6126C21.2775 35.5095 21.7799 35.44 22.2803 35.3627C23.2892 35.2071 24.2564 34.9559 25.2192 34.6196C27.0428 33.9822 28.7904 33.1249 30.4126 32.0763C30.8099 31.8193 31.1991 31.5505 31.5812 31.2718C31.7561 31.1447 31.5869 30.8504 31.4103 30.9793C29.7322 32.2028 27.9035 33.2222 25.9695 33.9809C25.0026 34.3602 24.0042 34.706 22.9828 34.902C22.4312 35.0081 21.8738 35.0789 21.3199 35.1705C20.8636 35.2457 20.3693 35.3047 19.9455 35.5007C19.3601 35.7709 19.0129 36.3723 19.1383 37.014C19.2909 37.7951 20.0344 38.2809 20.7541 38.4745C21.6789 38.723 22.7112 38.6949 23.6598 38.6416C24.6344 38.5871 25.6047 38.4423 26.5543 38.2158C30.3627 37.308 33.7573 35.0986 36.3124 32.1556C37.5444 30.7372 38.592 29.1608 39.4463 27.4884C39.8877 26.6243 40.3158 25.7249 40.6196 24.8014C40.8898 23.98 40.9383 22.9582 40.2016 22.3554C39.8877 22.0985 39.4724 21.9934 39.0869 22.1452C38.7069 22.2951 38.4509 22.629 38.2445 22.968C38.0105 23.3528 37.8329 23.7688 37.6346 24.1722C37.4332 24.5821 37.1864 24.9587 36.9271 25.334C35.7158 27.085 34.258 28.6635 32.625 30.0283C32.2304 30.3585 31.8249 30.6748 31.4103 30.9793C31.236 31.1071 31.4049 31.4013 31.5812 31.2718Z" fill="#49006B"/>
<path d="M22.4994 35.535C23.1686 36.5453 23.9351 37.4891 24.7884 38.3495C24.9423 38.5044 25.182 38.2647 25.0281 38.1098C24.1948 37.269 23.4456 36.3507 22.7919 35.3638C22.6723 35.1828 22.3783 35.3523 22.4994 35.535Z" fill="#49006B"/>
<path d="M25.8718 34.4794C26.7844 35.3286 27.6655 36.211 28.5134 37.125C28.6618 37.2854 28.9015 37.0454 28.753 36.8853C27.9052 35.9714 27.0241 35.0886 26.1114 34.2397C25.9518 34.0912 25.7114 34.3305 25.8718 34.4794Z" fill="#49006B"/>
<path d="M28.7766 33.2765C29.4709 34.2421 30.2432 35.1486 31.089 35.9842C31.2443 36.1375 31.4843 35.8981 31.3287 35.7446C30.5035 34.9292 29.7465 34.0471 29.0692 33.1053C28.9431 32.9297 28.6488 33.0989 28.7766 33.2765Z" fill="#49006B"/>
<path d="M31.7488 31.4864C32.7435 32.06 33.5819 32.8757 34.1812 33.8551C34.2951 34.0409 34.5884 33.8707 34.4741 33.6839C33.8453 32.6563 32.9638 31.7959 31.92 31.1938C31.7305 31.0843 31.5596 31.3772 31.7488 31.4864Z" fill="#49006B"/>
<path d="M34.2704 29.2449C35.1024 29.8344 35.8973 30.4745 36.652 31.1603C36.8134 31.3068 37.0541 31.0674 36.892 30.9206C36.1157 30.2155 35.297 29.5585 34.4416 28.952C34.2633 28.8259 34.0938 29.1195 34.2704 29.2449Z" fill="#49006B"/>
<path d="M36.1653 26.9803C37.0169 27.2346 37.7458 27.8204 38.1814 28.5944C38.2885 28.7845 38.5815 28.6137 38.4743 28.4231C37.9956 27.5736 37.1895 26.9322 36.2555 26.6535C36.0456 26.5911 35.9565 26.9179 36.1653 26.9803Z" fill="#49006B"/>
<path d="M37.6964 24.9388C38.5019 25.0758 39.2043 25.5914 39.5718 26.322C39.6698 26.5169 39.9627 26.3454 39.8647 26.1508C39.4623 25.351 38.6697 24.7618 37.7866 24.612C37.6964 24.5964 37.6042 24.6357 37.5781 24.7303C37.5557 24.8117 37.6055 24.9235 37.6964 24.9388Z" fill="#49006B"/>
<path d="M20.9915 29.0689C20.682 28.734 20.1311 28.3835 19.7531 28.8272C19.5989 29.0086 19.5484 29.2561 19.528 29.4934C19.4789 30.0616 19.5711 30.6409 19.7931 31.1657C19.9335 31.497 20.1379 31.819 20.4505 31.997C20.7634 32.175 21.2017 32.1668 21.4458 31.9024C21.5763 31.7614 21.636 31.5695 21.6719 31.3807C21.793 30.7389 21.653 30.0595 21.3187 29.5019C21.2431 29.3761 21.1288 29.2178 20.9915 29.0689Z" fill="#FFBE18"/>
<path d="M34.2557 23.9351C34.6937 24.0619 35.3466 24.0772 35.4405 23.5019C35.4789 23.2666 35.3941 23.029 35.289 22.815C35.0375 22.3035 34.6591 21.855 34.1974 21.5207C33.9062 21.3098 33.5644 21.1396 33.2047 21.1491C32.8454 21.1586 32.4742 21.3922 32.402 21.7444C32.3633 21.9326 32.4115 22.1279 32.4782 22.3079C32.7061 22.9198 33.1773 23.429 33.7519 23.7338C33.8814 23.8023 34.0611 23.8789 34.2557 23.9351Z" fill="#FFBE18"/>
<path d="M18.0406 28.3139C18.0016 27.8162 18.1796 27.3175 18.5427 26.9707C18.8956 26.6337 19.414 26.4669 19.8977 26.5368C19.9879 26.55 20.0798 26.5144 20.1062 26.4185C20.1279 26.3388 20.0788 26.2232 19.9876 26.21C19.3889 26.1235 18.7756 26.2964 18.3271 26.7087C17.8891 27.1111 17.6552 27.7227 17.7016 28.3139C17.7186 28.5298 18.0576 28.5319 18.0406 28.3139Z" fill="#49006B"/>
<path d="M31.494 20.8515C31.4439 20.5227 31.6069 20.1576 31.8839 19.9741C32.1978 19.766 32.6131 19.7829 32.9199 19.9938C32.9955 20.0457 33.1081 20.008 33.1518 19.9331C33.201 19.8491 33.1667 19.7531 33.0911 19.7012C32.6853 19.4222 32.0999 19.411 31.6927 19.6948C31.291 19.9748 31.0937 20.461 31.1669 20.9417C31.1808 21.0322 31.2947 21.0824 31.3754 21.06C31.4727 21.0336 31.5079 20.9424 31.494 20.8515Z" fill="#49006B"/>
<path d="M11.763 57.97C11.0697 57.93 10.2598 58.0578 9.91064 58.6578C9.55535 59.2677 9.90013 60.1054 10.5005 60.4763C11.1009 60.8469 11.863 60.8428 12.5543 60.7014C13.2455 60.56 13.9083 60.2946 14.6039 60.177C15.2999 60.0597 16.0692 60.1105 16.6279 60.5417L16.9611 60.7024C15.723 59.1087 13.7774 58.0863 11.763 57.97Z" fill="#00C2B1"/>
<path d="M7.78732 53.2036C7.24117 53.0741 6.62891 53.0565 6.15666 53.3606C5.68509 53.6647 5.45558 54.3756 5.80883 54.8115C6.06615 55.1295 6.53025 55.2021 6.933 55.1312C7.33575 55.0607 7.70799 54.8739 8.10057 54.76C8.85555 54.5403 9.68715 54.6092 10.4042 54.9292C9.76648 54.0755 8.82504 53.4497 7.78732 53.2036Z" fill="#00C2B1"/>
<path d="M57.5633 57.7503C57.486 57.1249 56.7778 56.7302 56.1507 56.7933C55.5235 56.8564 54.9834 57.2544 54.5204 57.6822C53.1843 58.9186 52.1876 60.6062 52.0991 62.4247L52.1144 62.524C52.77 61.1506 53.9847 60.0543 55.4181 59.5424C55.8964 59.3715 56.4032 59.2606 56.8362 58.9949C57.2694 58.7294 57.6257 58.2544 57.5633 57.7503Z" fill="#00C2B1"/>
<path d="M17.5055 19.4481C14.252 17.4462 10.2943 16.7028 6.52824 17.2984C5.45628 17.4679 4.40466 17.7503 3.39202 18.1405C3.19031 18.2178 3.27811 18.5457 3.4822 18.4673C6.97641 17.1218 10.9215 17.1049 14.4459 18.3558C15.4548 18.7142 16.4227 19.1796 17.3343 19.7407C17.5208 19.8556 17.6913 19.5624 17.5055 19.4481Z" fill="#49006B"/>
<path d="M3.39497 18.2303C3.41599 17.6143 2.87391 17.0689 2.26538 16.9709C1.56498 16.858 0.815077 17.2974 0.570987 17.9635C0.326897 18.63 0.615737 19.4498 1.22359 19.8159C1.83144 20.182 2.69118 20.0542 3.16614 19.5271C3.64109 18.9999 3.67906 18.1313 3.25157 17.5652" fill="#FF0054"/>
<path d="M21.1851 16.8677C19.6551 13.463 19.4344 9.51754 20.4918 5.94501C20.7938 4.92526 21.201 3.9411 21.7078 3.00611C21.8119 2.81422 21.519 2.64302 21.4149 2.8349C19.5863 6.20877 19.0554 10.2261 19.8751 13.9698C20.106 15.0255 20.4494 16.053 20.8925 17.0386C20.9813 17.2372 21.2739 17.0653 21.1851 16.8677Z" fill="#49006B"/>
<path d="M21.4942 2.869C20.8806 2.81069 20.4097 2.2025 20.3908 1.58651C20.3694 0.877298 20.9017 0.190117 21.5939 0.0341706C22.2858 -0.121776 23.0615 0.270124 23.3463 0.920013C23.6314 1.5699 23.3937 2.40625 22.8096 2.80934C22.2255 3.21242 21.3597 3.13784 20.8528 2.64119" fill="#FF0054"/>
<path d="M57.4212 68.8858C57.2493 68.3491 56.6927 67.8898 56.1597 67.6026C54.3847 66.6463 52.3716 66.2351 50.3792 65.9262C42.0141 64.6295 33.4974 64.9346 25.0325 64.8973C20.168 64.8759 15.2808 64.7444 10.439 65.3112C7.87912 65.6109 -0.282972 65.9974 0.00756264 70.071C0.117064 71.6132 1.96502 72.3017 3.48211 72.5994C14.5841 74.7765 25.9685 75.3891 37.2652 74.7738C41.6927 74.5324 46.1277 74.1008 50.4392 73.0658C52.6805 72.5278 54.9386 71.7993 56.7445 70.3673C57.0364 70.1361 57.328 69.8676 57.4324 69.5099C57.4958 69.2947 57.4846 69.0848 57.4212 68.8858Z" fill="#00C2B1"/>
<mask id="mask9_813_134" style="mask-type:luminance" maskUnits="userSpaceOnUse" x="6" y="67" width="45" height="5">
<path d="M6.41406 67.2116H50.3763V71.972H6.41406V67.2116Z" fill="white"/>
</mask>
<g mask="url(#mask9_813_134)">
<path d="M6.5763 69.7782C7.93541 69.6559 9.23891 69.1717 10.3394 68.3625C10.2563 68.3286 10.1732 68.2951 10.0902 68.2612C10.3783 69.0005 11.0465 69.5497 11.8412 69.646C12.6382 69.7426 13.4312 69.3443 13.8736 68.6859C13.7685 68.6571 13.663 68.6286 13.5579 68.6002C13.6017 69.4169 14.2956 70.0094 15.0577 70.183C16.0456 70.4085 17.0305 69.9315 17.8943 69.5077C18.0902 69.4118 17.9187 69.1192 17.7231 69.2151C16.9783 69.5806 16.1202 70.0156 15.2628 69.8789C14.616 69.7759 13.9346 69.305 13.897 68.6002C13.8875 68.4293 13.6756 68.3737 13.581 68.5147C13.2159 69.0578 12.5572 69.3792 11.9025 69.3138C11.2455 69.2484 10.6553 68.7822 10.4173 68.171C10.3821 68.0798 10.2651 67.9984 10.1685 68.0696C9.11755 68.8426 7.87642 69.3223 6.5763 69.4392C6.36035 69.4586 6.35832 69.7979 6.5763 69.7782Z" fill="#00C2B1"/>
<path d="M28.252 71.7686C29.2932 71.9246 30.3638 71.4015 30.8489 70.4587C30.7438 70.4302 30.6384 70.4017 30.5333 70.3733C30.5045 71.1666 31.1686 71.9053 31.9707 71.927C32.7758 71.9487 33.4647 71.2252 33.4752 70.438H33.1362C33.1806 71.3076 33.9943 71.9988 34.856 71.9714C35.7578 71.9426 36.4938 71.2022 36.7084 70.3594C36.6053 70.3729 36.5019 70.3865 36.3985 70.4C37.0135 71.6876 38.7045 71.9897 39.7504 71.0381C39.9121 70.8909 39.6721 70.6516 39.5107 70.7984C38.6143 71.6137 37.2078 71.3103 36.6918 70.2288C36.6277 70.0953 36.4158 70.1349 36.3816 70.2695C36.2094 70.9462 35.6422 71.5707 34.9147 71.629C34.2261 71.6842 33.5118 71.1476 33.4752 70.438C33.4644 70.2214 33.1393 70.2183 33.1362 70.438C33.1281 71.0449 32.5911 71.6063 31.9707 71.588C31.3469 71.57 30.8499 70.9804 30.8723 70.3733C30.878 70.2082 30.6329 70.1383 30.5563 70.2875C30.1461 71.0842 29.2362 71.5757 28.3426 71.4418C28.129 71.41 28.0368 71.7364 28.252 71.7686Z" fill="#00C2B1"/>
<path d="M22.6115 68.997C23.552 69.3466 24.6527 68.5665 24.6666 67.5739C24.5558 67.5888 24.4449 67.6037 24.3341 67.6189C24.5036 68.3322 25.2135 68.8838 25.9559 68.8143C26.7021 68.7445 27.2892 68.1136 27.3537 67.3772C27.2428 67.3925 27.1319 67.4074 27.0211 67.4223C27.2394 68.1241 27.9022 68.6526 28.6463 68.6634C29.3918 68.6743 30.0647 68.1593 30.3034 67.4654C30.2004 67.4789 30.097 67.4925 29.9936 67.5061C30.5489 68.479 31.789 68.9577 32.8528 68.5994C33.0586 68.5302 32.9704 68.2024 32.7626 68.2726C31.8395 68.5834 30.7702 68.1831 30.2868 67.3348C30.2105 67.2016 30.0224 67.242 29.9769 67.3752C29.7864 67.9285 29.2359 68.3332 28.6463 68.3244C28.0554 68.316 27.5215 67.8891 27.3479 67.3321C27.2889 67.1433 27.0313 67.1898 27.0146 67.3772C26.9651 67.9437 26.4726 68.4495 25.8969 68.4797C25.3186 68.5099 24.7927 68.0824 24.6609 67.5284C24.6158 67.3399 24.3307 67.385 24.3276 67.5739C24.3164 68.3617 23.4309 68.9411 22.702 68.6702C22.4969 68.5943 22.4085 68.9218 22.6115 68.997Z" fill="#00C2B1"/>
<path d="M44.8901 71.7541C45.4993 71.1882 45.9455 70.4777 46.197 69.6857C46.2648 69.4728 45.9505 69.3996 45.8702 69.5959C45.5993 70.2573 46.1838 70.9323 46.8561 70.9194C47.648 70.9045 48.1257 70.2004 48.2023 69.4752C48.0911 69.4905 47.9802 69.5054 47.8694 69.5203C47.9443 70.0454 48.3006 70.5065 48.7925 70.7068C49.3085 70.9167 49.8882 70.7974 50.3174 70.4583C50.4882 70.3231 50.2469 70.0848 50.0774 70.2187C49.3475 70.7957 48.323 70.3177 48.1962 69.4305C48.167 69.2264 47.8816 69.302 47.8633 69.4752C47.8083 69.9925 47.4846 70.519 46.9262 70.576C46.4316 70.6268 45.9967 70.1756 46.197 69.6857C46.0882 69.6559 45.979 69.6257 45.8702 69.5959C45.6359 70.3333 45.2173 70.9879 44.6504 71.5144C44.4904 71.6632 44.7304 71.9025 44.8901 71.7541Z" fill="#00C2B1"/>
</g>
<mask id="mask10_813_134" style="mask-type:luminance" maskUnits="userSpaceOnUse" x="27" y="15" width="14" height="6">
<path d="M27.1016 15.293H40.1892V20.0839H27.1016V15.293Z" fill="white"/>
</mask>
<g mask="url(#mask10_813_134)">
<g opacity="0.160004">
<path d="M40.1379 19.6978C37.8367 16.8002 34.2154 15.1391 30.516 15.3045C29.4054 15.354 28.3057 15.5618 27.253 15.9195C26.9873 16.01 27.1015 16.4344 27.37 16.3429C30.8815 15.1492 34.8008 15.7601 37.7669 17.9898C38.5378 18.5695 39.2277 19.2533 39.8277 20.0083C40.0033 20.2293 40.3122 19.9168 40.1379 19.6978Z" fill="white"/>
</g>
</g>
<path d="M31.8304 27.1177C31.7779 28.1494 31.1676 29.0935 30.355 29.7302C29.5431 30.3665 28.546 30.7225 27.5409 30.955C26.9615 31.0869 26.3557 31.1835 25.7672 31.0869C25.1742 30.99 24.5992 30.674 24.3094 30.1516C23.9626 29.5281 23.967 28.9003 24.1863 28.3033C24.7003 26.9025 26.3991 25.682 27.4927 25.1155C28.3708 24.6633 29.398 24.3165 30.3245 24.6545C30.4035 24.6809 30.4781 24.7162 30.5486 24.7511C30.5879 24.7687 30.6273 24.7908 30.6628 24.8128C31.4266 25.2691 31.8789 26.2133 31.8304 27.1177Z" fill="#FF0054"/>
<mask id="mask11_813_134" style="mask-type:luminance" maskUnits="userSpaceOnUse" x="24" y="24" width="8" height="8">
<path d="M24.0332 24.751H31.8339V31.1258H24.0332V24.751Z" fill="white"/>
</mask>
<g mask="url(#mask11_813_134)">
<path d="M31.8304 27.1177C31.7779 28.1493 31.1676 29.0935 30.355 29.7301C29.5431 30.3665 28.546 30.7224 27.5409 30.955C26.9615 31.0869 26.3557 31.1835 25.7672 31.0869C25.1742 30.9899 24.5992 30.6739 24.3094 30.1515C23.9626 29.5281 23.967 28.9002 24.1863 28.3032C24.6782 28.4303 25.2535 28.3734 25.7627 28.2459C27.2863 27.8683 28.6956 27.0387 29.7624 25.884C30.0699 25.5501 30.3594 25.1684 30.5486 24.751C30.5879 24.7687 30.6273 24.7907 30.6628 24.8127C31.4266 25.269 31.8789 26.2132 31.8304 27.1177Z" fill="#FF0054"/>
</g>
<path d="M30.8911 26.0651C30.4595 25.405 29.7154 24.9962 28.9292 24.97C28.6465 24.9609 28.6468 25.3999 28.9292 25.4091C29.5557 25.4298 30.1669 25.7593 30.5121 26.2868C30.8724 26.838 30.9307 27.5703 30.6582 28.171C30.5419 28.4263 30.9202 28.6497 31.0372 28.3927C31.3738 27.6513 31.3426 26.7553 30.8911 26.0651Z" fill="white"/>
</svg>
