<svg width="67" height="65" viewBox="0 0 67 65" fill="none" xmlns="http://www.w3.org/2000/svg">
<path d="M6.58051 3.23038C5.54299 3.55896 4.50548 3.88755 3.46796 4.21613C4.18878 6.17307 5.63003 10.0862 5.63003 10.0862L3.52739 11.2732C3.52739 11.2732 2.44425 8.20822 1.90249 6.67572C1.26833 7.002 0.634164 7.32829 -1.61186e-07 7.65457C-1.61186e-07 7.65457 2.68235 18.7693 4.73821 22.5774C5.23626 22.424 6.35774 22.0816 6.8558 21.9279C6.37768 20.6687 6.02993 19.3601 5.82173 18.0297C6.25077 17.9408 6.67943 17.8518 7.10846 17.7629C7.54287 19.0979 7.97766 20.4329 8.41168 21.7684C9.31577 21.5038 9.59681 21.4287 10.5009 21.1641C9.52166 15.1208 8.21269 9.13109 6.58051 3.23038Z" fill="#FFBE18"/>
<path d="M13.3853 9.76782C13.3853 9.76782 13.3853 6.30523 13.3604 5.02233C13.8297 6.26305 15.884 9.13059 15.884 9.13059C15.884 9.13059 14.0226 9.50787 13.3853 9.76782ZM13.8385 1.23576e-05C12.8907 0.343934 10.124 0.947425 10.124 0.947425C10.5515 5.54224 10.9963 10.9418 10.8954 15.5531C11.9602 15.4358 13.0334 15.3185 14.0981 15.2008C13.771 14.304 13.7039 12.6603 13.8554 11.7213L16.379 11.076C17.2758 12.0652 17.3092 12.6687 18.2152 13.6583L20.7051 12.5514L13.8385 1.23576e-05Z" fill="#FFBE18"/>
<path d="M60.7407 34.3963C60.0203 34.2974 59.3002 34.1981 58.5798 34.0991C58.454 35.4863 58.2025 38.2615 58.2025 38.2615L56.5933 38.3746L56.9303 35.1347C56.4538 35.1497 55.978 35.165 55.5018 35.18C55.5018 35.18 53.9347 42.6561 54.0843 45.5436C54.4286 45.5938 55.2035 45.7085 55.5481 45.7587C55.6202 44.8615 55.7859 43.9724 56.0412 43.1097C56.3253 43.1791 56.6098 43.2481 56.8943 43.3175C56.7735 44.2477 56.6535 45.1778 56.5327 46.108C57.1543 46.2077 57.3456 46.2426 57.9667 46.3423C59.1077 42.415 60.0345 38.4248 60.7407 34.3963Z" fill="#FFBE18"/>
<path d="M62.9734 40.2919C62.9734 40.2919 63.9656 38.2023 64.3184 37.4209C64.2459 38.3043 64.6634 40.6236 64.6634 40.6236C64.6634 40.6236 63.4323 40.3176 62.9734 40.2919ZM66.046 34.5269C65.3758 34.4629 63.5331 34.0342 63.5331 34.0342C62.4741 36.9294 61.1947 40.3157 59.8125 43.0693C60.4888 43.3036 61.1702 43.5406 61.8465 43.7748C61.9059 43.1399 62.3365 42.1288 62.6965 41.6055L64.4046 41.939C64.6623 42.7933 64.5097 43.1671 64.7723 44.0237L66.5924 44.0697L66.046 34.5269Z" fill="#FFBE18"/>
<path d="M46.8858 51.2801C46.3349 53.1021 49.296 54.3156 51.1057 54.9068C51.772 55.1246 52.5013 55.2434 53.1711 55.036C53.8405 54.8286 54.4226 54.2247 54.4241 53.5238C54.4256 52.8225 53.678 52.17 53.0189 52.4088C53.4571 52.4157 53.9088 52.4203 54.3156 52.257C54.722 52.0937 55.0763 51.7176 55.074 51.2789C55.0713 50.654 54.3884 50.2514 53.7708 50.1594C53.1527 50.0673 52.4936 50.1463 51.9262 49.8841C52.4158 49.8898 52.9273 49.8902 53.364 49.6697C53.8011 49.4493 54.1308 48.9324 53.9709 48.4697C53.8432 48.1004 53.4637 47.888 53.1094 47.7239C52.1175 47.2642 51.0746 46.9149 50.006 46.6837C50.6414 46.4088 51.1471 45.6232 50.7932 45.0285C50.437 44.43 49.5682 44.4899 48.8823 44.6087C48.196 44.7279 46.8732 44.4262 46.5791 43.7951C46.5791 43.7951 47.5054 49.2292 46.8858 51.2801Z" fill="#00C2B1"/>
<path d="M22.1524 51.4999C21.6363 53.2563 21.121 55.0123 20.6049 56.7683C20.8798 53.0512 19.0483 49.2489 15.971 47.1462C15.1566 46.5899 14.1544 46.134 13.2066 46.407C11.9157 46.7789 11.3451 48.3084 11.2922 49.6507C11.1964 52.0796 12.1599 54.4303 13.3577 56.5456C14.5405 58.6356 15.9695 60.5864 17.6055 62.3447C18.5387 63.3477 19.9071 64.3641 21.1559 63.8009C21.9921 63.424 22.3901 62.4793 22.6784 61.6085C23.4939 59.144 24.0353 56.5885 24.2895 54.0047L22.1524 51.4999Z" fill="#FF0054"/>
<path d="M44.0123 61.6357C40.8093 59.415 36.4223 59.0258 32.8784 60.6484C32.6668 59.2125 32.4555 57.7766 32.2442 56.3408L28.6885 56.1966C28.7399 58.846 28.7908 61.495 28.8418 64.144C33.6042 65.1615 38.5579 65.2735 43.3613 64.4714C44.0403 64.3579 44.8351 64.1271 45.0437 63.4707C45.2722 62.7522 44.6315 62.0651 44.0123 61.6357Z" fill="#FF0054"/>
<path d="M43.7034 9.4326C39.0668 7.91506 33.9022 8.30921 29.3994 10.1872C24.0842 12.4175 19.5147 17.0203 18.5001 22.6968C18.3579 23.5184 18.282 24.3316 18.2736 25.1533C18.1984 28.507 19.0783 31.8358 19.7409 35.1304C20.5123 34.6443 21.2082 34.0408 21.7952 33.3196C23.1621 31.6594 23.8326 29.5548 24.6459 27.568C26.4571 23.1327 29.1234 18.9823 32.7282 15.813C36.3254 12.6521 40.9114 10.5226 45.6906 10.229C45.0449 9.91877 44.3824 9.65882 43.7034 9.4326Z" fill="#00C2B1"/>
<path d="M37.6919 10.5057C33.4663 12.5516 29.802 15.7293 27.1695 19.6198L26.8678 19.3679C25.9875 17.7162 26.3479 15.5783 27.4544 14.0776C28.5698 12.5685 30.3135 11.6211 32.1244 11.1345C33.9272 10.6483 35.822 10.5813 37.6919 10.5057Z" fill="#FF0054"/>
<path d="M55.2553 24.0653C55.3592 27.2035 54.4854 30.3667 52.6185 32.8941C51.0791 34.9695 48.909 36.6531 47.8512 38.972C47.7672 39.1457 47.6925 39.3243 47.6281 39.5084C46.4859 42.5918 47.5682 45.9037 47.638 49.0668C47.7028 51.8428 46.5058 54.6133 44.5144 56.5449C41.7588 59.2265 37.9005 59.728 34.2213 59.5789C31.4304 59.4696 28.6346 58.9336 26.1121 57.7369C23.7982 56.6442 21.2612 54.7923 20.1037 52.4336C18.838 49.8613 19.3042 46.733 19.8011 44.0369C20.2432 41.6037 20.4614 39.2549 20.0496 36.7973C19.9599 36.2459 19.8506 35.6846 19.7413 35.1287C20.5112 34.6421 21.2063 34.0413 21.7972 33.3213C23.1629 31.6576 23.8331 29.5573 24.6475 27.5662C26.4549 23.1317 29.1215 18.9805 32.7264 15.8127C36.3266 12.6546 40.9095 10.5243 45.6914 10.2314C49.4703 12.0089 52.6235 15.1176 54.1928 18.9759C54.3612 19.3927 54.5103 19.8198 54.6345 20.2569C55.0018 21.4934 55.2154 22.7793 55.2553 24.0653Z" fill="#FF0054"/>
<path d="M19.6314 34.9169C18.467 36.2324 17.5794 37.7921 17.043 39.4649C18.2864 38.0816 20.0439 37.1714 21.8916 36.954C20.8445 37.901 19.8097 38.8768 18.985 40.0228C18.161 41.1688 17.5518 42.505 17.4551 43.9129C18.7637 42.2535 20.7329 41.1301 22.8275 40.8475" fill="#FF0054"/>
<path d="M51.5713 33.3416C52.0866 34.5095 52.3531 35.7859 52.3481 37.0626C53.3576 34.9262 53.8495 32.5479 53.7698 30.1865C54.5657 30.9081 55.0933 31.9191 55.229 32.9843C56.2796 30.9043 56.283 28.327 55.2382 26.2439C56.2094 26.7335 57.0426 27.4923 57.6204 28.4132C57.8109 25.9076 56.8309 23.3372 55.0201 21.595" fill="#FF0054"/>
<path d="M22.8412 62.3832C23.853 58.9309 24.544 55.3909 24.912 51.8125C24.9373 51.5671 24.5539 51.569 24.5286 51.8125C24.1644 55.3564 23.4731 58.8623 22.4716 62.2812C22.4018 62.5185 22.7718 62.6197 22.8412 62.3832Z" fill="#44057D"/>
<path d="M28.2821 58.7792C29.9822 59.2926 31.7589 59.5176 33.533 59.4436C33.7787 59.4337 33.7803 59.0503 33.533 59.0602C31.7904 59.1331 30.0539 58.9138 28.3845 58.4096C28.1472 58.3379 28.0463 58.7079 28.2821 58.7792Z" fill="#44057D"/>
<path d="M41.9024 26.369C41.4324 24.9093 40.4884 23.598 39.2182 22.7357C36.3836 20.8118 31.9502 21.3558 29.7809 24.108C29.0543 25.0289 28.6026 26.1746 28.5436 27.3486C28.4305 29.6161 29.7034 31.8563 31.6193 33.0737C33.5352 34.2914 36.0067 34.513 38.1722 33.8317C39.2952 33.4782 40.3688 32.8751 41.1038 31.9553C41.8024 31.0811 42.1574 29.9631 42.2245 28.8454C42.2747 28.008 42.1593 27.1664 41.9024 26.369Z" fill="#FFBE18"/>
<path d="M51.5014 21.6516C51.71 20.2096 51.4523 18.6963 50.7284 17.4295C49.1131 14.6033 45.103 13.215 42.1013 14.657C41.0967 15.1397 40.2321 15.9284 39.6915 16.9061C38.6479 18.7933 38.7978 21.2367 39.9243 23.0764C41.0503 24.9164 43.0671 26.1383 45.1996 26.4611C46.3058 26.6291 47.4736 26.5631 48.4855 26.085C49.4471 25.6306 50.217 24.8251 50.7411 23.8992C51.1337 23.206 51.3871 22.4395 51.5014 21.6516Z" fill="#FFBE18"/>
<path d="M35.2755 30.5154C35.024 29.6934 34.7299 28.7847 34.9646 27.9239C35.1398 27.2844 35.6294 26.771 36.2256 26.4972C37.4824 25.9194 38.9663 26.7146 39.3669 27.9956C39.5142 28.4649 40.2541 28.2648 40.1065 27.7916C39.7024 26.4999 38.4529 25.5053 37.0756 25.5329C35.7337 25.5602 34.45 26.5605 34.1847 27.8928C33.9938 28.8514 34.2568 29.8061 34.5359 30.7194C34.6801 31.1898 35.4205 30.9889 35.2755 30.5154Z" fill="#49006B"/>
<path d="M43.7369 23.1464C43.5122 22.4463 43.2511 21.681 43.4662 20.9456C43.6349 20.367 44.1506 19.9836 44.7418 19.9146C46.1623 19.7486 47.0553 21.2094 47.1972 22.4355C47.2213 22.641 47.3563 22.8189 47.5806 22.8189C47.7696 22.8189 47.9882 22.6426 47.964 22.4355C47.8053 21.0648 47.096 19.7259 45.7164 19.2666C44.4619 18.8487 43.0107 19.5262 42.6986 20.8493C42.4988 21.6982 42.7385 22.5433 42.9973 23.3503C43.1476 23.8181 43.8883 23.618 43.7369 23.1464Z" fill="#49006B"/>
<path d="M55.2352 23.6408C55.3391 26.779 54.4852 30.3666 52.6184 32.8941C51.079 34.9695 48.9089 36.6531 47.851 38.9719C46.2572 39.6272 40.0106 42.1351 36.4453 42.691C34.9212 42.9245 33.3669 43.0683 31.842 42.8302C30.3226 42.5917 28.828 41.9365 27.82 40.7893C27.1253 39.9999 26.7082 38.7833 27.3139 37.9241C27.8051 37.2289 28.7544 36.9456 29.6129 36.9559C32.0936 36.9859 33.9121 36.9855 36.4146 36.6615C45.1637 35.5304 51.6748 30.2551 55.2352 23.6408Z" fill="#44057D"/>
<path d="M32.3554 36.8899C30.9003 36.8677 32.5107 39.9112 33.6916 40.7616C35.0519 40.0308 36.0442 38.6509 36.3038 37.1288C36.6254 37.6606 36.9548 38.2016 37.4233 38.6103C37.8915 39.019 38.5299 39.2816 39.1379 39.1516C39.792 39.0125 40.2878 38.4439 40.5251 37.8178C40.7621 37.1924 40.7843 36.5088 40.8039 35.8401C41.3529 36.3163 41.9173 36.8021 42.5986 37.0544C43.2796 37.3071 44.1127 37.2806 44.6572 36.7994C45.4619 36.0886 45.3178 34.7685 45.9194 33.879C46.1966 34.2624 46.483 34.655 46.8806 34.9119C47.2778 35.1684 47.8169 35.2627 48.2229 35.02C48.5645 34.8153 48.7424 34.4246 48.8847 34.0523C49.2861 32.999 49.5625 31.8975 49.7056 30.7795C50.0729 31.039 50.449 31.3024 50.8811 31.4263C51.3136 31.5493 51.8201 31.5079 52.1544 31.2077C52.4335 30.9566 52.5486 30.5739 52.6364 30.2086C52.8814 29.1868 53.0109 28.1374 53.0209 27.0868C53.5059 27.458 54.0853 27.7045 54.6888 27.7977C54.8172 26.4948 54.946 25.1924 55.0745 23.8899C55.0745 23.8899 48.6354 37.1384 32.3554 36.8899Z" fill="white"/>
<path d="M18.4414 25.1449C18.3831 25.1449 18.3325 25.1449 18.2738 25.1534C15.0125 25.2876 11.8179 26.6123 9.40322 28.8088C8.40558 29.7313 7.51683 30.8378 7.15604 32.146C6.79563 33.4623 7.05558 35.0048 8.06166 35.9188C8.91705 36.6987 10.1413 36.9084 11.298 36.992C14.2074 37.2017 17.3349 36.6902 19.7412 35.1305" fill="#00C2B1"/>
<path d="M18.1921 25.4795C18.1319 28.6116 18.6031 31.7441 19.5843 34.7194C19.6614 34.9529 20.0317 34.8528 19.9543 34.6174C18.9831 31.672 18.5161 28.5802 18.5755 25.4795C18.5805 25.2326 18.1971 25.2326 18.1921 25.4795Z" fill="#44057D"/>
<path d="M31.1699 11.1794C32.8056 7.97526 36.2275 5.76029 39.8205 5.5797C38.4712 5.9704 37.2834 6.89365 36.5722 8.10485C38.977 7.02363 41.8226 6.96689 44.2688 7.9511C42.3226 8.02395 40.3956 8.5661 38.6971 9.51888C41.4826 8.78886 44.6193 9.58252 46.7223 11.5502C42.285 11.0042 37.7113 11.6127 33.5708 13.2997C32.01 13.9354 30.4184 14.8104 29.6382 16.3037" fill="#FF0054"/>
<path d="M32.4898 13.9531C35.7691 12.6322 39.2099 11.7151 42.7142 11.2423C43.7092 11.1081 44.7088 11.0115 45.7102 10.9479C45.8877 10.9364 45.9871 10.6837 45.8072 10.5905C43.5482 9.41844 40.913 9.08372 38.4327 9.65462C38.4818 9.77156 38.5312 9.88812 38.5803 10.0051C40.2842 9.05228 42.1759 8.46528 44.121 8.29389C44.3652 8.27242 44.3675 7.88901 44.121 7.91048C42.1065 8.08838 40.1519 8.68689 38.3867 9.67379C38.1927 9.78268 38.3265 10.0722 38.5347 10.0242C40.9114 9.4771 43.4485 9.7984 45.6136 10.9214L45.7102 10.5645C42.1564 10.7899 38.6321 11.4532 35.2427 12.5475C34.2788 12.8588 33.3272 13.205 32.3878 13.5834C32.1624 13.6743 32.2605 14.0455 32.4898 13.9531Z" fill="#49006B"/>
<path d="M45.0504 12.9129C43.2817 12.0399 41.1093 12.2676 39.5538 13.4761C39.359 13.6272 39.632 13.8967 39.8249 13.7472C41.2351 12.6518 43.258 12.4551 44.8568 13.2438C45.0772 13.3527 45.2716 13.0222 45.0504 12.9129Z" fill="#44057D"/>
<path d="M28.0492 24.2418C28.1393 22.3734 29.0775 20.5798 30.5701 19.4495C30.7645 19.3023 30.5736 18.9695 30.3765 19.1183C28.7692 20.3352 27.7632 22.2258 27.6658 24.2418C27.6543 24.4887 28.0377 24.4879 28.0492 24.2418Z" fill="#44057D"/>
<path d="M43.5317 51.119C44.1582 51.132 44.9059 50.5945 44.6643 50.0167C44.5497 49.7429 44.2583 49.5941 43.9857 49.4772C43.2185 49.1482 42.4214 48.8906 41.6066 48.7073C42.0276 48.807 42.4762 48.9059 42.8845 48.7633C43.2929 48.621 43.6119 48.1349 43.4163 47.7492C43.2338 47.3884 42.7538 47.3262 42.3493 47.3124C40.1749 47.2381 37.8576 47.1836 35.9195 46.3098C35.0786 45.9306 34.091 46.1959 33.601 46.977C33.3088 47.442 33.2498 48.0126 33.4192 48.5351C34.2581 51.1174 36.008 53.4003 38.2978 54.8634C38.7958 55.1816 39.3345 55.468 39.9211 55.5435C40.5077 55.6191 41.1549 55.4488 41.5265 54.9884C41.8972 54.5275 41.8838 53.7584 41.4126 53.4014C41.7906 53.615 42.1783 53.832 42.6058 53.9102C43.0333 53.9884 43.5156 53.9041 43.8131 53.587C44.2859 53.0832 44.0792 52.2071 43.5678 51.7428C43.0563 51.2785 42.3454 51.119 41.6695 50.9763C42.2776 50.8253 42.9052 51.1063 43.5317 51.119Z" fill="#00C2B1"/>
<path d="M33.7838 46.4331C33.0515 46.8277 32.8725 47.708 33.0216 48.4671C33.1849 49.3007 33.6205 50.1227 34.0472 50.8501C34.8585 52.233 35.9459 53.4477 37.2207 54.4189C37.9623 54.9844 38.7678 55.4602 39.6205 55.8386C39.844 55.9379 40.0392 55.6074 39.8141 55.5074C37.0785 54.2939 34.8225 52.0275 33.6776 49.2543C33.3567 48.4767 33.0473 47.2652 33.9775 46.7644C34.1945 46.6471 34.0012 46.3162 33.7838 46.4331Z" fill="#44057D"/>
<mask id="mask0_813_28" style="mask-type:luminance" maskUnits="userSpaceOnUse" x="13" y="46" width="8" height="14">
<path d="M13.6084 46.7502L20.2322 46.7502L20.2322 59.2552L13.6084 59.2552L13.6084 46.7502Z" fill="white"/>
</mask>
<g mask="url(#mask0_813_28)">
<path d="M16.32 48.2838C15.6149 47.6297 14.8052 47.1144 13.9076 46.7682C13.6093 46.6528 13.4801 47.1328 13.7753 47.2467C17.1858 48.5633 18.6834 52.2674 19.2792 55.6047C19.4809 56.7353 19.6078 57.8771 19.7335 59.0186C19.7684 59.3326 20.2653 59.336 20.2301 59.0186C19.8106 55.2186 19.2811 51.0306 16.32 48.2838Z" fill="#FF0054"/>
</g>
<mask id="mask1_813_28" style="mask-type:luminance" maskUnits="userSpaceOnUse" x="32" y="60" width="13" height="4">
<path d="M32.7476 60.5406L44.0072 60.5406L44.0072 63.4358L32.7476 63.4358L32.7476 60.5406Z" fill="white"/>
</mask>
<g mask="url(#mask1_813_28)">
<path d="M43.9447 63.0018C42.7949 61.6387 41.081 60.8972 39.3426 60.6484C37.1952 60.3409 35.0335 60.7488 32.9262 61.1484C32.6126 61.2078 32.7453 61.6863 33.0581 61.6272C36.5441 60.9659 40.9925 60.2696 43.5935 63.353C43.7998 63.5976 44.1495 63.2445 43.9447 63.0018Z" fill="#FF0054"/>
</g>
<mask id="mask2_813_28" style="mask-type:luminance" maskUnits="userSpaceOnUse" x="47" y="11" width="8" height="13">
<path d="M47.1655 11.9056L54.0857 11.9056L54.0857 23.5747L47.1655 23.5747L47.1655 11.9056Z" fill="white"/>
</mask>
<g mask="url(#mask2_813_28)">
<path d="M50.0384 13.6992C49.2853 13.0071 48.4457 12.4124 47.5404 11.9366C47.2579 11.7878 47.0067 12.2165 47.2897 12.3653C50.3746 13.9871 52.6003 17.0218 53.3361 20.4181C53.5439 21.3766 53.6225 22.3558 53.5773 23.3355C53.5627 23.6548 54.0592 23.6541 54.0738 23.3355C54.239 19.7337 52.6854 16.1323 50.0384 13.6992Z" fill="#FF0054"/>
</g>
<mask id="mask3_813_28" style="mask-type:luminance" maskUnits="userSpaceOnUse" x="19" y="21" width="7" height="13">
<path d="M19.7812 21.1711L25.7724 21.1711L25.7724 33.0661L19.7812 33.0661L19.7812 21.1711Z" fill="white"/>
</mask>
<g mask="url(#mask3_813_28)">
<path d="M25.3571 21.2523C23.0919 23.8622 23.233 27.5433 21.648 30.4891C21.2105 31.3023 20.6389 32.043 19.8885 32.5905C19.6332 32.7773 19.8809 33.2082 20.1397 33.0192C22.9532 30.9645 23.1288 27.2266 24.2384 24.2103C24.585 23.2682 25.047 22.3649 25.7084 21.6035C25.9169 21.3631 25.5673 21.0103 25.3571 21.2523Z" fill="#00C2B1"/>
</g>
<mask id="mask4_813_28" style="mask-type:luminance" maskUnits="userSpaceOnUse" x="8" y="26" width="11" height="11">
<path d="M8.17383 26.7064L18.5467 26.7064L18.5467 36.0824L8.17383 36.0824L8.17383 26.7064Z" fill="white"/>
</mask>
<g mask="url(#mask4_813_28)">
<path d="M18.1206 33.7078C16.3228 35.4477 13.5591 36.0351 11.1942 35.238C10.1046 34.8703 8.67139 34.0609 8.66756 32.7435C8.66488 31.9816 9.13494 31.2877 9.60999 30.7294C10.0429 30.2206 10.5413 29.767 11.0785 29.3702C12.3142 28.4569 13.7163 27.8024 15.1054 27.1606C15.3953 27.0268 15.143 26.5985 14.8547 26.732C13.4656 27.3734 12.0634 28.0279 10.8277 28.9416C9.70891 29.769 8.38192 30.9786 8.19289 32.4394C8.00196 33.9175 9.2791 34.9677 10.501 35.4991C11.7176 36.0286 13.0687 36.1907 14.3804 36.0128C15.911 35.8054 17.3591 35.1356 18.4714 34.059C18.7018 33.8362 18.3503 33.4854 18.1206 33.7078Z" fill="#00C2B1"/>
</g>
</svg>
