<svg width="20" height="20" viewBox="0 0 20 20" fill="none" xmlns="http://www.w3.org/2000/svg">
<path d="M9.94698 0H11.3953C11.5804 0 11.7578 0.0735048 11.8887 0.204344C12.0195 0.335183 12.093 0.51264 12.093 0.697674C12.093 0.882709 12.0195 1.06017 11.8887 1.191C11.7578 1.32184 11.5804 1.39535 11.3953 1.39535H10C7.78791 1.39535 6.19907 1.39721 4.98977 1.55907C3.8 1.71907 3.08279 2.02419 2.55256 2.55349C2.02326 3.08372 1.71907 3.8 1.55907 4.98977C1.39721 6.19907 1.39535 7.78791 1.39535 10C1.39535 12.2121 1.39721 13.8009 1.55907 15.0102C1.71907 16.2 2.02419 16.9172 2.55349 17.4474C3.08372 17.9767 3.8 18.2809 4.98977 18.4409C6.19907 18.6028 7.78791 18.6047 10 18.6047C12.2121 18.6047 13.8009 18.6028 15.0102 18.4409C16.2 18.2809 16.9172 17.9758 17.4474 17.4465C17.9767 16.9163 18.2809 16.2 18.4409 15.0102C18.6028 13.8009 18.6047 12.2121 18.6047 10V8.60465C18.6047 8.41962 18.6782 8.24216 18.809 8.11132C18.9398 7.98048 19.1173 7.90698 19.3023 7.90698C19.4874 7.90698 19.6648 7.98048 19.7957 8.11132C19.9265 8.24216 20 8.41962 20 8.60465V10.053C20 12.2009 20 13.8837 19.8233 15.1972C19.6428 16.5405 19.2651 17.6009 18.4335 18.4335C17.6009 19.266 16.5405 19.6428 15.1963 19.8233C13.8837 20 12.2009 20 10.053 20H9.94698C7.79907 20 6.11628 20 4.80279 19.8233C3.45954 19.6428 2.39907 19.2651 1.56651 18.4335C0.733954 17.6009 0.357209 16.5405 0.176744 15.1963C5.54462e-08 13.8837 0 12.2009 0 10.053V9.94698C0 7.79907 5.54462e-08 6.11628 0.176744 4.80279C0.357209 3.45954 0.734884 2.39907 1.56651 1.56651C2.39907 0.733954 3.45953 0.357209 4.80372 0.176744C6.11628 5.54462e-08 7.79907 0 9.94698 0Z" fill="black"/>
<path d="M15.0979 7.60372C15.24 7.72217 15.3292 7.89219 15.3459 8.07639C15.3627 8.2606 15.3056 8.44391 15.1872 8.58604L13.4858 10.6279C13.1807 10.9944 12.9053 11.3256 12.6486 11.5581C12.3677 11.8093 12.016 12.0353 11.5509 12.0353C11.0858 12.0353 10.7333 11.8102 10.4533 11.5572C10.1965 11.3246 9.92116 10.9944 9.61511 10.627L9.34349 10.3014C8.99837 9.88744 8.78628 9.63535 8.61139 9.47814C8.56612 9.43374 8.51513 9.39557 8.45976 9.36465L8.45325 9.36186L8.44953 9.36L8.44023 9.36465C8.38452 9.39547 8.33321 9.43364 8.28767 9.47814C8.11372 9.63628 7.90163 9.88744 7.55651 10.3014L5.88488 12.307C5.76496 12.4441 5.59618 12.5288 5.41461 12.5431C5.23304 12.5574 5.05307 12.5002 4.91315 12.3836C4.77323 12.267 4.68445 12.1003 4.66578 11.9191C4.64712 11.7379 4.70004 11.5566 4.81325 11.414L6.51465 9.37209C6.81976 9.00558 7.09511 8.67442 7.35186 8.44186C7.63279 8.19069 7.98442 7.96465 8.44953 7.96465C8.91465 7.96465 9.26721 8.18976 9.54721 8.44279C9.80395 8.67535 10.0793 9.00558 10.3853 9.37302L10.657 9.6986C11.0021 10.1126 11.2142 10.3646 11.3891 10.5219C11.4691 10.5944 11.5174 10.6242 11.5407 10.6353L11.55 10.64L11.5546 10.6381L11.5612 10.6353C11.6165 10.6045 11.6675 10.5663 11.7128 10.5219C11.8867 10.3637 12.0988 10.1126 12.444 9.6986L14.1156 7.69302C14.234 7.55096 14.404 7.46175 14.5883 7.44501C14.7725 7.42826 14.9558 7.48535 15.0979 7.60372Z" fill="black"/>
<path fill-rule="evenodd" clip-rule="evenodd" d="M16.5118 0C15.5866 0 14.6994 0.367524 14.0452 1.02172C13.391 1.67592 13.0234 2.5632 13.0234 3.48837C13.0234 4.41355 13.391 5.30083 14.0452 5.95502C14.6994 6.60922 15.5866 6.97674 16.5118 6.97674C17.437 6.97674 18.3243 6.60922 18.9785 5.95502C19.6327 5.30083 20.0002 4.41355 20.0002 3.48837C20.0002 2.5632 19.6327 1.67592 18.9785 1.02172C18.3243 0.367524 17.437 0 16.5118 0ZM14.4188 3.48837C14.4188 2.93327 14.6393 2.4009 15.0318 2.00838C15.4243 1.61586 15.9567 1.39535 16.5118 1.39535C17.0669 1.39535 17.5993 1.61586 17.9918 2.00838C18.3843 2.4009 18.6048 2.93327 18.6048 3.48837C18.6048 4.04348 18.3843 4.57584 17.9918 4.96836C17.5993 5.36088 17.0669 5.5814 16.5118 5.5814C15.9567 5.5814 15.4243 5.36088 15.0318 4.96836C14.6393 4.57584 14.4188 4.04348 14.4188 3.48837Z" fill="black"/>
</svg>
