<svg width="16" height="20" viewBox="0 0 16 20" fill="none" xmlns="http://www.w3.org/2000/svg">
<path d="M9.14942 19.5664C9.03333 19.4161 8.96172 19.2363 8.94272 19.0474C8.92372 18.8585 8.95809 18.668 9.04193 18.4977C9.26192 18.0702 9.34817 17.5815 9.29192 17.1002C9.24583 16.7569 9.13242 16.426 8.95818 16.1265C8.78619 15.831 8.55617 15.5733 8.28195 15.369C7.34741 14.6667 6.69162 13.6562 6.43076 12.5166C4.29583 15.3153 5.11455 16.904 6.13702 18.3039C6.25691 18.4681 6.32005 18.6668 6.31689 18.87C6.31374 19.0732 6.24445 19.2698 6.11952 19.4302C5.99222 19.5924 5.82142 19.7151 5.62704 19.7839C5.43491 19.8513 5.22728 19.8613 5.02956 19.8126C3.64835 19.4752 2.34839 18.8327 1.46717 17.809C0.967649 17.2403 0.583069 16.5802 0.33471 15.8653C0.0835209 15.1442 -0.0280461 14.3819 0.00597079 13.6191C0.00597079 13.6191 -0.160274 10.5404 3.55211 7.52429C3.55211 7.52429 7.93946 3.80191 6.41701 1.0495C6.36091 0.91411 6.34429 0.765604 6.36907 0.621161C6.39384 0.476717 6.459 0.342238 6.55701 0.233278C6.65227 0.126447 6.77809 0.0515121 6.9174 0.0186413C7.05671 -0.0142295 7.20276 -0.00344406 7.33573 0.049534L7.51823 0.122032C9.17077 1.16663 10.4624 2.69386 11.2181 4.49689C11.9431 6.26308 11.9381 8.32176 11.4481 10.1555C11.8543 9.79047 12.1931 9.35423 12.4493 8.86425L12.4856 8.78425C12.7331 8.18802 13.5118 8.37801 13.8043 8.768C13.9118 8.93925 16.6692 12.9466 15.188 16.3278C14.6464 17.3522 13.8554 18.2235 12.8881 18.8614C12.0763 19.4001 11.1693 19.7789 10.2156 19.9776C10.0185 20.0191 9.8136 20.0026 9.62566 19.9301C9.43603 19.8564 9.27099 19.7308 9.14942 19.5676V19.5664ZM6.942 9.86547C7.0587 9.80464 7.19392 9.78964 7.32112 9.8234C7.44832 9.85717 7.5583 9.93726 7.62947 10.048C7.67947 10.1217 7.71197 10.2055 7.72322 10.2955L7.77947 10.7317C7.80447 11.3704 7.79697 12.0379 8.04571 12.6516C8.3032 13.2816 8.70319 13.8391 9.21067 14.2741C9.86445 14.7043 10.3705 15.3246 10.6606 16.0515C10.9356 16.7565 10.9731 17.539 10.7656 18.2677C11.4004 18.0675 11.9905 17.7461 12.5031 17.3215L12.6318 17.2165C13.0518 16.8702 13.398 16.4377 13.648 15.9453C13.8993 15.454 14.0505 14.9141 14.0905 14.3591C14.1718 13.0779 13.7355 11.7917 13.0568 10.6442C12.7468 11.0942 12.3193 11.4429 11.8256 11.6492C11.5168 11.7804 11.1894 11.8616 10.8556 11.8866C10.6645 11.8989 10.4739 11.8555 10.3069 11.7617C10.1373 11.6653 9.99831 11.5232 9.90565 11.3517C9.82895 11.2133 9.78512 11.0592 9.77753 10.9012C9.76994 10.7431 9.79881 10.5855 9.8619 10.4404C10.3769 9.22549 10.5369 7.87803 10.3181 6.56932C10.0592 5.07204 9.34208 3.69197 8.2657 2.61945C8.07071 5.37561 5.24455 7.94178 4.66457 8.49426C4.57467 8.57897 4.48126 8.65987 4.38458 8.73675C1.35218 11.1929 1.55967 13.4303 1.55967 13.5291C1.49945 14.4179 1.69877 15.3051 2.1334 16.0828C2.58964 16.889 3.24587 17.554 4.03334 18.0077C3.12462 16.0103 3.12462 13.6128 6.47826 10.1755L6.94324 9.86296L6.942 9.86547Z" fill="black"/>
</svg>
