<svg width="19" height="14" viewBox="0 0 19 14" fill="none" xmlns="http://www.w3.org/2000/svg">
<path d="M15.3202 1.17252C14.1341 0.617574 12.8793 0.223258 11.589 0C11.4283 0.29057 11.2405 0.681388 11.111 0.992305C9.71986 0.783119 8.34147 0.783119 6.97587 0.992305C6.84644 0.681459 6.65443 0.29057 6.49222 0C5.20065 0.223361 3.94481 0.618681 2.75819 1.17542C0.396889 4.74372 -0.243242 8.22328 0.0767881 11.6536C1.64296 12.8232 3.16073 13.5337 4.65293 13.9986C5.02378 13.4886 5.3516 12.9487 5.63302 12.3844C5.09725 12.1804 4.58075 11.929 4.08967 11.6333C4.2189 11.5375 4.34509 11.4376 4.46805 11.3339C7.44383 12.7258 10.6772 12.7258 13.6175 11.3339C13.741 11.437 13.8672 11.5368 13.9958 11.6333C13.504 11.9298 12.9865 12.1817 12.4497 12.3859C12.7327 12.9524 13.0599 13.4929 13.4297 14C14.9233 13.5351 16.4425 12.8246 18.0087 11.6536C18.3843 7.67704 17.3672 4.22941 15.3202 1.17252ZM6.03846 9.54403C5.14513 9.54403 4.41252 8.71004 4.41252 7.69449C4.41252 6.67895 5.12952 5.84355 6.03846 5.84355C6.94747 5.84355 7.68001 6.67746 7.66439 7.69449C7.66581 8.71004 6.94747 9.54403 6.03846 9.54403ZM12.047 9.54403C11.1537 9.54403 10.4212 8.71004 10.4212 7.69449C10.4212 6.67895 11.1381 5.84355 12.047 5.84355C12.956 5.84355 13.6886 6.67746 13.673 7.69449C13.673 8.71004 12.956 9.54403 12.047 9.54403Z" fill="black"/>
</svg>
