<svg width="14" height="14" viewBox="0 0 14 14" fill="none" xmlns="http://www.w3.org/2000/svg">
<path d="M7.00056 0C5.09952 0 4.86089 0.00832992 4.11428 0.0422796C3.36907 0.0764392 2.86038 0.194388 2.41533 0.367496C1.95487 0.546275 1.56434 0.785462 1.17529 1.17466C0.785882 1.56378 0.546695 1.95431 0.367356 2.41456C0.193758 2.85975 0.0756692 3.36865 0.0421395 4.11351C0.00874986 4.86019 0 5.09889 0 7C0 8.90111 0.00839992 9.13897 0.0422796 9.88558C0.0765793 10.6308 0.194528 11.1395 0.367496 11.5845C0.546415 12.045 0.785602 12.4355 1.1748 12.8246C1.56378 13.214 1.95431 13.4537 2.41442 13.6325C2.85982 13.8056 3.36858 13.9236 4.11365 13.9577C4.86033 13.9917 5.09875 14 6.99972 14C8.90097 14 9.13883 13.9917 9.88544 13.9577C10.6307 13.9236 11.1399 13.8056 11.5853 13.6325C12.0456 13.4537 12.4355 13.214 12.8244 12.8246C13.2138 12.4355 13.453 12.045 13.6324 11.5847C13.8044 11.1395 13.9226 10.6307 13.9576 9.88572C13.9911 9.13911 13.9999 8.90111 13.9999 7C13.9999 5.09889 13.9911 4.86033 13.9576 4.11365C13.9226 3.36844 13.8044 2.85982 13.6324 2.41477C13.453 1.95431 13.2138 1.56378 12.8244 1.17466C12.4351 0.785322 12.0457 0.546135 11.5849 0.367566C11.1386 0.194388 10.6297 0.0763692 9.88446 0.0422796C9.13778 0.00832992 8.90006 0 6.99839 0H7.00056ZM6.3726 1.26146C6.55901 1.26118 6.76697 1.26146 7.00056 1.26146C8.86961 1.26146 9.09109 1.26818 9.82916 1.30171C10.5117 1.33293 10.8821 1.44696 11.1288 1.54278C11.4555 1.66962 11.6884 1.82131 11.9333 2.06638C12.1783 2.31138 12.3299 2.54468 12.4571 2.87137C12.5529 3.11777 12.6671 3.48821 12.6982 4.1707C12.7317 4.90863 12.739 5.13025 12.739 6.99839C12.739 8.86653 12.7317 9.08822 12.6982 9.82608C12.6669 10.5086 12.5529 10.879 12.4571 11.1255C12.3302 11.4522 12.1783 11.6848 11.9333 11.9296C11.6883 12.1746 11.4557 12.3262 11.1288 12.4532C10.8824 12.5494 10.5117 12.6632 9.82916 12.6944C9.09123 12.7279 8.86961 12.7352 7.00056 12.7352C5.13144 12.7352 4.90989 12.7279 4.17203 12.6944C3.48954 12.6629 3.1191 12.5488 2.87214 12.453C2.54552 12.3261 2.31215 12.1745 2.06715 11.9295C1.82215 11.6845 1.67053 11.4517 1.54334 11.1249C1.44752 10.8785 1.33335 10.508 1.30227 9.82552C1.26874 9.08759 1.26202 8.86597 1.26202 6.99664C1.26202 5.12738 1.26874 4.90688 1.30227 4.16895C1.33349 3.48645 1.44752 3.11602 1.54334 2.86927C1.67025 2.54258 1.82215 2.30928 2.06722 2.06428C2.31222 1.81928 2.54552 1.66759 2.87221 1.54047C3.11896 1.44423 3.48954 1.33048 4.17203 1.29912C4.81777 1.26993 5.06802 1.26118 6.3726 1.25971V1.26146ZM10.7371 2.42373C10.2734 2.42373 9.89713 2.79962 9.89713 3.26344C9.89713 3.72718 10.2734 4.10343 10.7371 4.10343C11.2009 4.10343 11.5771 3.72718 11.5771 3.26344C11.5771 2.79969 11.2009 2.42345 10.7371 2.42345V2.42373ZM7.00056 3.40519C5.01538 3.40519 3.40582 5.01475 3.40582 7C3.40582 8.98525 5.01538 10.594 7.00056 10.594C8.98581 10.594 10.5948 8.98525 10.5948 7C10.5948 5.01482 8.98567 3.40519 7.00042 3.40519H7.00056ZM7.00056 4.66664C8.28918 4.66664 9.33392 5.71124 9.33392 7C9.33392 8.28862 8.28918 9.33336 7.00056 9.33336C5.71187 9.33336 4.66727 8.28862 4.66727 7C4.66727 5.71124 5.71187 4.66664 7.00056 4.66664Z" fill="black"/>
</svg>
