<svg width="15" height="14" viewBox="0 0 15 14" fill="none" xmlns="http://www.w3.org/2000/svg">
<path d="M11.4312 14H13.7117C13.7944 14 13.8736 13.9672 13.9321 13.9087C13.9905 13.8503 14.0234 13.7711 14.0234 13.6884L14.0245 8.87006C14.0245 6.35164 13.4819 4.41586 10.5388 4.41586C9.42005 4.37426 8.36502 4.95098 7.7957 5.91399C7.79291 5.91867 7.78868 5.92231 7.78363 5.92435C7.77859 5.9264 7.77301 5.92673 7.76776 5.92531C7.7625 5.92389 7.75786 5.92079 7.75453 5.91648C7.75121 5.91217 7.74938 5.90689 7.74934 5.90145V4.96001C7.74934 4.87736 7.7165 4.79809 7.65806 4.73964C7.59961 4.68119 7.52034 4.64836 7.43768 4.64836H5.27346C5.19081 4.64836 5.11153 4.68119 5.05309 4.73964C4.99464 4.79809 4.96181 4.87736 4.96181 4.96001V13.688C4.96181 13.7706 4.99464 13.8499 5.05309 13.9083C5.11153 13.9668 5.19081 13.9996 5.27346 13.9996H7.55385C7.63651 13.9996 7.71578 13.9668 7.77423 13.9083C7.83267 13.8499 7.86551 13.7706 7.86551 13.688V9.37362C7.86551 8.15371 8.09691 6.9723 9.60931 6.9723C11.1002 6.9723 11.1195 8.36821 11.1195 9.45262V13.6883C11.1195 13.771 11.1523 13.8503 11.2108 13.9087C11.2692 13.9672 11.3485 14 11.4312 14ZM0 1.68505C0 2.6095 0.760987 3.3701 1.68544 3.3701C2.60966 3.37002 3.37018 2.60895 3.37018 1.68474C3.37002 0.76052 2.60942 0 1.68513 0C0.760598 0 0 0.760675 0 1.68505ZM0.542204 14H2.82563C2.90829 14 2.98756 13.9672 3.04601 13.9087C3.10446 13.8503 3.13729 13.771 3.13729 13.6883V4.96001C3.13729 4.87736 3.10446 4.79809 3.04601 4.73964C2.98756 4.68119 2.90829 4.64836 2.82563 4.64836H0.542204C0.459548 4.64836 0.380277 4.68119 0.32183 4.73964C0.263383 4.79809 0.230548 4.87736 0.230548 4.96001V13.6883C0.230548 13.771 0.263383 13.8503 0.32183 13.9087C0.380277 13.9672 0.459548 14 0.542204 14Z" fill="black"/>
</svg>
