<svg width="18" height="14" viewBox="0 0 18 14" fill="none" xmlns="http://www.w3.org/2000/svg">
<path d="M1.22959 6.02698C6.03251 4.05143 9.23445 2.74891 10.8354 2.11964C15.4118 0.322746 16.3616 0.010665 16.9819 9.2123e-05C17.1183 -0.00197383 17.4221 0.029866 17.6203 0.181167C17.785 0.30877 17.8313 0.481339 17.8545 0.602501C17.8751 0.723542 17.9034 0.999408 17.8802 1.21475C17.6331 3.67446 16.5598 9.64337 16.0141 12.3984C15.7851 13.5641 15.3295 13.9549 14.8893 13.9931C13.9318 14.0762 13.206 13.3961 12.2794 12.8228C10.8303 11.9252 10.0118 11.3666 8.60384 10.4909C6.97713 9.47883 8.03244 8.92247 8.95904 8.01345C9.20099 7.7755 13.4171 4.15522 13.4968 3.82685C13.5071 3.78578 13.5174 3.63265 13.4196 3.55196C13.3244 3.47102 13.1828 3.49873 13.0799 3.5206C12.9332 3.55172 10.6192 4.9974 6.13031 7.85741C5.47397 8.28373 4.87939 8.49154 4.34402 8.4806C3.75717 8.46869 2.62465 8.16658 1.78298 7.90845C0.753416 7.59176 -0.0676619 7.42429 0.00440759 6.88641C0.0404423 6.60642 0.449694 6.31986 1.22959 6.02698Z" fill="black"/>
</svg>
