<svg width="24" height="24" viewBox="0 0 24 24" fill="none" xmlns="http://www.w3.org/2000/svg">
<path d="M16.0004 8.4L7.12539 17.3C6.92539 17.5 6.68772 17.6 6.41239 17.6C6.13706 17.6 5.89972 17.5 5.70039 17.3C5.50039 17.1 5.40039 16.8623 5.40039 16.587C5.40039 16.3117 5.50039 16.0743 5.70039 15.875L14.6004 7H7.00039C6.71706 7 6.47939 6.904 6.28739 6.712C6.09539 6.52 5.99972 6.28267 6.00039 6C6.00039 5.71667 6.09639 5.479 6.28839 5.287C6.48039 5.095 6.71772 4.99934 7.00039 5H17.0004C17.2837 5 17.5214 5.096 17.7134 5.288C17.9054 5.48 18.0011 5.71734 18.0004 6V16C18.0004 16.2833 17.9044 16.521 17.7124 16.713C17.5204 16.905 17.2831 17.0007 17.0004 17C16.7171 17 16.4794 16.904 16.2874 16.712C16.0954 16.52 15.9997 16.2827 16.0004 16V8.4Z" fill="#0C263A"/>
</svg>
