<svg width="18" height="14" viewBox="0 0 18 14" fill="none" xmlns="http://www.w3.org/2000/svg">
<path d="M15.4655 3.48521C15.476 3.63711 15.476 3.78902 15.476 3.94236C15.476 8.61314 11.9202 14 5.41835 14V13.9971C3.49758 13.9999 1.6166 13.4498 0 12.4125C0.279307 12.4461 0.559954 12.4629 0.841367 12.4635C2.43333 12.4648 3.97949 11.9308 5.23141 10.9474C4.4938 10.9335 3.77898 10.6894 3.1869 10.2493C2.59481 9.80916 2.15506 9.19502 1.92911 8.49273C2.4587 8.59484 3.00467 8.57401 3.52494 8.43185C1.87589 8.09866 0.689462 6.64976 0.689462 4.96703V4.92223C1.18106 5.19605 1.73125 5.34777 2.29371 5.36464C0.740576 4.32658 0.261791 2.2603 1.19964 0.644757C2.08708 1.73681 3.19432 2.62996 4.44943 3.26621C5.70455 3.90245 7.07947 4.26754 8.48489 4.33777C8.34476 3.73459 8.36546 3.10519 8.54491 2.51252C8.72436 1.91985 9.05627 1.38468 9.50745 0.960533C10.9312 -0.377806 13.1703 -0.309176 14.5087 1.11378C15.3002 0.957491 16.0594 0.667288 16.7534 0.25566C16.4895 1.07412 15.9373 1.76885 15.1995 2.21062C15.9002 2.12806 16.5845 1.94049 17.2294 1.65421C16.755 2.36463 16.1577 2.98462 15.4655 3.48521Z" fill="black"/>
</svg>
