<svg xmlns="http://www.w3.org/2000/svg" xmlns:xlink="http://www.w3.org/1999/xlink" viewBox="0 0 1240 272" width="1240" height="272" preserveAspectRatio="xMidYMid meet" style="width: 100%; height: 100%; transform: translate3d(0px, 0px, 0px); content-visibility: visible;">
   <defs>
      <clipPath id="__lottie_element_147">
         <rect width="1240" height="272" x="0" y="0"></rect>
      </clipPath>
      <linearGradient id="__lottie_element_151" spreadMethod="pad" gradientUnits="userSpaceOnUse" x1="0" y1="-135" x2="0" y2="135">
         <stop offset="0%" stop-color="rgb(25,24,58)" stop-opacity="1"></stop>
         <stop offset="50%" stop-color="rgb(25,24,58)" stop-opacity="0.5"></stop>
         <stop offset="100%" stop-color="rgb(25,24,58)" stop-opacity="0"></stop>
      </linearGradient>
      <clipPath id="__lottie_element_156">
         <path d="M0,0 L114,0 L114,48 L0,48z"></path>
      </clipPath>
      <clipPath id="__lottie_element_167">
         <path d="M0,0 L20,0 L20,20 L0,20z"></path>
      </clipPath>
      <clipPath id="__lottie_element_589">
         <path d="M0,0 L152,0 L152,48 L0,48z"></path>
      </clipPath>
      <clipPath id="__lottie_element_600">
         <path d="M0,0 L24,0 L24,24 L0,24z"></path>
      </clipPath>
      <clipPath id="__lottie_element_645">
         <path d="M0,0 L147,0 L147,48 L0,48z"></path>
      </clipPath>
      <clipPath id="__lottie_element_656">
         <path d="M0,0 L20,0 L20,20 L0,20z"></path>
      </clipPath>
      <clipPath id="__lottie_element_710">
         <path d="M0,0 L227,0 L227,48 L0,48z"></path>
      </clipPath>
      <clipPath id="__lottie_element_721">
         <path d="M0,0 L24,0 L24,24 L0,24z"></path>
      </clipPath>
      <clipPath id="__lottie_element_805">
         <path d="M0,0 L166,0 L166,48 L0,48z"></path>
      </clipPath>
      <clipPath id="__lottie_element_816">
         <path d="M0,0 L20,0 L20,20 L0,20z"></path>
      </clipPath>
   </defs>
   <g clip-path="url(#__lottie_element_147)">
      <g transform="matrix(1,0,0,-1,620,136)" opacity="1" style="display: block;">
         <g opacity="1" transform="matrix(1,0,0,1,0,0)">
            <path fill="rgb(241,241,241)" fill-opacity="0" d=" M0,-135 C342.1780090332031,-135 620,-74.50650024414062 620,0 C620,74.50650024414062 342.1780090332031,135 0,135 C-342.1780090332031,135 -620,74.50650024414062 -620,0 C-620,-74.50650024414062 -342.1780090332031,-135 0,-135z"></path>
            <path stroke="url(#__lottie_element_151)" stroke-linecap="butt" stroke-linejoin="miter" fill-opacity="0" stroke-miterlimit="4" stroke-opacity="1" stroke-width="1" d=" M0,-135 C342.1780090332031,-135 620,-74.50650024414062 620,0 C620,74.50650024414062 342.1780090332031,135 0,135 C-342.1780090332031,135 -620,74.50650024414062 -620,0 C-620,-74.50650024414062 -342.1780090332031,-135 0,-135z"></path>
         </g>
      </g>
   </g>
</svg>