<svg xmlns="http://www.w3.org/2000/svg" viewBox="0 0 1400 900">
  <!-- Background -->
  <rect width="1400" height="900" fill="#f9fafb"/>
  
  <!-- Title -->
  <text x="700" y="40" font-family="Arial" font-size="24" text-anchor="middle" font-weight="bold">Employee Sessions App - Navigation Flow</text>
  
  <!-- Authentication Section -->
  <rect x="630" y="60" width="140" height="60" rx="8" fill="#4f46e5" stroke="#3730a3" stroke-width="2"/>
  <text x="700" y="95" font-family="Arial" font-size="16" text-anchor="middle" fill="white" font-weight="bold">Login Screen</text>
  
  <!-- Role Detection -->
  <rect x="630" y="160" width="140" height="60" rx="8" fill="#818cf8" stroke="#6366f1" stroke-width="2"/>
  <text x="700" y="195" font-family="Arial" font-size="14" text-anchor="middle" fill="white" font-weight="bold">Role Detection</text>
  
  <!-- Connect Login to Role Detection -->
  <path d="M700 120 L700 160" stroke="#6b7280" stroke-width="2" fill="none" marker-end="url(#arrowhead)"/>
  
  <!-- Password Recovery Flow -->
  <rect x="850" y="100" width="140" height="50" rx="8" fill="#ef4444" stroke="#b91c1c" stroke-width="2"/>
  <text x="920" y="130" font-family="Arial" font-size="14" text-anchor="middle" fill="white">Password Reset</text>
  
  <!-- Connect Login to Password Recovery -->
  <path d="M770 90 L850 125" stroke="#6b7280" stroke-width="2" fill="none" marker-end="url(#arrowhead)"/>
  <text x="810" y="95" font-family="Arial" font-size="12" fill="#6b7280">Forgot Password</text>
  
  <!-- Password Reset Flow -->
  <rect x="850" y="170" width="140" height="50" rx="8" fill="#fecaca" stroke="#ef4444" stroke-width="1"/>
  <text x="920" y="200" font-family="Arial" font-size="12" text-anchor="middle">Email Sent</text>
  
  <!-- Connect Password Reset to Email Sent -->
  <path d="M920 150 L920 170" stroke="#6b7280" stroke-width="2" fill="none" marker-end="url(#arrowhead)"/>
  
  <!-- Super Manager Dashboard -->
  <rect x="380" y="260" width="140" height="60" rx="8" fill="#4f46e5" stroke="#3730a3" stroke-width="2"/>
  <text x="450" y="295" font-family="Arial" font-size="14" text-anchor="middle" fill="white" font-weight="bold">Super Manager</text>
  
  <!-- Manager Dashboard -->
  <rect x="630" y="260" width="140" height="60" rx="8" fill="#4f46e5" stroke="#3730a3" stroke-width="2"/>
  <text x="700" y="295" font-family="Arial" font-size="14" text-anchor="middle" fill="white" font-weight="bold">Manager</text>
  
  <!-- Team Member Dashboard -->
  <rect x="880" y="260" width="140" height="60" rx="8" fill="#4f46e5" stroke="#3730a3" stroke-width="2"/>
  <text x="950" y="295" font-family="Arial" font-size="14" text-anchor="middle" fill="white" font-weight="bold">Team Member</text>
  
  <!-- Connect Role Detection to Dashboards -->
  <path d="M630 190 L450 190 L450 260" stroke="#6b7280" stroke-width="2" fill="none" marker-end="url(#arrowhead)"/>
  <path d="M700 220 L700 260" stroke="#6b7280" stroke-width="2" fill="none" marker-end="url(#arrowhead)"/>
  <path d="M770 190 L950 190 L950 260" stroke="#6b7280" stroke-width="2" fill="none" marker-end="url(#arrowhead)"/>
  
  <!-- Super Manager Main Sections -->
  <rect x="150" y="360" width="120" height="50" rx="8" fill="#c7d2fe" stroke="#818cf8" stroke-width="2"/>
  <text x="210" y="390" font-family="Arial" font-size="14" text-anchor="middle" font-weight="bold">User Mgmt</text>
  
  <rect x="290" y="360" width="120" height="50" rx="8" fill="#c7d2fe" stroke="#818cf8" stroke-width="2"/>
  <text x="350" y="390" font-family="Arial" font-size="14" text-anchor="middle" font-weight="bold">Tasks</text>
  
  <rect x="430" y="360" width="120" height="50" rx="8" fill="#c7d2fe" stroke="#818cf8" stroke-width="2"/>
  <text x="490" y="390" font-family="Arial" font-size="14" text-anchor="middle" font-weight="bold">Reports</text>
  
  <rect x="570" y="360" width="120" height="50" rx="8" fill="#c7d2fe" stroke="#818cf8" stroke-width="2"/>
  <text x="630" y="390" font-family="Arial" font-size="14" text-anchor="middle" font-weight="bold">Settings</text>
  
  <!-- Connect Super Manager to Main Sections -->
  <path d="M450 320 L450 340 L210 340 L210 360" stroke="#6b7280" stroke-width="2" fill="none" marker-end="url(#arrowhead)"/>
  <path d="M450 320 L450 340 L350 340 L350 360" stroke="#6b7280" stroke-width="2" fill="none" marker-end="url(#arrowhead)"/>
  <path d="M450 320 L450 340 L490 340 L490 360" stroke="#6b7280" stroke-width="2" fill="none" marker-end="url(#arrowhead)"/>
  <path d="M450 320 L450 340 L630 340 L630 360" stroke="#6b7280" stroke-width="2" fill="none" marker-end="url(#arrowhead)"/>
  
  <!-- Manager Main Sections -->
  <rect x="630" y="360" width="120" height="50" rx="8" fill="#c7d2fe" stroke="#818cf8" stroke-width="2"/>
  <text x="690" y="385" font-family="Arial" font-size="14" text-anchor="middle" font-weight="bold">My Tasks</text>
  
  <rect x="770" y="360" width="120" height="50" rx="8" fill="#c7d2fe" stroke="#818cf8" stroke-width="2"/>
  <text x="830" y="385" font-family="Arial" font-size="14" text-anchor="middle" font-weight="bold">Team Tasks</text>
  
  <rect x="700" y="430" width="120" height="50" rx="8" fill="#c7d2fe" stroke="#818cf8" stroke-width="2"/>
  <text x="760" y="455" font-family="Arial" font-size="14" text-anchor="middle" font-weight="bold">Sessions</text>
  
  <rect x="850" y="430" width="120" height="50" rx="8" fill="#c7d2fe" stroke="#818cf8" stroke-width="2"/>
  <text x="910" y="455" font-family="Arial" font-size="14" text-anchor="middle" font-weight="bold">Groups</text>
  
  <!-- Connect Manager to Main Sections -->
  <path d="M700 320 L700 340 L690 340 L690 360" stroke="#6b7280" stroke-width="2" fill="none" marker-end="url(#arrowhead)"/>
  <path d="M700 320 L700 340 L830 340 L830 360" stroke="#6b7280" stroke-width="2" fill="none" marker-end="url(#arrowhead)"/>
  <path d="M700 320 L700 340 L670 340 L670 430 L700 430" stroke="#6b7280" stroke-width="2" fill="none" marker-end="url(#arrowhead)"/>
  <path d="M700 320 L700 340 L870 340 L870 430 L850 430" stroke="#6b7280" stroke-width="2" fill="none" marker-end="url(#arrowhead)"/>
  
  <!-- Team Member Main Sections -->
  <rect x="910" y="360" width="120" height="50" rx="8" fill="#c7d2fe" stroke="#818cf8" stroke-width="2"/>
  <text x="970" y="385" font-family="Arial" font-size="14" text-anchor="middle" font-weight="bold">My Tasks</text>
  
  <rect x="980" y="430" width="120" height="50" rx="8" fill="#c7d2fe" stroke="#818cf8" stroke-width="2"/>
  <text x="1040" y="455" font-family="Arial" font-size="14" text-anchor="middle" font-weight="bold">My Sessions</text>
  
  <rect x="1130" y="430" width="120" height="50" rx="8" fill="#c7d2fe" stroke="#818cf8" stroke-width="2"/>
  <text x="1190" y="455" font-family="Arial" font-size="14" text-anchor="middle" font-weight="bold">My Groups</text>
  
  <rect x="1050" y="500" width="120" height="50" rx="8" fill="#c7d2fe" stroke="#818cf8" stroke-width="2"/>
  <text x="1110" y="525" font-family="Arial" font-size="14" text-anchor="middle" font-weight="bold">Resources</text>
  
  <!-- Connect Team Member to Main Sections -->
  <path d="M950 320 L950 340 L970 340 L970 360" stroke="#6b7280" stroke-width="2" fill="none" marker-end="url(#arrowhead)"/>
  <path d="M950 320 L950 340 L1040 340 L1040 430" stroke="#6b7280" stroke-width="2" fill="none" marker-end="url(#arrowhead)"/>
  <path d="M950 320 L950 340 L1190 340 L1190 430" stroke="#6b7280" stroke-width="2" fill="none" marker-end="url(#arrowhead)"/>
  <path d="M950 320 L950 340 L1110 340 L1110 500" stroke="#6b7280" stroke-width="2" fill="none" marker-end="url(#arrowhead)"/>
  
  <!-- Task Management Section -->
  <rect x="180" y="530" width="160" height="70" rx="8" fill="#e0f2fe" stroke="#0ea5e9" stroke-width="2"/>
  <text x="260" y="560" font-family="Arial" font-size="16" text-anchor="middle" font-weight="bold">Task Detail</text>
  <text x="260" y="580" font-family="Arial" font-size="12" text-anchor="middle">View and Update</text>
  
  <rect x="400" y="530" width="160" height="70" rx="8" fill="#e0f2fe" stroke="#0ea5e9" stroke-width="2"/>
  <text x="480" y="560" font-family="Arial" font-size="16" text-anchor="middle" font-weight="bold">Create Task</text>
  <text x="480" y="580" font-family="Arial" font-size="12" text-anchor="middle">Assign and Configure</text>
  
  <!-- Connect Tasks to Task Management -->
  <path d="M350 410 L350 470 L260 470 L260 530" stroke="#6b7280" stroke-width="2" fill="none" marker-end="url(#arrowhead)"/>
  <path d="M350 410 L350 470 L480 470 L480 530" stroke="#6b7280" stroke-width="2" fill="none" marker-end="url(#arrowhead)"/>
  <path d="M690 410 L690 470 L260 470" stroke="#6b7280" stroke-width="2" fill="none" marker-end="url(#arrowhead)"/>
  <path d="M830 410 L830 470 L480 470" stroke="#6b7280" stroke-width="2" fill="none" marker-end="url(#arrowhead)"/>
  <path d="M970 410 L970 470 L260 470" stroke="#6b7280" stroke-width="2" fill="none" marker-end="url(#arrowhead)"/>
  
  <!-- Session Management Section -->
  <rect x="620" y="530" width="160" height="70" rx="8" fill="#dbeafe" stroke="#3b82f6" stroke-width="2"/>
  <text x="700" y="560" font-family="Arial" font-size="16" text-anchor="middle" font-weight="bold">Session Calendar</text>
  <text x="700" y="580" font-family="Arial" font-size="12" text-anchor="middle">View and Schedule</text>
  
  <rect x="620" y="630" width="160" height="70" rx="8" fill="#dbeafe" stroke="#3b82f6" stroke-width="2"/>
  <text x="700" y="660" font-family="Arial" font-size="16" text-anchor="middle" font-weight="bold">Session Detail</text>
  <text x="700" y="680" font-family="Arial" font-size="12" text-anchor="middle">Manage and Track</text>
  
  <rect x="620" y="730" width="160" height="70" rx="8" fill="#dbeafe" stroke="#3b82f6" stroke-width="2"/>
  <text x="700" y="760" font-family="Arial" font-size="16" text-anchor="middle" font-weight="bold">Create Session</text>
  <text x="700" y="780" font-family="Arial" font-size="12" text-anchor="middle">Configure and Invite</text>
  
  <!-- Connect Sessions to Session Management -->
  <path d="M760 480 L760 530" stroke="#6b7280" stroke-width="2" fill="none" marker-end="url(#arrowhead)"/>
  <path d="M700 600 L700 630" stroke="#6b7280" stroke-width="2" fill="none" marker-end="url(#arrowhead)"/>
  <path d="M700 700 L700 730" stroke="#6b7280" stroke-width="2" fill="none" marker-end="url(#arrowhead)"/>
  <path d="M1040 480 L1040 510 L700 510 L700 530" stroke="#6b7280" stroke-width="2" fill="none" marker-end="url(#arrowhead)"/>
  
  <!-- Group Management Section -->
  <rect x="840" y="530" width="160" height="70" rx="8" fill="#f0fdf4" stroke="#22c55e" stroke-width="2"/>
  <text x="920" y="560" font-family="Arial" font-size="16" text-anchor="middle" font-weight="bold">Group List</text>
  <text x="920" y="580" font-family="Arial" font-size="12" text-anchor="middle">Browse and Filter</text>
  
  <rect x="840" y="630" width="160" height="70" rx="8" fill="#f0fdf4" stroke="#22c55e" stroke-width="2"/>
  <text x="920" y="660" font-family="Arial" font-size="16" text-anchor="middle" font-weight="bold">Group Detail</text>
  <text x="920" y="680" font-family="Arial" font-size="12" text-anchor="middle">Members and Activities</text>
  
  <rect x="840" y="730" width="160" height="70" rx="8" fill="#f0fdf4" stroke="#22c55e" stroke-width="2"/>
  <text x="920" y="760" font-family="Arial" font-size="16" text-anchor="middle" font-weight="bold">Create Group</text>
  <text x="920" y="780" font-family="Arial" font-size="12" text-anchor="middle">Members and Purpose</text>
  
  <!-- Connect Groups to Group Management -->
  <path d="M910 480 L910 530" stroke="#6b7280" stroke-width="2" fill="none" marker-end="url(#arrowhead)"/>
  <path d="M920 600 L920 630" stroke="#6b7280" stroke-width="2" fill="none" marker-end="url(#arrowhead)"/>
  <path d="M920 700 L920 730" stroke="#6b7280" stroke-width="2" fill="none" marker-end="url(#arrowhead)"/>
  <path d="M1190 480 L1190 510 L920 510 L920 530" stroke="#6b7280" stroke-width="2" fill="none" marker-end="url(#arrowhead)"/>
  
  <!-- User Management Section -->
  <rect x="50" y="530" width="160" height="70" rx="8" fill="#fef3c7" stroke="#f59e0b" stroke-width="2"/>
  <text x="130" y="560" font-family="Arial" font-size="16" text-anchor="middle" font-weight="bold">User Directory</text>
  <text x="130" y="580" font-family="Arial" font-size="12" text-anchor="middle">Search and Manage</text>
  
  <rect x="50" y="630" width="160" height="70" rx="8" fill="#fef3c7" stroke="#f59e0b" stroke-width="2"/>
  <text x="130" y="660" font-family="Arial" font-size="16" text-anchor="middle" font-weight="bold">User Detail</text>
  <text x="130" y="680" font-family="Arial" font-size="12" text-anchor="middle">Profile and Roles</text>
  
  <!-- Connect User Mgmt to User Management -->
  <path d="M210 410 L210 470 L130 470 L130 530" stroke="#6b7280" stroke-width="2" fill="none" marker-end="url(#arrowhead)"/>
  <path d="M130 600 L130 630" stroke="#6b7280" stroke-width="2" fill="none" marker-end="url(#arrowhead)"/>
  
  <!-- Reports Section -->
  <rect x="400" y="630" width="160" height="70" rx="8" fill="#fde68a" stroke="#f59e0b" stroke-width="2"/>
  <text x="480" y="660" font-family="Arial" font-size="16" text-anchor="middle" font-weight="bold">Report Builder</text>
  <text x="480" y="680" font-family="Arial" font-size="12" text-anchor="middle">Configure and Generate</text>
  
  <!-- Connect Reports to Report Management -->
  <path d="M490 410 L490 630" stroke="#6b7280" stroke-width="2" fill="none" marker-end="url(#arrowhead)"/>
  
  <!-- Settings Section -->
  <rect x="1060" y="630" width="160" height="70" rx="8" fill="#e0e7ff" stroke="#6366f1" stroke-width="2"/>
  <text x="1140" y="660" font-family="Arial" font-size="16" text-anchor="middle" font-weight="bold">System Settings</text>
  <text x="1140" y="680" font-family="Arial" font-size="12" text-anchor="middle">Configure and Customize</text>
  
  <!-- Connect Settings to Settings Management -->
  <path d="M630 410 L630 450 L1140 450 L1140 630" stroke="#6b7280" stroke-width="2" fill="none" marker-end="url(#arrowhead)"/>
  
  <!-- Resource Library -->
  <rect x="1060" y="530" width="160" height="70" rx="8" fill="#ffedd5" stroke="#f97316" stroke-width="2"/>
  <text x="1140" y="560" font-family="Arial" font-size="16" text-anchor="middle" font-weight="bold">Resource Library</text>
  <text x="1140" y="580" font-family="Arial" font-size="12" text-anchor="middle">Browse and Access</text>
  
  <!-- Connect Resources to Resource Library -->
  <path d="M1110 550 L1110 530" stroke="#6b7280" stroke-width="2" fill="none" marker-end="url(#arrowhead)"/>
  
  <!-- Common Screens/Notifications -->
  <rect x="300" y="810" width="800" height="50" rx="8" fill="#6b7280" stroke="#4b5563" stroke-width="2"/>
  <text x="700" y="840" font-family="Arial" font-size="16" text-anchor="middle" fill="white" font-weight="bold">Notification Center (Accessible from all screens)</text>
  
  <!-- Connect Task Detail to Create Task -->
  <path d="M340 565 L400 565" stroke="#6b7280" stroke-width="2" fill="none" marker-end="url(#arrowhead)"/>
  <text x="370" y="555" font-family="Arial" font-size="10" fill="#6b7280">Create</text>
  
  <!-- Connect Group List to Group Detail -->
  <path d="M920 600 L920 630" stroke="#6b7280" stroke-width="2" fill="none" marker-end="url(#arrowhead)"/>
  
  <!-- Connect Group Detail to Create Group -->
  <path d="M840 665 L810 665 L810 765 L840 765" stroke="#6b7280" stroke-width="2" fill="none" marker-end="url(#arrowhead)"/>
  <text x="810" y="720" font-family="Arial" font-size="10" fill="#6b7280">Create New</text>
  
  <!-- Connect Session Calendar to Session Detail -->
  <path d="M700 600 L700 630" stroke="#6b7280" stroke-width="2" fill="none" marker-end="url(#arrowhead)"/>
  
  <!-- Connect Session Detail to Create Session -->
  <path d="M620 665 L590 665 L590 765 L620 765" stroke="#6b7280" stroke-width="2" fill="none" marker-end="url(#arrowhead)"/>
  <text x="590" y="720" font-family="Arial" font-size="10" fill="#6b7280">Create New</text>
  
  <!-- Legend -->
  <rect x="50" y="810" width="150" height="75" rx="5" fill="white" stroke="#d1d5db" stroke-width="1"/>
  <text x="125" y="830" font-family="Arial" font-size="14" text-anchor="middle" font-weight="bold">Legend</text>
  
  <rect x="60" y="840" width="20" height="15" rx="3" fill="#4f46e5"/>
  <text x="90" y="853" font-family="Arial" font-size="12">Main Navigation</text>
  
  <rect x="60" y="860" width="20" height="15" rx="3" fill="#c7d2fe"/>
  <text x="90" y="873" font-family="Arial" font-size="12">Section Views</text>
  
  <!-- Arrowhead Marker Definition -->
  <defs>
    <marker id="arrowhead" markerWidth="10" markerHeight="7" refX="10" refY="3.5" orient="auto">
      <polygon points="0 0, 10 3.5, 0 7" fill="#6b7280"/>
    </marker>
  </defs>
</svg>
