<svg width="500" height="500" viewBox="0 0 500 500" fill="none" xmlns="http://www.w3.org/2000/svg">
<g clip-path="url(#clip0_3031_47)">
<rect width="500" height="500" fill="white"/>
<rect width="1463" height="1463" fill="black"/>
<path d="M114.149 500.683V137.047H386.193V409.774H204.83V500.683H114.149ZM295.512 318.865V227.956H204.83V318.865H295.512Z" fill="white"/>
<path d="M443.914 28.0254C436.994 28.0254 430.23 30.0774 424.476 33.9218C418.723 37.7663 414.239 43.2306 411.591 49.6236C408.943 56.0167 408.25 63.0515 409.6 69.8384C410.95 76.6253 414.282 82.8594 419.175 87.7524C424.068 92.6455 430.302 95.9777 437.088 97.3277C443.875 98.6777 450.909 97.9848 457.302 95.3367C463.695 92.6886 469.159 88.2042 473.004 82.4506C476.848 76.6969 478.9 69.9325 478.9 63.0127C478.9 53.7335 475.214 44.8344 468.653 38.273C462.092 31.7116 453.193 28.0254 443.914 28.0254ZM443.914 95.5217C437.473 95.5217 431.176 93.6117 425.821 90.0331C420.465 86.4546 416.291 81.3683 413.826 75.4174C411.361 69.4664 410.717 62.9182 411.973 56.6008C413.23 50.2834 416.331 44.4805 420.886 39.9258C425.44 35.3712 431.243 32.2694 437.56 31.0128C443.878 29.7562 450.426 30.4012 456.376 32.8661C462.327 35.3311 467.413 39.5053 470.992 44.861C474.57 50.2166 476.48 56.5132 476.48 62.9544C476.48 71.5918 473.049 79.8754 466.942 85.983C460.834 92.0905 452.551 95.5217 443.914 95.5217Z" fill="white"/>
<path d="M427.499 46.8746L442.602 67.9253L458.71 46.5977L460.795 48.0555L442.646 72.6924L425.24 48.3908L427.499 46.8746Z" fill="white"/>
<path d="M463.696 64.5273H461.436V90.899H463.696V64.5273Z" fill="white"/>
</g>
<defs>
<clipPath id="clip0_3031_47">
<rect width="500" height="500" fill="white"/>
</clipPath>
</defs>
</svg>
